<svg width="47" height="50" viewBox="0 0 47 50" fill="none" xmlns="http://www.w3.org/2000/svg">
<mask id="path-1-inside-1_3_14259" fill="white">
<path d="M46.0144 19.4215C45.7261 22.4774 45.063 29.3965 41.1999 35.8928C35.7319 45.099 26.6025 48.7988 23.1045 50C19.6161 48.7988 10.4868 45.099 5.0092 35.8928C1.14602 29.3965 0.492559 22.4774 0.204274 19.4215C-0.141729 15.7697 0.0120675 12.685 0.223455 10.5132C3.11603 10.3017 7.67109 9.61947 12.7259 7.27466C18.9627 4.38209 23.0084 0.0960792 23.1045 0C23.2103 0.0960792 27.256 4.38209 33.4832 7.27466C38.5379 9.61947 43.093 10.3017 45.9855 10.5132C46.2066 12.685 46.3603 15.7697 46.0144 19.4215Z"/>
</mask>
<path d="M46.0144 19.4215C45.7261 22.4774 45.063 29.3965 41.1999 35.8928C35.7319 45.099 26.6025 48.7988 23.1045 50C19.6161 48.7988 10.4868 45.099 5.0092 35.8928C1.14602 29.3965 0.492559 22.4774 0.204274 19.4215C-0.141729 15.7697 0.0120675 12.685 0.223455 10.5132C3.11603 10.3017 7.67109 9.61947 12.7259 7.27466C18.9627 4.38209 23.0084 0.0960792 23.1045 0C23.2103 0.0960792 27.256 4.38209 33.4832 7.27466C38.5379 9.61947 43.093 10.3017 45.9855 10.5132C46.2066 12.685 46.3603 15.7697 46.0144 19.4215Z" stroke="#F2F4F7" stroke-width="2" stroke-miterlimit="10" stroke-linejoin="round" mask="url(#path-1-inside-1_3_14259)"/>
<mask id="path-2-inside-2_3_14259" fill="white">
<path d="M23.1064 44.1798C19.1151 42.5375 13.3436 39.2453 9.69106 33.1069C6.45337 27.661 5.89592 21.7505 5.62846 18.9098C5.51491 17.7198 5.45578 16.5167 5.44922 15.3085C8.74697 14.6741 11.9509 13.6394 15.0187 12.2167C18.2949 10.6973 21.0511 8.84152 23.1026 7.24707C25.1794 8.86357 27.916 10.6954 31.1875 12.2153C34.26 13.6408 37.4677 14.6759 40.7692 15.3103C40.7635 16.5102 40.7035 17.7114 40.5908 18.907C40.3234 21.7444 39.7669 27.6422 36.517 33.1078C32.8673 39.2519 27.0976 42.5403 23.1064 44.1798Z"/>
</mask>
<path d="M23.1064 44.1798C19.1151 42.5375 13.3436 39.2453 9.69106 33.1069C6.45337 27.661 5.89592 21.7505 5.62846 18.9098C5.51491 17.7198 5.45578 16.5167 5.44922 15.3085C8.74697 14.6741 11.9509 13.6394 15.0187 12.2167C18.2949 10.6973 21.0511 8.84152 23.1026 7.24707C25.1794 8.86357 27.916 10.6954 31.1875 12.2153C34.26 13.6408 37.4677 14.6759 40.7692 15.3103C40.7635 16.5102 40.7035 17.7114 40.5908 18.907C40.3234 21.7444 39.7669 27.6422 36.517 33.1078C32.8673 39.2519 27.0976 42.5403 23.1064 44.1798Z" stroke="#F2F4F7" stroke-width="2" stroke-miterlimit="10" stroke-linejoin="round" mask="url(#path-2-inside-2_3_14259)"/>
<mask id="path-3-inside-3_3_14259" fill="white">
<path d="M17.708 24.4693L21.6997 28.461L28.51 21.5381"/>
</mask>
<path d="M18.4151 23.7622C18.0246 23.3717 17.3914 23.3717 17.0009 23.7622C16.6104 24.1527 16.6104 24.7859 17.0009 25.1764L18.4151 23.7622ZM21.6997 28.461L20.9926 29.1681C21.1811 29.3567 21.4372 29.4621 21.7038 29.461C21.9705 29.4599 22.2256 29.3524 22.4126 29.1623L21.6997 28.461ZM29.2229 22.2394C29.6102 21.8457 29.605 21.2125 29.2113 20.8252C28.8175 20.4379 28.1844 20.4431 27.7971 20.8368L29.2229 22.2394ZM17.0009 25.1764L20.9926 29.1681L22.4068 27.7539L18.4151 23.7622L17.0009 25.1764ZM22.4126 29.1623L29.2229 22.2394L27.7971 20.8368L20.9868 27.7597L22.4126 29.1623Z" fill="#F2F4F7" mask="url(#path-3-inside-3_3_14259)"/>
</svg>
