<svg width="54" height="51" viewBox="0 0 54 51" fill="none" xmlns="http://www.w3.org/2000/svg">
<path d="M30.688 13.8134C29.1606 13.1494 27.4748 12.7812 25.7031 12.7812C18.7909 12.7812 13.1875 18.3847 13.1875 25.2969C13.1875 32.209 18.7909 37.8125 25.7031 37.8125C32.6153 37.8125 38.2187 32.209 38.2187 25.2969C38.2187 23.9959 38.0202 22.7413 37.6519 21.5618" stroke="#F2F4F7" stroke-linecap="round" stroke-linejoin="round"/>
<circle cx="3.06606" cy="3.06606" r="2.56606" transform="matrix(1 0 0 -1 22.6367 28.3633)" stroke="#F2F4F7" stroke-linecap="round" stroke-linejoin="round"/>
<path d="M39.6115 9.25864C35.8862 6.02531 31.0232 4.06836 25.7031 4.06836C13.9787 4.06836 4.47412 13.5729 4.47412 25.2973C4.47412 37.0218 13.9787 46.5263 25.7031 46.5263C37.4275 46.5263 46.9321 37.0218 46.9321 25.2973C46.9321 20.9047 45.598 16.8237 43.3129 13.4374" stroke="#F2F4F7" stroke-linecap="round" stroke-linejoin="round"/>
<path d="M25.7031 0.594727V7.54136" stroke="#F2F4F7" stroke-linecap="round" stroke-linejoin="round"/>
<path d="M25.7031 43.0527V49.9994" stroke="#F2F4F7" stroke-linecap="round" stroke-linejoin="round"/>
<path d="M50.4043 25.2969L43.4577 25.2969" stroke="#F2F4F7" stroke-linecap="round" stroke-linejoin="round"/>
<path d="M7.94531 25.2979L0.998679 25.2979" stroke="#F2F4F7" stroke-linecap="round" stroke-linejoin="round"/>
<path d="M40.2309 17.1334L44.3792 10.847L42.5057 8.61426L35.6014 11.5718C35.191 11.7476 34.7742 11.9088 34.367 12.0663C34.2942 12.0945 34.2216 12.1226 34.1495 12.1506C33.2812 12.4877 32.4111 12.9903 31.6073 13.6648C29.7629 15.2125 28.7549 17.2209 28.6934 18.9404L31.7894 22.6301C33.4929 22.8671 35.6468 22.2241 37.491 20.6766C38.2957 20.0014 38.9443 19.2338 39.4238 18.4375C39.4499 18.3943 39.476 18.3508 39.5022 18.3073C39.7354 17.9196 39.9748 17.5215 40.2309 17.1334Z" stroke="#F2F4F7" stroke-miterlimit="10" stroke-linejoin="round"/>
<path d="M44.4961 4.69256C44.5993 5.01362 44.7353 5.34349 44.8649 5.62971C44.9714 5.63039 45.0773 5.66496 45.165 5.73189L48.0499 3.31115L46.7285 1.73638C46.7211 1.74233 46.7136 1.74835 46.706 1.75443C46.462 1.9502 46.1336 2.21497 45.7956 2.4914C45.4571 2.76821 45.111 3.05503 44.831 3.29537C44.5889 3.50313 44.4235 3.65327 44.3457 3.73176C44.3351 3.773 44.3236 3.85767 44.3381 4.00586C44.3568 4.19777 44.4127 4.43322 44.4961 4.69256Z" stroke="#F2F4F7" stroke-miterlimit="10" stroke-linejoin="round"/>
<path d="M45.0535 10.0944L46.5108 8.87153L44.8019 6.83487L43.3446 8.05772L45.0535 10.0944Z" stroke="#F2F4F7" stroke-miterlimit="10" stroke-linejoin="round"/>
<path d="M51.8648 7.85654L50.5434 6.28177L47.6585 8.70251C47.7092 8.80057 47.7249 8.9109 47.707 9.01604C47.9666 9.19368 48.2682 9.38523 48.5667 9.54271C48.8076 9.66981 49.0296 9.76562 49.2151 9.81726C49.3584 9.85718 49.4435 9.86035 49.4855 9.85697C49.5762 9.79412 49.7529 9.65724 50 9.45454C50.2853 9.22046 50.6279 8.92949 50.9592 8.64422C51.2902 8.35935 51.6079 8.08191 51.8431 7.87558C51.8504 7.86916 51.8577 7.86282 51.8648 7.85654Z" stroke="#F2F4F7" stroke-miterlimit="10" stroke-linejoin="round"/>
<path d="M49.2445 3.46621C49.2236 3.57516 49.1665 3.67787 49.0749 3.75474L45.8162 6.48908L47.0237 7.92814L50.2824 5.1938C50.3745 5.11649 50.4864 5.07808 50.5979 5.07684L50.6516 4.99404L49.3368 3.4271L49.2445 3.46621Z" stroke="#F2F4F7" stroke-miterlimit="10" stroke-linejoin="round"/>
</svg>
