<svg width="37" height="50" viewBox="0 0 37 50" fill="none" xmlns="http://www.w3.org/2000/svg">
<path d="M30.9734 5.72544L31.3034 5.39546L30.9734 5.72544C37.9406 12.6927 37.9407 24.0062 30.9735 30.9734L18.3494 43.5974L5.72541 30.9734C-1.24181 24.0061 -1.2418 12.6927 5.72541 5.72544C12.6927 -1.2418 24.0062 -1.24182 30.9734 5.72544Z" stroke="#F2F4F7" stroke-linejoin="round"/>
<mask id="path-2-inside-1_3_14269" fill="white">
<path d="M8.95605 18.677C8.95605 13.3083 13.1471 8.95605 18.317 8.95605C22.0589 8.95605 25.2881 11.2361 26.7864 14.5313C27.3582 15.7888 27.6779 17.1941 27.6779 18.677C27.6779 24.0457 23.4869 28.398 18.317 28.398C16.0041 28.398 13.8872 27.5269 12.2537 26.0834"/>
</mask>
<path d="M7.95605 18.677C7.95605 19.2293 8.40377 19.677 8.95605 19.677C9.50834 19.677 9.95605 19.2293 9.95605 18.677H7.95605ZM26.7864 14.5313L25.8761 14.9452L25.8761 14.9452L26.7864 14.5313ZM12.9159 25.3341C12.502 24.9684 11.8701 25.0074 11.5043 25.4213C11.1386 25.8351 11.1777 26.4671 11.5915 26.8328L12.9159 25.3341ZM9.95605 18.677C9.95605 13.8247 13.7346 9.95605 18.317 9.95605V7.95605C12.5596 7.95605 7.95605 12.7919 7.95605 18.677H9.95605ZM18.317 9.95605C21.6366 9.95605 24.5272 11.9787 25.8761 14.9452L27.6967 14.1174C26.0489 10.4935 22.4811 7.95605 18.317 7.95605V9.95605ZM25.8761 14.9452C26.3896 16.0745 26.6779 17.3389 26.6779 18.677H28.6779C28.6779 17.0493 28.3268 15.5031 27.6967 14.1173L25.8761 14.9452ZM26.6779 18.677C26.6779 23.5293 22.8993 27.398 18.317 27.398V29.398C24.0744 29.398 28.6779 24.5621 28.6779 18.677H26.6779ZM18.317 27.398C16.2614 27.398 14.3769 26.6251 12.9159 25.3341L11.5915 26.8328C13.3975 28.4287 15.7468 29.398 18.317 29.398V27.398Z" fill="#F2F4F7" mask="url(#path-2-inside-1_3_14269)"/>
<mask id="path-4-inside-2_3_14269" fill="white">
<path d="M15.5856 24.9378L11.1045 24.7969L12.224 29.1382"/>
</mask>
<path d="M15.5541 25.9373C16.1061 25.9547 16.5677 25.5212 16.5851 24.9692C16.6024 24.4172 16.169 23.9556 15.617 23.9383L15.5541 25.9373ZM11.1045 24.7969L11.1359 23.7974C10.8213 23.7875 10.5204 23.9263 10.3237 24.172C10.1271 24.4178 10.0576 24.7418 10.1362 25.0466L11.1045 24.7969ZM11.2557 29.3879C11.3936 29.9227 11.9389 30.2444 12.4737 30.1065C13.0085 29.9686 13.3302 29.4233 13.1923 28.8885L11.2557 29.3879ZM15.617 23.9383L11.1359 23.7974L11.0731 25.7964L15.5541 25.9373L15.617 23.9383ZM10.1362 25.0466L11.2557 29.3879L13.1923 28.8885L12.0728 24.5472L10.1362 25.0466Z" fill="#F2F4F7" mask="url(#path-4-inside-2_3_14269)"/>
<mask id="path-6-inside-3_3_14269" fill="white">
<path d="M13.7967 39.7522C7.82823 40.4608 3.53711 42.424 3.53711 44.7349C3.53711 47.6427 10.3315 49.9999 18.7127 49.9999C27.094 49.9999 33.8884 47.6427 33.8884 44.7349C33.8884 42.3248 29.2209 40.2929 22.8509 39.668"/>
</mask>
<path d="M13.6789 38.7592C10.6294 39.1212 7.94837 39.8092 5.99795 40.7402C5.02427 41.205 4.18535 41.7527 3.57687 42.3913C2.96377 43.0347 2.53711 43.8252 2.53711 44.7349H4.53711C4.53711 44.4891 4.64684 44.1676 5.02483 43.7709C5.40746 43.3693 6.01435 42.9486 6.85952 42.5452C8.54678 41.7397 10.9955 41.0918 13.9146 40.7453L13.6789 38.7592ZM2.53711 44.7349C2.53711 45.8825 3.20959 46.8308 4.09549 47.5575C4.98856 48.29 6.22035 48.9051 7.65418 49.4026C10.5313 50.4008 14.4411 50.9999 18.7127 50.9999V48.9999C14.6031 48.9999 10.9251 48.4204 8.30973 47.5131C6.9973 47.0577 6.00668 46.5384 5.36388 46.0111C4.71393 45.478 4.53711 45.0412 4.53711 44.7349H2.53711ZM18.7127 50.9999C22.9844 50.9999 26.8942 50.4008 29.7713 49.4026C31.2051 48.9051 32.4369 48.29 33.33 47.5575C34.2159 46.8308 34.8884 45.8825 34.8884 44.7349H32.8884C32.8884 45.0412 32.7116 45.478 32.0616 46.0111C31.4188 46.5384 30.4282 47.0577 29.1158 47.5131C26.5004 48.4204 22.8224 48.9999 18.7127 48.9999V50.9999ZM34.8884 44.7349C34.8884 43.7855 34.4244 42.9674 33.768 42.3086C33.1153 41.6533 32.2154 41.0932 31.1703 40.6208C29.0757 39.674 26.2006 38.9918 22.9486 38.6727L22.7533 40.6632C25.8712 40.9691 28.5148 41.6153 30.3465 42.4432C31.2645 42.8582 31.9296 43.297 32.3511 43.7201C32.769 44.1396 32.8884 44.4792 32.8884 44.7349H34.8884Z" fill="#F2F4F7" mask="url(#path-6-inside-3_3_14269)"/>
</svg>
