<svg width="56" height="56" viewBox="0 0 56 56" fill="none" xmlns="http://www.w3.org/2000/svg">
<path d="M28.5 10.4502L28.5 9.9502L27.5 9.9502L27.5 10.4502L28.5 10.4502ZM27.6464 45.9037C27.8417 46.099 28.1583 46.099 28.3535 45.9037L31.5355 42.7218C31.7308 42.5265 31.7308 42.2099 31.5355 42.0147C31.3403 41.8194 31.0237 41.8194 30.8284 42.0147L28 44.8431L25.1716 42.0147C24.9763 41.8194 24.6597 41.8194 24.4645 42.0147C24.2692 42.2099 24.2692 42.5265 24.4645 42.7218L27.6464 45.9037ZM27.5 10.4502L27.5 45.5502L28.5 45.5502L28.5 10.4502L27.5 10.4502Z" fill="#F2F4F7"/>
<circle cx="28" cy="28" r="27" transform="rotate(90 28 28)" stroke="#F2F4F7" stroke-linecap="round" stroke-linejoin="round"/>
</svg>
