<svg width="24" height="24" viewBox="0 0 24 24" fill="none" xmlns="http://www.w3.org/2000/svg">
<path d="M19.1356 15.2023L20.0494 15.6084C20.2065 15.2548 20.1456 14.8422 19.8928 14.5492C19.6401 14.2561 19.2409 14.1352 18.868 14.2387L19.1356 15.2023ZM8.05487 5.94327L9.05062 6.03536C9.08627 5.64988 8.89623 5.27846 8.56275 5.08184C8.22928 4.88523 7.81228 4.89876 7.49224 5.11656L8.05487 5.94327ZM18.868 14.2387C17.8981 14.508 16.8587 14.5923 15.7942 14.4546L15.5376 16.4381C16.8718 16.6107 18.1803 16.5053 19.4031 16.1658L18.868 14.2387ZM15.7942 14.4546C11.6325 13.9162 8.66739 10.1793 9.05062 6.03536L7.05912 5.85119C6.57715 11.0628 10.3047 15.7611 15.5376 16.4381L15.7942 14.4546ZM5.82349 11.3155C6.07186 9.39567 7.13196 7.78099 8.6175 6.76998L7.49224 5.11656C5.5542 6.43552 4.16478 8.54864 3.84002 11.0589L5.82349 11.3155ZM11.4411 18.6026C7.87754 18.1415 5.36247 14.879 5.82349 11.3155L3.84002 11.0589C3.23728 15.7178 6.52549 19.9833 11.1845 20.586L11.4411 18.6026ZM18.2217 14.7961C17.0829 17.3585 14.3619 18.9804 11.4411 18.6026L11.1845 20.586C15.0065 21.0805 18.5612 18.9568 20.0494 15.6084L18.2217 14.7961Z" fill="white"/>
<path d="M14.6018 4.4413C14.6454 4.22803 14.9501 4.22803 14.9937 4.4413L15.4501 6.67434C15.4661 6.75284 15.5275 6.81419 15.606 6.83024L17.839 7.28666C18.0523 7.33025 18.0523 7.63496 17.839 7.67855L15.606 8.13497C15.5275 8.15102 15.4661 8.21237 15.4501 8.29087L14.9937 10.5239C14.9501 10.7372 14.6454 10.7372 14.6018 10.5239L14.1454 8.29087C14.1293 8.21237 14.068 8.15102 13.9895 8.13497L11.7564 7.67855C11.5432 7.63496 11.5432 7.33025 11.7564 7.28666L13.9895 6.83024C14.068 6.81419 14.1293 6.75284 14.1454 6.67434L14.6018 4.4413Z" fill="white"/>
</svg>
