<svg width="25" height="24" viewBox="0 0 25 24" fill="none" xmlns="http://www.w3.org/2000/svg">
<path d="M18.9382 12.7749C18.0281 12.7749 16.4052 13.37 16.4052 13.37V10.63C16.4052 10.63 18.0281 11.225 18.9382 11.225C22.0577 11.225 24.5955 8.7073 24.5955 5.61251C24.5955 2.51775 22.0577 0 18.9382 0C15.8188 0 13.281 2.51775 13.281 5.61251C13.281 6.51545 13.8808 8.12551 13.8808 8.12551H11.1189C11.1189 8.12551 11.7187 6.51545 11.7187 5.61251C11.7187 2.51775 9.18095 0 6.06151 0C2.9421 0 0.404297 2.51775 0.404297 5.61251C0.404297 8.7073 2.9421 11.225 6.06151 11.225C6.9716 11.225 8.59452 10.63 8.59452 10.63V13.37C8.59452 13.37 6.9716 12.7749 6.06151 12.7749C2.9421 12.7749 0.404297 15.2927 0.404297 18.3874C0.404297 21.4822 2.9421 24 6.06151 24C9.18095 24 11.7187 21.4822 11.7187 18.3874C11.7187 17.4846 11.1189 15.8744 11.1189 15.8744H13.8808C13.4973 16.631 13.281 17.4846 13.281 18.3874C13.281 21.4822 15.8188 24 18.9382 24C22.0577 24 24.5955 21.4822 24.5955 18.3874C24.5955 15.2927 22.0577 12.7749 18.9382 12.7749ZM18.9382 0.704508C21.666 0.704508 23.8853 2.9062 23.8853 5.61251C23.8853 8.31883 21.666 10.5205 18.9382 10.5205C17.7018 10.5205 16.5698 10.0682 15.7017 9.32156L18.4435 6.60141C18.5954 6.67631 18.7637 6.71625 18.9382 6.71625C19.1127 6.71625 19.281 6.67631 19.4329 6.60141L21.3652 8.51845C21.4344 8.5872 21.5253 8.62158 21.6163 8.62158C21.707 8.62158 21.7979 8.5872 21.8673 8.51845C22.006 8.38087 22.006 8.15783 21.8673 8.02031L19.935 6.10327C20.0105 5.9526 20.0507 5.78568 20.0507 5.61251C20.0507 5.31771 19.935 5.04051 19.7248 4.83208C19.5147 4.6236 19.2354 4.5088 18.9382 4.5088C18.7637 4.5088 18.5954 4.54874 18.4435 4.62364L16.5112 2.7066C16.3726 2.56904 16.1477 2.56904 16.0091 2.7066C15.8705 2.84416 15.8705 3.06722 16.0091 3.20472L17.9414 5.12176C17.8659 5.27243 17.8257 5.43935 17.8257 5.61251C17.8257 5.78568 17.8659 5.9526 17.9414 6.10327L15.1996 8.82345C14.447 7.96213 13.9911 6.83916 13.9911 5.61251C13.9911 2.9062 16.2103 0.704508 18.9382 0.704508ZM1.11441 5.61251C1.11441 2.9062 3.33365 0.704508 6.06151 0.704508C8.78938 0.704508 11.0086 2.9062 11.0086 5.61251C11.0086 6.83916 10.5527 7.96213 9.80011 8.82345L7.05827 6.10327C7.13379 5.9526 7.17403 5.78568 7.17403 5.61251C7.17403 5.43935 7.13379 5.27243 7.05827 5.12176L8.99057 3.20472C9.12925 3.06716 9.12925 2.84416 8.99057 2.7066C8.85192 2.56904 8.62709 2.56904 8.48849 2.7066L6.55623 4.62364C6.40431 4.54874 6.23606 4.5088 6.06151 4.5088C5.76436 4.5088 5.48495 4.6236 5.27485 4.83208C5.06475 5.04051 4.94901 5.31771 4.94901 5.61251C4.94901 5.78568 4.98925 5.9526 5.06475 6.10327L3.13245 8.02031C2.99379 8.15789 2.99379 8.38087 3.13245 8.51845C3.20176 8.5872 3.29266 8.62158 3.3835 8.62158C3.47434 8.62158 3.56524 8.5872 3.63455 8.51845L5.56681 6.60141C5.71862 6.67631 5.88692 6.71625 6.06147 6.71625C6.236 6.71625 6.40427 6.67631 6.55613 6.60141L9.29797 9.32156C8.42984 10.0682 7.29792 10.5205 6.06151 10.5205C3.33365 10.5205 1.11441 8.31883 1.11441 5.61251ZM6.06151 23.2954C3.33365 23.2954 1.11441 21.0938 1.11441 18.3874C1.11441 15.6811 3.33365 13.4794 6.06151 13.4794C7.29792 13.4794 8.42983 13.9318 9.29801 14.6784L6.55617 17.3986C6.40431 17.3237 6.23606 17.2837 6.06151 17.2837C5.88698 17.2837 5.71872 17.3237 5.56685 17.3986L3.63459 15.4815C3.49593 15.344 3.27111 15.344 3.13249 15.4815C2.99383 15.6191 2.99383 15.8422 3.13249 15.9797L5.06481 17.8968C4.98925 18.0473 4.94901 18.2142 4.94901 18.3874C4.94901 18.6824 5.06475 18.9594 5.27485 19.1678C5.48495 19.3764 5.76432 19.4912 6.06151 19.4912C6.23606 19.4912 6.40431 19.4512 6.55617 19.3764L8.48843 21.2934C8.55774 21.3622 8.64864 21.3965 8.73948 21.3965C8.83033 21.3965 8.92123 21.3622 8.99053 21.2934C9.12919 21.1557 9.12919 20.9327 8.99053 20.7953L7.05823 18.8783C7.13373 18.7275 7.17397 18.5607 7.17397 18.3874C7.17397 18.2142 7.13373 18.0473 7.05823 17.8968L9.80005 15.1765C10.5527 16.0378 11.0086 17.1608 11.0086 18.3874C11.0086 21.0938 8.78938 23.2954 6.06151 23.2954ZM18.9382 23.2954C16.2103 23.2954 13.9911 21.0938 13.9911 18.3874C13.9911 17.1608 14.447 16.0378 15.1996 15.1765L17.9414 17.8968C17.8659 18.0473 17.8257 18.2142 17.8257 18.3874C17.8257 18.5607 17.8659 18.7275 17.9414 18.8783L16.0091 20.7953C15.8705 20.9327 15.8705 21.1557 16.0091 21.2934C16.0784 21.3622 16.1693 21.3965 16.2602 21.3965C16.351 21.3965 16.4419 21.3622 16.5112 21.2934L18.4435 19.3764C18.5954 19.4512 18.7637 19.4912 18.9382 19.4912C19.2354 19.4912 19.5147 19.3764 19.7248 19.1678C19.935 18.9594 20.0507 18.6824 20.0507 18.3874C20.0507 18.2142 20.0105 18.0473 19.935 17.8968L21.8673 15.9797C22.006 15.8421 22.006 15.6191 21.8673 15.4815C21.7285 15.344 21.5038 15.344 21.3652 15.4815L19.4329 17.3986C19.281 17.3237 19.1127 17.2837 18.9382 17.2837C18.7637 17.2837 18.5954 17.3237 18.4435 17.3986L15.7017 14.6784C16.5698 13.9318 17.7018 13.4794 18.9382 13.4794C21.666 13.4794 23.8853 15.6811 23.8853 18.3874C23.8853 21.0938 21.666 23.2954 18.9382 23.2954Z" fill="#141A29"/>
</svg>
