<svg width="378" height="130" viewBox="0 0 378 130" fill="none" xmlns="http://www.w3.org/2000/svg">
<path d="M344.095 71.6108L305.732 71.6108L318.52 58.8232L356.883 58.8231L344.095 71.6108Z" fill="white"/>
<path d="M364.555 28.1323L280.157 28.1323L292.944 15.3446L377.343 15.3446L364.555 28.1323Z" fill="white"/>
<path d="M280.157 115.089L280.157 28.1331L292.944 28.1331L292.944 115.089L280.157 115.089Z" fill="white"/>
<path d="M0.656738 15.3452H125.976L113.188 28.1329H13.4444L0.656738 15.3452Z" fill="white"/>
<path d="M56.9227 115.089L56.9227 38.3632L69.7104 38.3632L69.7104 115.089L56.9227 115.089Z" fill="white"/>
<path d="M181.138 61.3813L181.138 0.000328541L193.926 12.788L193.926 74.1689L181.138 61.3813Z" fill="white"/>
<path d="M208.837 88.2352L261.995 118.926L244.526 123.606L191.369 92.9158L208.837 88.2352Z" fill="white"/>
<path d="M171.637 96.7522L118.479 127.443L123.16 109.974L176.317 79.2839L171.637 96.7522Z" fill="white"/>
</svg>
