<svg width="174" height="150" viewBox="0 0 174 150" fill="none" xmlns="http://www.w3.org/2000/svg">
<g clip-path="url(#clip0_1258_3998)">
<path d="M17.1847 103.236L18.5063 107.811L4.4263 111.776L3.10471 107.201L17.1847 103.236Z" fill="#6D6E71"/>
<path d="M1.17317 96.9842L8.64521 91.0371L5.34125 91.5454L0.715696 92.0029L0.258224 87.4281L14.7957 86.0049L15.2531 90.4779L7.83193 96.4251L11.1359 95.9676L15.7106 95.5101L16.1681 100.085L1.63064 101.457L1.17317 96.9842Z" fill="#6D6E71"/>
<path d="M16.0664 74.6695L15.4565 79.4475L4.32464 78.0243L3.76551 82.294L0.410713 81.8365L2.08811 68.5698L5.49374 68.9765L4.9346 73.2462L16.0664 74.6695Z" fill="#6D6E71"/>
<path d="M7.37446 52.0503L10.5768 53.1686L8.23857 59.8781L10.2209 60.5898L12.2033 54.8968L15.4056 56.015L13.4233 61.708L15.609 62.4705L18.0488 55.4559L21.2511 56.5742L17.2355 68.1126L3.4097 63.2838L7.37446 52.0503Z" fill="#6D6E71"/>
<path d="M24.9109 50.1695L22.3694 54.2359L9.9668 46.5097L13.6266 40.6134C16.1681 36.4962 18.1505 35.8354 20.5903 37.3095C22.0136 38.2244 22.8268 39.5968 22.3185 41.325C23.5893 40.3084 24.4026 39.6985 26.8933 41.2742C29.3839 42.85 29.1298 42.4941 29.3331 42.1892L29.7398 42.3925L27.1474 46.5097C26.3419 46.2324 25.5737 45.8568 24.8601 45.3915C23.2335 44.3749 22.5219 44.324 21.3528 46.2047L20.5903 47.4755L24.9109 50.1695ZM17.8455 45.7473L18.8621 44.1715C19.6245 42.9008 19.777 42.0367 18.9129 41.4775C18.0488 40.9184 17.1847 41.3759 16.5747 42.3417L15.4056 44.2224L17.8455 45.7473Z" fill="#6D6E71"/>
<path d="M24.0976 27.0417L33.4504 29.024L30.9597 26.7875L27.7065 23.5344L30.9597 20.2812L41.2274 30.6506L38.0759 33.8021L28.7231 31.8197L31.2138 34.0562L34.467 37.3602L31.2138 40.6133L20.8953 30.1931L24.0976 27.0417Z" fill="#6D6E71"/>
<path d="M43.7181 11.6401L55.8157 21.3995L51.7492 23.8902L50.2243 22.5686L46.1579 25.0593L46.7171 26.9909L42.7015 29.4307L39.55 14.1816L43.7181 11.6401ZM47.937 20.3829L43.8706 16.7232L45.3446 21.9587L47.937 20.3829Z" fill="#6D6E71"/>
<path d="M64.406 18.4004L59.8821 20.027L56.0698 9.5051L52.0034 10.9283L50.8343 7.72604L63.491 3.20215L64.6093 6.40445L60.5937 7.87853L64.406 18.4004Z" fill="#6D6E71"/>
<path d="M75.6394 15.7575L70.9631 16.6216L68.2691 2.23667L72.9963 1.37256L75.6394 15.7575Z" fill="#6D6E71"/>
<path d="M93.5825 7.5737C93.5825 12.5551 90.2277 15.3507 85.9072 15.4016C81.5866 15.4524 78.2318 12.6059 78.2318 7.62453C78.2318 2.64317 81.2816 0 85.8563 0C90.431 0 93.5317 3.71061 93.5825 7.5737ZM83.0098 7.62453C83.0098 9.50525 83.6198 11.8434 85.9072 11.8434C88.1945 11.8434 88.7537 10.0136 88.7537 7.62453C88.7537 5.23551 87.9404 3.55812 85.8055 3.55812C83.6706 3.55812 83.0098 5.79465 83.0098 7.62453Z" fill="#6D6E71"/>
<path d="M103.799 2.13482L107.002 11.0809L107.612 7.8278L108.679 3.30391L113.152 4.37135L109.747 18.6038L105.375 17.5364L102.173 8.59026L101.563 11.8434L100.495 16.3673L96.0224 15.2998L99.428 1.06738L103.799 2.13482Z" fill="#6D6E71"/>
<path d="M127.181 10.6745L125.25 26.076L120.98 23.9412L121.387 21.9588L117.117 19.8239L115.744 21.298L111.576 19.1631L122.861 8.48877L127.181 10.6745ZM121.997 18.8581L123.013 13.521L119.303 17.4857L121.997 18.8581Z" fill="#6D6E71"/>
<path d="M132.671 27.7022L137.754 31.8195L135.619 34.5135L126.775 27.3464L135.924 15.9604L139.686 18.9594L132.671 27.7022Z" fill="#6D6E71"/>
<path fill-rule="evenodd" clip-rule="evenodd" d="M25.5208 105.066L11.39 132.769H32.0779L35.7886 124.992C42.263 133.487 50.776 140.211 60.5394 144.541C70.3029 148.872 81.0011 150.67 91.6438 149.768C102.286 148.866 112.53 145.293 121.425 139.381C130.32 133.468 137.58 125.407 142.532 115.944L153.511 132.972H173.742V62.1656H155.24V100.644L149.496 92.2063C149.7 90.2985 149.802 88.3811 149.801 86.4625C149.802 74.3988 146.364 62.5849 139.889 52.4062H173.742V37.8179H127.08C117.821 30.0467 106.537 25.08 94.5532 23.5016C82.5692 21.9233 70.3837 23.7988 59.4291 28.9077C48.4744 34.0167 39.2059 42.1468 32.713 52.3423C26.2201 62.5378 22.7727 74.375 22.776 86.4625C22.775 92.7647 23.6999 99.0329 25.5208 105.066ZM35.7886 124.992C31.2195 119.006 27.7435 112.261 25.5208 105.066L47.4287 62.1656H67.6083L50.8343 94.7986H67.8624V112.284H41.7865L35.7886 124.992ZM95.6157 132.769H77.1135V52.4062H54.4432L60.5429 37.8179H127.08C132.068 41.9993 136.388 46.9189 139.889 52.4062H95.6157V132.769ZM142.532 115.944L127.944 93.3245V132.769H107.053V62.1656H129.164L149.496 92.2063C148.798 100.507 146.429 108.582 142.532 115.944Z" fill="#EF3B2D"/>
<path fill-rule="evenodd" clip-rule="evenodd" d="M142.532 115.944L127.944 93.3245V132.769H107.053V62.1656H129.164L149.496 92.2062C148.798 100.507 146.429 108.581 142.532 115.944ZM35.7886 124.992C31.2195 119.006 27.7435 112.261 25.5208 105.066L47.4287 62.1656H67.6083L50.8343 94.7986H67.8624V112.284H41.7865L35.7886 124.992ZM95.6157 132.769H77.1135V52.4061H54.4432L60.5429 37.8179H127.08C132.068 41.9992 136.388 46.9188 139.889 52.4061H95.6157V132.769Z" fill="white"/>
</g>
<defs>
<clipPath id="clip0_1258_3998">
<rect width="173.484" height="150" fill="white" transform="translate(0.258224)"/>
</clipPath>
</defs>
</svg>
