<svg width="150" height="120" viewBox="0 0 150 120" fill="none" xmlns="http://www.w3.org/2000/svg">
<path d="M121.418 0.00927734H24.2944V120H121.418V0.00927734Z" fill="#141A29"/>
<path d="M73.0465 8.03117L72.8315 7.87256C72.8595 7.88531 72.8927 7.8923 72.9143 7.91204C72.9578 7.95197 72.995 7.99882 73.0349 8.04277L73.0465 8.03117Z" fill="#F2F4F7"/>
<path d="M70.9116 17.9559L71.077 17.9979C71.0257 17.98 70.9744 17.9621 70.923 17.9443L70.9116 17.9559Z" fill="#F2F4F7"/>
<path d="M69.2703 81.3492C68.8635 77.2746 65.5975 76.1677 62.5654 74.8785C59.1743 73.4368 55.7518 72.0691 52.9884 69.5208C51.7717 68.3987 50.7445 67.1357 50.1128 65.2151C52.3844 67.1968 54.8174 68.2869 57.3337 69.1909C59.7725 70.0671 62.2494 70.8365 64.6972 71.6883C65.8574 72.0921 66.94 72.6482 67.8976 73.4533C69.707 74.9744 69.8265 77.0017 69.655 79.1127C69.594 79.8636 69.4023 80.604 69.2703 81.3492Z" fill="#F2F4F7"/>
<path d="M37.0318 72.9073C36.7608 72.6216 36.6615 72.5225 36.5685 72.4177C36.2561 72.0661 36.0724 71.392 35.4983 71.5729C34.8888 71.7649 34.9146 72.462 34.8534 73.0095C34.8029 73.4613 34.857 73.9282 34.7761 74.3723C34.6283 75.1838 34.8868 75.591 35.7466 75.5595C35.9356 75.5526 36.1947 75.4527 36.2967 75.7182C36.3867 75.9527 36.1886 76.1086 36.0669 76.2713C35.4088 77.151 34.1687 76.9619 33.6954 75.9387C33.0907 74.6315 33.4189 73.3139 33.7316 72.0482C33.8915 71.4008 33.9856 70.6793 34.4369 70.0945C34.6982 69.7558 34.5599 69.3218 34.2988 69.0194C33.2941 67.8554 32.4819 66.5247 31.2911 65.5226C31.037 65.3088 30.8162 64.9314 30.4016 65.1549C30.0379 65.351 30.0729 65.7352 30.0541 66.0878C29.9848 67.3905 30.6507 68.5193 30.9105 69.7437C30.9537 69.9473 31.0179 70.1465 31.0818 70.3822C29.893 69.3895 29.0293 67.2332 29.1342 65.6405C29.1578 65.2823 29.5657 64.7242 28.8522 64.638C28.3215 64.5738 28.0702 65.0154 27.9523 65.4948C27.9126 65.656 27.882 65.8194 27.7997 66.2042C27.5561 64.8871 27.8907 63.9573 28.7426 63.3009C29.6139 62.6296 30.606 62.7722 31.5131 63.2873C32.8216 64.0302 33.7703 65.1747 34.5944 66.3892C35.8824 68.2873 36.7874 70.3571 37.0318 72.9073Z" fill="#F2F4F7"/>
<path d="M73.0347 8.04281C74.1078 8.07988 74.6604 8.98887 75.4524 9.49421C78.6065 11.5068 80.5745 14.5548 82.5014 17.6323C84.1581 20.2782 85.7475 22.9669 87.8609 25.2973C88.5605 26.0687 89.3549 26.7196 90.2597 27.4916C87.9747 26.9063 86.475 25.3962 84.9591 23.9551C81.3027 20.4791 78.4305 16.3769 75.8418 12.0855C75.1363 10.916 74.1006 10.0334 73.4607 8.84257C73.3167 8.57472 73.0057 8.39366 73.0462 8.03125L73.0347 8.04281Z" fill="#F2F4F7"/>
<path d="M24.3952 63.6946C24.3581 62.816 24.6551 62.0324 25.0554 61.2823C25.1729 61.0623 25.3658 60.8813 25.6545 60.9732C25.8058 61.0214 25.8306 61.1695 25.8187 61.3176C25.5236 64.9641 27.0943 68.0584 28.7183 71.1399C29.4693 72.5649 30.3237 73.952 30.7182 75.5315C31.1172 77.1287 31.4473 78.7436 31.7824 80.356C31.947 81.148 32.1534 81.9057 32.5646 82.6218C33.439 84.1448 34.7748 84.4291 36.1285 83.3163C36.4124 83.083 36.6723 82.5993 37.0755 82.9322C37.4048 83.204 37.1679 83.6549 37.0394 84.0161C36.969 84.2141 36.8673 84.4008 36.793 84.5976C36.3936 85.6553 35.6909 86.4657 34.556 86.5985C33.4503 86.7278 32.6772 86.03 32.0378 85.1643C31.1399 83.9486 30.5251 82.6122 30.4156 81.1128C30.1607 77.6232 28.7195 74.5848 27.0436 71.598C25.6661 69.1431 24.5999 66.5542 24.3952 63.6946Z" fill="#F2F4F7"/>
<path d="M29.5649 92.8775C30.3103 96.6157 34.5938 98.6186 37.8128 96.5989C39.6244 95.4623 40.5433 93.7485 40.479 91.5563C40.4688 91.2096 40.2432 90.64 40.7236 90.5618C41.2233 90.4806 41.1719 91.0767 41.2502 91.4228C42.2466 95.8254 39.3619 99.9009 34.8787 100.033C30.7679 100.154 27.1356 96.0629 28.2648 91.4112C28.4249 90.7514 28.5853 90.0768 29.033 89.5613C29.2447 89.3175 29.6492 89.4682 29.6276 89.7904C29.559 90.8121 29.354 91.8201 29.5649 92.8775Z" fill="#F2F4F7"/>
<path d="M73.9339 56.4155C74.8191 57.0867 75.1841 55.4167 76.2631 56.0715C74.9191 56.4647 74.5738 57.1923 74.7884 58.3669C74.8856 58.8989 74.2911 59.3257 73.8247 59.6352C73.5878 59.7924 73.3429 59.743 73.3164 59.378C73.3088 59.2739 73.3442 59.1571 73.3087 59.0662C73.0093 58.3012 72.8026 57.4807 71.6263 57.731C70.9552 57.8737 70.3364 57.4965 69.8268 57.0593C68.5999 56.0067 67.5218 54.6238 65.4604 55.5488C66.7492 53.7656 68.0775 52.4936 70.0589 52.0312C71.2204 51.7602 72.3534 51.7747 73.4996 51.9477C73.9756 52.0195 74.6256 51.5695 74.8614 52.0132C75.0958 52.4542 74.988 53.1126 74.9303 53.6653C74.8261 54.6656 74.9554 55.7622 73.9339 56.4155ZM70.6517 56.2052C70.2384 55.1971 70.2016 54.3312 70.9282 53.3919C69.7146 53.6413 68.7439 53.8727 67.724 54.4445C68.7196 54.9873 69.4049 55.8084 70.6517 56.2052Z" fill="#F2F4F7"/>
<path d="M59.9304 9.60787C59.1374 9.60787 58.3209 9.73074 57.5558 9.58461C55.3479 9.16291 53.1485 9.41738 50.9878 9.71876C47.2944 10.2339 44.0252 11.6278 41.9985 15.0445C41.3625 16.1168 40.0974 15.9351 39.1504 16.3909C38.7863 16.5661 38.3425 16.5756 37.9312 16.6614C38.7306 13.7632 43.0003 9.83082 47.3569 8.87862C52.0288 7.85747 52.8721 7.66807 59.9304 9.60787Z" fill="#F2F4F7"/>
<path d="M45.5803 105.123C47.104 107.871 48.5868 110.643 50.1655 113.36C51.2353 115.2 52.4448 116.96 53.5797 118.763C53.7897 119.097 54.4607 119.338 53.9623 119.857C53.6375 120.195 52.1878 119.88 51.9408 119.475C51.5042 118.759 51.0671 118.041 50.6716 117.302C48.8257 113.852 47.1757 110.311 45.7917 106.65C45.6137 106.18 45.5371 105.671 45.4136 105.179L45.5803 105.123Z" fill="#F2F4F7"/>
<path d="M70.9212 17.9451C69.5118 17.7153 68.4749 16.7141 67.2225 16.1529C64.9052 15.1147 62.5616 14.2217 60.0785 13.602C57.3544 12.9222 54.6324 12.8027 51.8685 12.8573C51.6351 12.8619 51.4007 12.8168 51.1382 12.6171C51.9766 12.4399 52.8106 12.1398 53.6543 12.1098C55.7576 12.0348 57.8969 11.8501 59.9646 12.1305C64.0841 12.6893 67.9769 13.9092 70.7053 17.3996C70.8399 17.5718 70.9778 17.7202 70.91 17.9566L70.9212 17.9451Z" fill="#F2F4F7"/>
<path d="M60.1245 50.8704C61.1388 49.5095 62.5383 48.6723 64.1579 48.24C66.7252 47.5548 69.3081 48.0356 71.8878 48.2386C73.1399 48.3371 74.3948 48.4063 75.6377 47.9905C76.2201 47.7956 76.5773 47.2919 77.1497 47.0864C76.9659 49.4219 74.4565 50.3742 72.6918 50.0435C69.857 49.5123 67.0463 48.7216 64.0976 49.3332C62.6789 49.6275 61.4616 50.3187 60.1245 50.8704Z" fill="#F2F4F7"/>
<path d="M28.5286 17.5989C28.1974 12.4853 33.2613 7.91199 38.9988 7.98224C36.7326 8.84674 34.2365 9.27303 32.4967 11.1574C30.8125 12.9816 29.8253 15.253 28.5286 17.5989Z" fill="#F2F4F7"/>
<path d="M78.4429 81.2756C78.4882 79.979 79.2206 78.8602 79.9144 77.7309C80.0808 77.4599 80.3926 77.1829 80.6822 77.2856C81.0317 77.4095 80.9662 77.8906 80.8632 78.126C80.225 79.5839 80.0315 81.1881 79.3392 82.6267C79.1249 83.0719 78.908 82.8968 78.7201 82.6783C78.3992 82.305 78.4659 81.825 78.4429 81.2756Z" fill="#F2F4F7"/>
<path d="M87.4408 17.0596C88.7281 18.6668 89.9445 20.2092 91.19 21.7277C91.6234 22.256 92.1089 22.7469 92.6108 23.2114C92.8164 23.4017 92.6881 23.5299 92.6156 23.6406C92.4943 23.8256 92.3818 23.6363 92.296 23.566C90.2037 21.8519 88.5358 19.7937 87.3097 17.3815C87.2899 17.3427 87.3562 17.2602 87.4408 17.0596Z" fill="#F2F4F7"/>
<path d="M81.9955 68.1063C81.6243 68.2157 81.4209 68.183 81.3279 67.9925C81.2186 67.7687 81.3439 67.5774 81.499 67.4359C81.9339 67.0388 82.4847 66.9399 83.0453 66.8782C84.048 66.768 85.0504 66.6554 86.0534 66.5484C86.323 66.5196 86.6569 66.4159 86.7471 66.7965C86.8265 67.1311 86.5595 67.2884 86.2913 67.4058C86.0534 67.51 83.173 67.7594 81.9955 68.1063Z" fill="#F2F4F7"/>
<path d="M81.432 65.5086C79.3385 66.3159 78.3255 68.8103 80.6503 69.4936C79.745 69.58 79.1839 69.4145 78.7204 68.8501C78.2324 68.256 78.3032 67.5292 78.6226 66.8611C79.0701 65.9249 80.099 65.4477 81.432 65.5086Z" fill="#F2F4F7"/>
<path fill-rule="evenodd" clip-rule="evenodd" d="M122.478 38.2154C122.587 38.2794 122.673 38.3299 122.719 38.3745C125.05 40.6077 125.528 42.6147 125.706 43.7721C123.887 40.8994 122.246 40.5325 121.775 40.4272L121.772 40.4267L121.753 40.4224C121.62 40.3925 121.51 40.368 121.418 40.36V60.0048H99.0036C98.9949 60.0048 98.9861 60.0049 98.9774 60.0049L121.42 60.0049V120H55.9733L56.6863 117.791C56.8235 117.159 56.992 116.535 57.2838 115.941L57.2934 115.911L57.2987 115.91C57.309 115.89 57.3188 115.869 57.3285 115.848C57.3443 115.815 57.36 115.781 57.378 115.748C58.0204 114.572 59.0687 114.039 60.2647 113.648C62.2042 113.015 63.9989 112.15 64.9324 110.178C65.4461 109.092 65.5523 107.913 65.6577 106.742C65.6909 106.373 65.724 106.005 65.7698 105.641C65.8755 104.8 66.0102 103.964 66.1449 103.128C66.2388 102.546 66.3327 101.963 66.4167 101.379C66.523 100.64 66.4074 100.304 65.5712 100.207C59.3614 99.4913 54.0012 96.757 49.019 93.1468C48.9833 93.1208 48.9432 93.1008 48.9031 93.0807C48.8191 93.0386 48.7348 92.9964 48.689 92.8997C49.161 92.6278 49.522 92.7687 49.8647 92.9025C49.8861 92.9108 49.9074 92.9191 49.9286 92.9273C53.1062 94.1506 56.2978 95.3713 59.6327 96.0593C59.8483 96.1037 60.0638 96.1482 60.2794 96.1928C64.6577 97.0972 69.0423 98.0029 73.5105 98.3892C74.0491 98.4358 74.5848 98.5071 75.1206 98.5785C76.0103 98.697 76.9004 98.8155 77.805 98.8208C78.7073 98.8261 79.1826 98.813 79.001 97.5817C78.6161 94.974 78.0608 92.4316 77.1069 89.9767C77.0798 89.9072 77.0548 89.8323 77.0294 89.756C76.903 89.3778 76.7653 88.9657 76.3141 88.9994C75.8916 89.0309 75.7141 89.4762 75.5481 89.8931C75.5352 89.9253 75.5224 89.9575 75.5096 89.9892C75.4526 90.13 75.4276 90.305 75.4024 90.4808C75.3453 90.8805 75.2875 91.2838 74.8525 91.2971C74.3706 91.3118 74.1409 90.7845 73.9379 90.3185C73.9011 90.2341 73.8652 90.1516 73.8288 90.0748C73.1646 88.672 72.5489 87.2486 72.2226 85.721C72.2156 85.6883 72.2092 85.6523 72.2026 85.615C72.1675 85.4167 72.126 85.1823 71.9522 85.2169C71.0191 85.4028 71.1051 84.8481 71.1747 84.3994C71.1897 84.3032 71.2038 84.2119 71.207 84.1338C71.3485 80.7015 72.5714 77.6537 74.6118 74.9154C74.6742 74.8317 74.7531 74.7572 74.8346 74.6914C74.8876 74.6487 74.9386 74.5924 74.9901 74.5355C75.1397 74.3703 75.2942 74.1998 75.5157 74.3417C75.7639 74.5007 75.6458 74.7169 75.534 74.9215C75.5032 74.9779 75.4728 75.0334 75.4508 75.0866C75.4065 75.1936 75.3619 75.3005 75.3174 75.4074C74.7729 76.7152 74.229 78.0213 74.0514 79.4512C74.002 79.8497 73.9637 80.1795 74.227 80.5372C74.5267 80.9441 74.5205 81.4368 74.5145 81.9196C74.5134 82.0032 74.5124 82.0866 74.5129 82.1691C74.5234 83.7556 74.6679 85.3168 75.3198 86.7904C75.333 86.8203 75.3483 86.8553 75.3644 86.8923C75.4312 87.0453 75.5126 87.2319 75.5228 87.2282C76.3005 86.9434 76.5143 87.5216 76.6774 87.9627C76.7131 88.0591 76.7463 88.149 76.7825 88.2219C76.8883 88.435 76.9947 88.6481 77.1011 88.8611C78.4792 91.6209 79.8602 94.3866 80.0732 97.5671C80.1997 99.4573 79.8839 101.194 78.6583 102.694C78.2343 103.213 77.8618 103.76 77.6193 104.389C77.4868 104.733 77.3633 105.21 77.7311 105.33C78.5041 105.581 78.236 105.93 77.9985 106.24C77.9554 106.296 77.9134 106.35 77.8787 106.403C77.0646 107.639 77.3891 108.893 77.7612 110.152C77.796 110.27 77.9197 110.422 78.0268 110.445C78.2378 110.491 78.2832 110.312 78.3238 110.152C78.327 110.139 78.3302 110.126 78.3335 110.114C78.3366 110.102 78.3406 110.091 78.3447 110.079C78.3526 110.057 78.3605 110.035 78.3607 110.012C78.3785 107.904 79.7849 106.86 81.1898 105.817C81.5123 105.577 81.8347 105.338 82.1402 105.086C84.0332 103.523 85.3863 101.677 85.2479 99.0782C85.21 98.3674 85.5801 98.3502 86.086 98.3267C86.1125 98.3254 86.1393 98.3242 86.1665 98.3228C88.5082 98.2052 90.3736 96.0753 90.1211 93.7814C89.9739 92.4439 88.9705 91.7628 87.9924 91.0989C87.8706 91.0162 87.7491 90.9338 87.6298 90.8504C87.1032 90.4824 86.5297 90.1934 85.9553 89.9039C85.184 89.5152 84.411 89.1256 83.7475 88.5428C83.1589 88.0259 82.6599 87.4407 82.2358 86.8097C81.2626 85.3612 81.8631 83.8603 83.5487 83.3771C85.5494 82.8036 85.7193 82.4259 84.8565 80.4721C84.8468 80.4501 84.8392 80.4264 84.8316 80.4027C84.8171 80.3572 84.8026 80.312 84.7734 80.2798C83.3768 78.7382 83.9112 77.3956 85.183 76.1116C85.5615 75.7295 85.5902 75.273 85.6221 74.7672C85.6278 74.677 85.6336 74.5852 85.6415 74.492C85.7804 72.8466 84.9517 71.7322 83.9621 70.6512C83.5763 70.2298 83.8905 70.0247 84.1495 69.8557C84.1593 69.8493 84.169 69.8429 84.1786 69.8366C85.5911 68.9092 87.0635 68.0514 88.7544 67.8032C90.9589 67.4797 91.3045 66.6463 91.5685 65.4681C91.8697 64.1233 91.0188 62.6769 89.6477 61.9064C88.852 61.4592 87.8227 60.8026 87.0674 60.0049L96.4737 60.0049C96.4612 60.0049 96.4487 60.0048 96.4362 60.0048H87.066L87.066 59.998C86.4696 59.3975 86.0382 58.8118 85.6737 58.317C85.5524 58.1522 85.4385 57.9976 85.3284 57.8558C85.2532 57.759 85.1784 57.6622 85.1036 57.5656C83.8629 55.9611 82.6547 54.3986 80.6226 53.6367C79.1779 53.0951 78.5995 51.7043 78.156 50.3375C77.9544 49.7157 78.005 49.1796 78.8746 48.8904C80.5219 48.3427 81.1664 46.8473 81.7152 45.3637C81.7497 45.2705 81.786 45.177 81.8226 45.0831C82.0599 44.4726 82.3045 43.8434 82.0877 43.1667C81.8938 43.0976 81.7902 43.1987 81.6887 43.2977C81.6119 43.3726 81.5364 43.4463 81.4239 43.4444C81.283 43.442 81.1309 43.4901 80.9822 43.5371C80.735 43.6152 80.4971 43.6904 80.3355 43.5267C80.1181 43.3065 80.2904 43.1317 80.4675 42.9519C80.5592 42.8589 80.6522 42.7645 80.6931 42.6618C80.883 42.1849 80.9163 41.749 80.7748 41.2945C80.5086 41.2826 80.4244 41.4194 80.3457 41.5474C80.3345 41.5656 80.3234 41.5837 80.3118 41.6011C79.4126 42.9613 77.5518 42.919 76.6031 41.5755C75.8596 40.5226 75.7065 39.3075 75.5565 38.1169C75.5259 37.8735 75.4953 37.631 75.4599 37.3912C75.393 36.9385 75.3311 36.4853 75.2692 36.0321C75.0814 34.6572 74.8937 33.2832 74.568 31.9297C74.0457 29.7592 73.2331 27.751 71.9739 25.8575C69.4423 22.0507 65.7593 19.9361 61.657 18.3697C58.975 17.3455 56.1792 16.7688 53.3364 16.3618C53.0048 16.3143 52.6734 16.2657 52.3417 16.2171C50.3663 15.9274 48.3762 15.6355 46.242 15.5683C46.8522 15.0345 47.4826 14.9164 48.1006 14.8006C48.2497 14.7727 48.398 14.7449 48.5452 14.7115C51.575 14.0225 54.6145 14.1076 57.6344 14.6439C62.59 15.5239 67.1225 17.4754 71.2807 20.3062C75.0914 22.9006 78.2546 26.0997 80.5612 30.1198C80.7215 30.3992 80.9775 30.6291 81.256 30.8791C81.7278 31.3027 82.2641 31.7842 82.5084 32.6626C82.5084 32.6626 82.98 31.5955 82.6143 29.5437C83.8811 30.0001 85.3423 31.4565 86.8051 32.9143C87.9055 34.0111 89.0068 35.1086 90.0268 35.7821C91.9666 37.0627 94.1106 37.8145 96.4614 37.9118C96.5783 37.9166 96.6953 37.9214 96.8122 37.9263C99.9566 38.0558 103.103 38.1855 106.213 38.7141C106.996 38.8473 112.701 39.2689 113.709 38.9693C115.95 38.3033 118.004 38.8755 120.021 39.6611C120.831 39.9766 121.22 40.1251 121.22 40.1251C120.143 36.8794 116.549 35.6084 114.386 34.8434C114.186 34.7725 113.997 34.7059 113.825 34.6425C109.792 33.1629 105.969 31.2832 102.43 28.8279C101.844 28.4212 101.986 28.2784 102.451 27.9872C104.023 27.0021 104.679 25.5224 104.838 23.5086L104.744 23.5671C103.504 24.3415 102.43 25.0123 101.183 25.3383C99.4803 25.7833 97.7476 25.7536 96.1304 25.2404C95.3889 25.0051 94.7599 24.2957 94.181 23.6429C94.1 23.5516 94.02 23.4614 93.9408 23.3737C91.608 20.7915 89.4388 18.0683 87.3267 15.306C85.3457 12.715 83.1913 10.3127 80.5557 8.3768C77.4727 6.11232 73.973 4.85452 70.2505 4.10007C67.7452 3.59233 65.2261 3.55015 62.7004 3.69747C60.3584 3.8341 58.0616 4.25355 55.8826 5.18649C55.6972 5.26594 55.4918 5.29897 55.258 5.33657C55.1403 5.35551 55.0153 5.3756 54.8821 5.40337C54.8945 4.93979 55.1187 4.60573 55.3489 4.26261C55.5217 4.00501 55.698 3.7423 55.7906 3.41584C55.3026 3.71355 54.8398 4.02594 54.3837 4.33375C53.598 4.86406 52.8325 5.38074 51.9932 5.78525C49.5795 6.9486 47.0935 6.7817 44.6077 6.28809C39.8695 5.34717 35.2577 5.32631 31.07 8.12601C27.7223 10.3641 26.3927 13.6914 26.3557 17.6176C26.3531 17.8988 26.3538 18.18 26.3547 18.4612C26.3598 20.234 26.1453 20.4882 24.2944 20.9009V0H121.418V37.2509C121.719 37.7699 122.183 38.042 122.478 38.2154Z" fill="#F2F4F7"/>
</svg>
