<svg width="150" height="120" viewBox="0 0 150 120" fill="none" xmlns="http://www.w3.org/2000/svg">
<path d="M75.0001 0C103.794 19.9585 128.73 15.5627 128.73 15.5627L127.94 67.9679C127.94 67.9679 125.26 100.362 75.0001 120C24.743 100.362 22.0601 67.9679 22.0601 67.9679L21.2705 15.5627C21.2705 15.5627 46.2094 19.9586 75.0001 0Z" fill="#F2F4F7"/>
<path d="M54.7236 69.6694C54.904 68.9762 55.0159 68.2549 55.2801 67.5927C56.4832 64.5741 58.706 62.7772 61.9143 62.23C62.2625 62.1772 62.6169 62.1585 62.9682 62.1274C63.0024 62.1585 63.0335 62.1834 63.0677 62.2145C62.6978 62.9171 62.4055 63.6694 61.9392 64.2943C61.2739 65.1958 60.5123 66.0197 59.7413 66.828C58.9175 67.6891 58.3672 68.6622 58.1651 69.8529C57.7268 72.4207 59.6636 75.1285 62.2532 75.5358C64.0501 75.8218 65.5858 75.3088 66.8574 74.0218C67.9237 72.943 69.0087 71.886 70.4076 71.23C70.7745 71.0591 71.1506 70.9067 71.5734 70.7202C71.6076 71.5876 71.4615 72.371 71.2004 73.1171C70.0377 76.4404 67.7216 78.3896 64.2397 78.9337C64.1776 78.9461 64.1216 78.9834 64.0626 79.0083H62.2408C62.16 78.9834 62.076 78.9399 61.989 78.9305C58.7558 78.3896 56.5082 76.5989 55.2833 73.5616C55.019 72.9057 54.9071 72.1844 54.7237 71.4912L54.7236 69.6694Z" fill="#141A29"/>
<path d="M85.9054 79.008C85.1997 78.8246 84.4598 78.7157 83.7883 78.4422C80.8008 77.2235 79.007 75.0132 78.4692 71.8173C78.4101 71.4722 78.3977 71.1147 78.3604 70.7634C78.3914 70.7323 78.4194 70.695 78.4505 70.6639C79.15 71.037 79.9054 71.3261 80.5334 71.7955C81.4381 72.467 82.2681 73.2442 83.0919 74.0183C83.8381 74.7147 84.6588 75.2432 85.6598 75.4857C88.4578 76.1665 91.3334 74.2484 91.7749 71.4007C92.0484 69.6442 91.5013 68.1706 90.2951 66.896C89.5085 66.0629 88.7282 65.2173 88.0474 64.3033C87.5842 63.6815 87.2982 62.9292 86.8941 62.1582C87.8329 62.1271 88.6319 62.2732 89.3935 62.5468C92.692 63.7126 94.6257 66.0256 95.1728 69.4919C95.1791 69.5541 95.2195 69.61 95.2443 69.6691V71.4908C95.2163 71.5748 95.1791 71.6556 95.1635 71.7395C94.6226 74.9758 92.8319 77.2235 89.7977 78.4483C89.1386 78.7157 88.4174 78.8245 87.7272 79.0079L85.9054 79.008Z" fill="#141A29"/>
<path d="M64.0625 38.4907C64.7713 38.6741 65.5081 38.783 66.1796 39.0565C69.1703 40.269 70.961 42.4855 71.4988 45.6814C71.5578 46.0327 71.5734 46.384 71.6231 46.8814C70.8335 46.4679 70.0842 46.185 69.4687 45.7281C68.564 45.0534 67.7278 44.2825 66.9102 43.5053C66.0428 42.6876 65.076 42.1343 63.8822 41.9322C61.3143 41.4908 58.6096 43.4213 58.1993 46.0141C57.9164 47.7985 58.4387 49.3001 59.6697 50.5996C60.4656 51.442 61.2521 52.2969 61.9423 53.2203C62.3962 53.8358 62.6728 54.5757 63.0708 55.3343C62.1319 55.3716 61.3392 55.2254 60.5744 54.9519C57.279 53.7861 55.3423 51.4669 54.7982 48.0068C54.7889 47.9446 54.7485 47.8824 54.7236 47.8296V46.0078C54.7516 45.9239 54.792 45.8431 54.8045 45.7591C55.3485 42.5229 57.1361 40.269 60.1734 39.0503C60.8293 38.783 61.5506 38.6742 62.2438 38.4907L64.0625 38.4907Z" fill="#141A29"/>
<path d="M95.2462 47.8296C95.0628 48.5353 94.954 49.2752 94.6773 49.9436C93.4617 52.9373 91.2514 54.7218 88.0555 55.2689C87.8628 55.2969 87.6638 55.3218 87.468 55.3342C87.3125 55.3529 87.154 55.3405 86.8711 55.3405C87.2721 54.5819 87.5643 53.8296 88.0338 53.1985C88.7053 52.2938 89.4856 51.4669 90.2565 50.6399C90.956 49.8938 91.4814 49.0731 91.7239 48.0721C92.4047 45.2741 90.4835 42.4016 87.6358 41.957C85.8793 41.6835 84.4089 42.2306 83.1312 43.4399C82.2918 44.2358 81.4338 45.0192 80.5104 45.7094C79.9011 46.1663 79.155 46.4399 78.3964 46.841C78.3622 45.899 78.5115 45.1031 78.7819 44.3384C79.9509 41.0399 82.2669 39.1094 85.7332 38.5653C85.7923 38.5529 85.8482 38.5156 85.9073 38.4907H87.7291C87.813 38.5156 87.8938 38.5529 87.9809 38.5685C91.2109 39.1094 93.4586 40.9001 94.6835 43.9374C94.9508 44.5933 95.0628 45.3146 95.2462 46.0078V47.8296Z" fill="#141A29"/>
<path d="M89.174 70.5246C88.3533 71.3391 87.5699 72.1225 86.6869 72.9961C86.6186 72.8873 86.5564 72.7288 86.4476 72.6199C85.2258 71.4231 84.088 70.1298 82.6641 69.1536C80.9108 67.9505 78.9895 67.1858 76.8787 66.8935C74.1118 66.5049 71.4787 66.9433 68.9761 68.1619C67.5864 68.8427 66.3771 69.7661 65.289 70.8511C64.5895 71.5443 63.8963 72.25 63.2279 72.9215C62.4134 72.1101 61.633 71.3329 60.8185 70.5246C60.89 70.4469 60.9957 70.335 61.1014 70.2262C62.2952 69.0013 63.5916 67.8666 64.5709 66.4459C65.7864 64.677 66.5419 62.7402 66.8434 60.62C67.1698 58.3257 66.9025 56.1029 66.1004 53.9422C65.4071 52.0894 64.316 50.4884 62.9232 49.0894C62.2175 48.3806 61.5056 47.6811 60.8154 46.9972C61.6268 46.1889 62.4165 45.4055 63.2745 44.5505C63.517 44.8148 63.775 45.1505 64.0828 45.4303C65.1491 46.4127 66.1688 47.4573 67.319 48.3246C69.0165 49.6054 70.9812 50.3111 73.0921 50.6034C75.8589 50.992 78.489 50.5536 80.9947 49.335C82.3812 48.6541 83.5937 47.7308 84.6818 46.6427C85.3813 45.9464 86.0745 45.2469 86.7429 44.5723C87.5543 45.3806 88.3377 46.164 89.1522 46.9723C89.0807 47.0438 88.9719 47.1526 88.8693 47.2707C87.7222 48.5204 86.488 49.7049 85.4465 51.0324C84.1222 52.7329 83.4289 54.7381 83.1274 56.8738C82.8009 59.1526 83.0621 61.3629 83.8548 63.5111C84.545 65.3826 85.6424 66.9961 87.0445 68.3982C87.7502 69.1101 88.4621 69.8127 89.174 70.5246Z" fill="#141A29"/>
<path d="M109.336 26.727V26.7208C109.333 26.7208 108.108 26.9198 106.01 26.9198C100.644 26.9198 89.8442 25.6887 77.81 17.4317L75.0028 15.5198V27.3395C87.5468 35.0835 98.8691 36.5944 105.161 36.7094L104.726 65.4348C104.676 65.7519 102.973 78.9768 83.4867 89.8576C83.4867 89.8576 78.8888 92.612 75.0028 92.5716C70.3147 92.5156 66.5188 89.8576 66.5188 89.8576C47.0328 78.9768 45.3292 65.7519 45.2795 65.4348L44.8442 36.7094C51.1364 36.5944 62.4587 35.0835 75.0028 27.3395V15.5198L72.1924 17.4317C60.1613 25.6887 49.3613 26.9198 43.9955 26.9198C41.897 26.9198 40.6722 26.7208 40.6691 26.7208V26.727L34.7686 25.7073L35.3872 65.9104C35.4711 66.899 37.809 90.1249 73.2152 103.804L75.0028 104.485L76.7872 103.804C112.197 90.1249 114.534 66.899 114.615 65.9104L115.237 25.7073L109.336 26.727Z" fill="#141A29"/>
</svg>
