<svg width="150" height="120" viewBox="0 0 150 120" fill="none" xmlns="http://www.w3.org/2000/svg">
<path d="M19.1701 82.5913L20.2269 86.2511L8.96771 89.4229L7.91089 85.7631L19.1701 82.5913Z" fill="#F2F4F7"/>
<path d="M6.36714 77.5896L12.3423 72.8319L9.7002 73.2386L6.00132 73.6045L5.6355 69.9448L17.2605 68.8062L17.6264 72.3846L11.6919 77.1423L14.334 76.7763L17.9922 76.4104L18.358 80.0701L6.73297 81.1681L6.36714 77.5896Z" fill="#F2F4F7"/>
<path d="M18.2759 59.7381L17.7881 63.5605L8.88641 62.4219L8.4393 65.8377L5.75659 65.4718L7.09794 54.8584L9.8213 55.1837L9.37418 58.5995L18.2759 59.7381Z" fill="#F2F4F7"/>
<path d="M11.3255 41.6426L13.8863 42.5372L12.0165 47.9049L13.6017 48.4742L15.187 43.9198L17.7477 44.8144L16.1625 49.3688L17.9103 49.9787L19.8614 44.3671L22.4221 45.2617L19.211 54.4925L8.15503 50.6294L11.3255 41.6426Z" fill="#F2F4F7"/>
<path d="M25.3494 40.1381L23.317 43.3912L13.3992 37.2103L16.3258 32.4932C18.3581 29.1994 19.9433 28.6708 21.8944 29.8501C23.0325 30.582 23.6829 31.6799 23.2764 33.0625C24.2926 32.2492 24.9429 31.7613 26.9346 33.0219C28.9263 34.2825 28.7231 33.9978 28.8857 33.7538L29.2109 33.9165L27.1379 37.2103C26.4937 36.9884 25.8794 36.6879 25.3088 36.3157C24.008 35.5024 23.439 35.4617 22.5041 36.9663L21.8944 37.9829L25.3494 40.1381ZM19.6995 36.6003L20.5124 35.3397C21.1221 34.3231 21.244 33.6318 20.553 33.1845C19.862 32.7372 19.171 33.1032 18.6833 33.8758L17.7484 35.3804L19.6995 36.6003Z" fill="#F2F4F7"/>
<path d="M24.6982 21.6359L32.1773 23.2218L30.1856 21.4326L27.5842 18.83L30.1856 16.2275L38.3963 24.523L35.8761 27.0442L28.3971 25.4583L30.3888 27.2475L32.9902 29.8907L30.3888 32.4932L22.1375 24.1571L24.6982 21.6359Z" fill="#F2F4F7"/>
<path d="M40.3885 9.31445L50.0625 17.122L46.8107 19.1145L45.5913 18.0573L42.3395 20.0498L42.7867 21.595L39.5755 23.5469L37.0554 11.3477L40.3885 9.31445ZM43.7622 16.3087L40.5104 13.3809L41.6892 17.5693L43.7622 16.3087Z" fill="#F2F4F7"/>
<path d="M56.9316 14.7228L53.314 16.0241L50.2655 7.60657L47.0137 8.74516L46.0789 6.18332L56.2 2.56421L57.0942 5.12605L53.8831 6.30531L56.9316 14.7228Z" fill="#F2F4F7"/>
<path d="M65.9141 12.6083L62.1746 13.2996L60.0203 1.79163L63.8004 1.10034L65.9141 12.6083Z" fill="#F2F4F7"/>
<path d="M80.2644 6.0614C80.2644 10.0465 77.5817 12.283 74.1267 12.3237C70.6717 12.3644 67.989 10.0872 67.989 6.10207C67.989 2.11698 70.4278 0.00244141 74.0861 0.00244141C77.7443 0.00244141 80.2238 2.97093 80.2644 6.0614ZM71.8098 6.10207C71.8098 7.60664 72.2976 9.4772 74.1267 9.4772C75.9558 9.4772 76.403 8.01328 76.403 6.10207C76.403 4.19085 75.7526 2.84893 74.0454 2.84893C72.3382 2.84893 71.8098 4.63816 71.8098 6.10207Z" fill="#F2F4F7"/>
<path d="M88.4326 1.71039L90.9934 8.86729L91.4811 6.26478L92.3347 2.64567L95.9117 3.49962L93.1883 14.8856L89.6927 14.0316L87.1319 6.87474L86.6442 9.47725L85.7906 13.0964L82.2136 12.2424L84.937 0.856445L88.4326 1.71039Z" fill="#F2F4F7"/>
<path d="M107.132 8.54202L105.587 20.8633L102.173 19.1554L102.498 17.5695L99.0836 15.8616L97.9861 17.0408L94.6531 15.3329L103.677 6.79346L107.132 8.54202ZM102.986 15.0889L103.799 10.8192L100.831 13.991L102.986 15.0889Z" fill="#F2F4F7"/>
<path d="M111.52 22.1644L115.585 25.4582L113.878 27.6134L106.805 21.8798L114.122 12.771L117.13 15.1702L111.52 22.1644Z" fill="#F2F4F7"/>
<path fill-rule="evenodd" clip-rule="evenodd" d="M25.8377 84.0553L14.5378 106.217H31.0812L34.0484 99.9957C39.2258 106.792 46.0333 112.171 53.8408 115.635C61.6482 119.1 70.2032 120.538 78.7138 119.816C87.2243 119.095 95.4153 116.237 102.529 111.507C109.642 106.777 115.447 100.328 119.407 92.7574L128.187 106.38H144.364V49.7347H129.569V80.5175L124.976 73.7673C125.139 72.241 125.221 70.7072 125.22 69.1722C125.221 59.5213 122.471 50.0702 117.294 41.9272H144.364V30.2566H107.05C99.647 24.0396 90.6234 20.0663 81.0403 18.8036C71.4572 17.5408 61.7129 19.0413 52.9529 23.1284C44.1928 27.2156 36.7811 33.7197 31.589 41.8761C26.3969 50.0325 23.6401 59.5023 23.6428 69.1722C23.642 74.214 24.3815 79.2286 25.8377 84.0553ZM34.0484 99.9957C30.3947 95.2073 27.6151 89.811 25.8377 84.0553L43.3566 49.7347H59.4935L46.0799 75.8411H59.6967V89.8296H38.8448L34.0484 99.9957ZM81.89 106.217H67.0945V41.9272H48.9659L53.8435 30.2566H107.05C111.04 33.6017 114.494 37.5374 117.294 41.9272H81.89V106.217ZM119.407 92.7574L107.741 74.6619V106.217H91.0356V49.7347H108.717L124.976 73.7673C124.418 80.4081 122.524 86.8675 119.407 92.7574Z" fill="#F2F4F7"/>
<path fill-rule="evenodd" clip-rule="evenodd" d="M119.406 92.7575L107.74 74.6619V106.217H91.0345V49.7347H108.716L124.975 73.7673C124.417 80.4081 122.523 86.8675 119.406 92.7575ZM34.0474 99.9957C30.3936 95.2073 27.6141 89.811 25.8367 84.0553L43.3555 49.7347H59.4924L46.0789 75.8411H59.6957V89.8296H38.8437L34.0474 99.9957ZM81.8889 106.217H67.0934V41.9272H48.9648L53.8425 30.2566H107.049C111.039 33.6017 114.493 37.5374 117.293 41.9272H81.8889V106.217Z" fill="#2B3857"/>
</svg>
