<svg width="426" height="200" viewBox="0 0 426 200" fill="none" xmlns="http://www.w3.org/2000/svg">
<path d="M375.349 105.995L340.56 105.995L352.157 94.3987L386.946 94.3987L375.349 105.995Z" fill="white"/>
<path d="M393.904 66.5674L317.368 66.5674L328.964 54.971L405.5 54.971L393.904 66.5674Z" fill="white"/>
<path d="M317.368 145.423L317.368 66.5679L328.964 66.5679L328.964 145.423L317.368 145.423Z" fill="white"/>
<path d="M20.5 54.9712H134.145L122.548 66.5676H32.0964L20.5 54.9712Z" fill="white"/>
<path d="M71.5241 145.423L71.5241 75.845L83.1205 75.845L83.1205 145.423L71.5241 145.423Z" fill="white"/>
<path d="M215.319 96.7181L215.319 41.0554L226.916 52.6518L226.916 108.314L215.319 96.7181Z" fill="white"/>
<path d="M240.437 121.071L288.643 148.902L272.802 153.147L224.596 125.315L240.437 121.071Z" fill="white"/>
<path d="M206.702 128.794L158.497 156.626L162.742 140.785L210.947 112.953L206.702 128.794Z" fill="white"/>
</svg>
