<svg width="150" height="120" viewBox="0 0 150 120" fill="none" xmlns="http://www.w3.org/2000/svg">
<path d="M121.418 0.00976562H24.2939V120H121.418V0.00976562Z" fill="#F2F4F7"/>
<path d="M73.046 8.03166L72.8311 7.87305C72.859 7.8858 72.8923 7.89278 72.9138 7.91253C72.9573 7.95246 72.9945 7.9993 73.0344 8.04325L73.046 8.03166Z" fill="#F2F4F7"/>
<path d="M70.9111 17.9569L71.0765 17.9989C71.0252 17.981 70.9739 17.9631 70.9225 17.9453L70.9111 17.9569Z" fill="#F2F4F7"/>
<path d="M69.2698 81.3489C68.863 77.2744 65.5971 76.1674 62.5649 74.8783C59.1738 73.4366 55.7513 72.0689 52.988 69.5205C51.7712 68.3984 50.744 67.1354 50.1123 65.2148C52.3839 67.1966 54.8169 68.2866 57.3332 69.1906C59.772 70.0668 62.2489 70.8363 64.6967 71.6881C65.8569 72.0918 66.9395 72.648 67.8972 73.4531C69.7065 74.9742 69.8261 77.0015 69.6545 79.1125C69.5935 79.8634 69.4018 80.6037 69.2698 81.3489Z" fill="#F4CE0B"/>
<path d="M37.0313 72.907C36.7604 72.6214 36.661 72.5223 36.568 72.4175C36.2557 72.0658 36.0719 71.3918 35.4978 71.5726C34.8883 71.7647 34.9141 72.4618 34.8529 73.0092C34.8024 73.461 34.8566 73.928 34.7757 74.372C34.6278 75.1835 34.8863 75.5907 35.7461 75.5593C35.9351 75.5523 36.1942 75.4524 36.2962 75.7179C36.3862 75.9524 36.1882 76.1084 36.0665 76.2711C35.4083 77.1507 34.1682 76.9617 33.6949 75.9384C33.0902 74.6312 33.4185 73.3136 33.7311 72.0479C33.891 71.4006 33.9851 70.6791 34.4364 70.0942C34.6977 69.7556 34.5594 69.3215 34.2984 69.0192C33.2936 67.8552 32.4814 66.5244 31.2906 65.5224C31.0365 65.3086 30.8157 64.9312 30.4011 65.1547C30.0375 65.3508 30.0724 65.735 30.0536 66.0875C29.9844 67.3903 30.6502 68.519 30.91 69.7435C30.9532 69.9471 31.0174 70.1462 31.0813 70.3819C29.8925 69.3893 29.0288 67.2329 29.1338 65.6402C29.1573 65.2821 29.5652 64.724 28.8517 64.6377C28.321 64.5736 28.0697 65.0152 27.9518 65.4946C27.9122 65.6557 27.8815 65.8192 27.7992 66.2039C27.5556 64.8868 27.8902 63.9571 28.7421 63.3007C29.6134 62.6294 30.6055 62.772 31.5126 63.287C32.8211 64.03 33.7698 65.1745 34.5939 66.3889C35.8819 68.2871 36.7869 70.3569 37.0313 72.907Z" fill="#F4CE0B"/>
<path d="M73.0342 8.04281C74.1073 8.07988 74.6599 8.98887 75.4519 9.49421C78.606 11.5068 80.574 14.5548 82.5009 17.6323C84.1576 20.2782 85.747 22.9669 87.8604 25.2973C88.56 26.0687 89.3544 26.7196 90.2592 27.4916C87.9743 26.9063 86.4745 25.3962 84.9586 23.9551C81.3022 20.4791 78.4301 16.3769 75.8413 12.0855C75.1358 10.916 74.1001 10.0334 73.4602 8.84257C73.3163 8.57472 73.0052 8.39366 73.0457 8.03125L73.0342 8.04281Z" fill="#266BA8"/>
<path d="M24.3947 63.6951C24.3576 62.8165 24.6547 62.0329 25.055 61.2828C25.1724 61.0628 25.3653 60.8818 25.6541 60.9737C25.8053 61.0219 25.8302 61.17 25.8182 61.3181C25.5231 64.9646 27.0938 68.0589 28.7178 71.1404C29.4688 72.5654 30.3232 73.9525 30.7177 75.532C31.1167 77.1292 31.4468 78.7441 31.7819 80.3565C31.9465 81.1485 32.1529 81.9062 32.5641 82.6223C33.4385 84.1453 34.7743 84.4296 36.128 83.3168C36.4119 83.0835 36.6718 82.5998 37.075 82.9327C37.4043 83.2045 37.1675 83.6554 37.0389 84.0166C36.9685 84.2146 36.8668 84.4013 36.7925 84.5981C36.3931 85.6558 35.6904 86.4662 34.5555 86.5989C33.4498 86.7282 32.6767 86.0304 32.0373 85.1648C31.1394 83.9491 30.5246 82.6127 30.4151 81.1132C30.1602 77.6237 28.719 74.5853 27.0431 71.5985C25.6656 69.1436 24.5994 66.5547 24.3947 63.6951Z" fill="#F4CE0B"/>
<path d="M29.5644 92.8782C30.3098 96.6164 34.5933 98.6193 37.8123 96.5997C39.6239 95.4631 40.5428 93.7493 40.4785 91.557C40.4683 91.2104 40.2427 90.6407 40.7231 90.5626C41.2228 90.4813 41.1714 91.0775 41.2497 91.4235C42.2461 95.8261 39.3614 99.9017 34.8782 100.034C30.7675 100.155 27.1351 96.0637 28.2643 91.4119C28.4244 90.7521 28.5848 90.0775 29.0325 89.562C29.2442 89.3183 29.6487 89.4689 29.6271 89.7911C29.5585 90.8128 29.3536 91.8208 29.5644 92.8782Z" fill="#F4CE0B"/>
<path d="M73.9334 56.415C74.8186 57.0862 75.1836 55.4162 76.2626 56.071C74.9187 56.4643 74.5733 57.1918 74.7879 58.3664C74.8851 58.8984 74.2906 59.3253 73.8242 59.6347C73.5874 59.7919 73.3424 59.7425 73.3159 59.3776C73.3083 59.2735 73.3437 59.1566 73.3082 59.0657C73.0089 58.3007 72.8021 57.4802 71.6258 57.7305C70.9547 57.8733 70.3359 57.496 69.8263 57.0588C68.5994 56.0062 67.5213 54.6234 65.46 55.5483C66.7487 53.7651 68.077 52.4931 70.0584 52.0308C71.22 51.7597 72.3529 51.7742 73.4991 51.9472C73.9751 52.019 74.6251 51.5691 74.8609 52.0127C75.0953 52.4537 74.9875 53.1121 74.9299 53.6648C74.8256 54.6651 74.9549 55.7617 73.9334 56.415ZM70.6512 56.2047C70.2379 55.1966 70.2011 54.3307 70.9277 53.3914C69.7141 53.6408 68.7434 53.8722 67.7235 54.4441C68.7191 54.9868 69.4044 55.8079 70.6512 56.2047Z" fill="#266BA8"/>
<path d="M59.9299 9.60738C59.1369 9.60738 58.3204 9.73026 57.5553 9.58412C55.3474 9.16242 53.148 9.41689 50.9873 9.71827C47.2939 10.2334 44.0247 11.6273 41.998 15.044C41.362 16.1163 40.0969 15.9346 39.1499 16.3904C38.7858 16.5656 38.342 16.5751 37.9307 16.6609C38.7301 13.7627 42.9998 9.83033 47.3564 8.87813C52.0283 7.85698 52.8717 7.66758 59.9299 9.60738Z" fill="#266BA8"/>
<path d="M45.5799 105.123C47.1035 107.872 48.5863 110.644 50.1651 113.36C51.2348 115.201 52.4443 116.96 53.5792 118.763C53.7892 119.097 54.4602 119.338 53.9618 119.857C53.637 120.196 52.1873 119.881 51.9403 119.475C51.5037 118.759 51.0666 118.042 50.6711 117.302C48.8252 113.853 47.1752 110.312 45.7912 106.651C45.6132 106.18 45.5366 105.671 45.4131 105.18L45.5799 105.123Z" fill="#F4CE0B"/>
<path d="M70.9207 17.9451C69.5113 17.7153 68.4744 16.7141 67.222 16.1529C64.9047 15.1147 62.5612 14.2217 60.078 13.602C57.3539 12.9222 54.6319 12.8027 51.868 12.8573C51.6346 12.8619 51.4002 12.8168 51.1377 12.6171C51.9761 12.4399 52.8102 12.1398 53.6538 12.1098C55.7571 12.0348 57.8964 11.8501 59.9641 12.1305C64.0837 12.6893 67.9764 13.9092 70.7048 17.3996C70.8394 17.5718 70.9773 17.7202 70.9095 17.9566L70.9207 17.9451Z" fill="#266BA8"/>
<path d="M60.124 50.8699C61.1383 49.509 62.5378 48.6718 64.1574 48.2395C66.7248 47.5543 69.3076 48.0351 71.8873 48.2381C73.1394 48.3366 74.3944 48.4059 75.6372 47.99C76.2196 47.7951 76.5768 47.2914 77.1493 47.0859C76.9654 49.4214 74.456 50.3737 72.6913 50.043C69.8565 49.5118 67.0458 48.7211 64.0971 49.3328C62.6784 49.627 61.4611 50.3182 60.124 50.8699Z" fill="#266BA8"/>
<path d="M28.5281 17.5979C28.1969 12.4843 33.2608 7.91102 38.9983 7.98127C36.7321 8.84576 34.236 9.27205 32.4962 11.1564C30.812 12.9806 29.8249 15.252 28.5281 17.5979Z" fill="#266BA8"/>
<path d="M78.4424 81.2756C78.4877 79.979 79.2201 78.8602 79.9139 77.7309C80.0803 77.4599 80.3921 77.1829 80.6817 77.2856C81.0312 77.4095 80.9657 77.8906 80.8627 78.126C80.2245 79.5839 80.031 81.1881 79.3387 82.6267C79.1244 83.0719 78.9075 82.8968 78.7196 82.6783C78.3987 82.305 78.4654 81.825 78.4424 81.2756Z" fill="#F4CE0B"/>
<path d="M87.4403 17.0586C88.7276 18.6658 89.9441 20.2082 91.1896 21.7267C91.623 22.2551 92.1084 22.746 92.6103 23.2104C92.8159 23.4007 92.6877 23.5289 92.6151 23.6396C92.4939 23.8247 92.3813 23.6353 92.2955 23.565C90.2032 21.8509 88.5353 19.7927 87.3092 17.3805C87.2894 17.3417 87.3557 17.2593 87.4403 17.0586Z" fill="#266BA8"/>
<path d="M81.9951 68.1063C81.6238 68.2157 81.4204 68.183 81.3274 67.9925C81.2181 67.7687 81.3434 67.5774 81.4985 67.4359C81.9334 67.0388 82.4842 66.9399 83.0448 66.8782C84.0475 66.768 85.0499 66.6554 86.0529 66.5484C86.3225 66.5196 86.6564 66.4159 86.7466 66.7965C86.826 67.1311 86.559 67.2884 86.2909 67.4058C86.0529 67.51 83.1725 67.7594 81.9951 68.1063Z" fill="#F4CE0B"/>
<path d="M81.4315 65.5091C79.338 66.3164 78.325 68.8108 80.6498 69.4941C79.7445 69.5805 79.1834 69.4149 78.7199 68.8506C78.2319 68.2565 78.3027 67.5297 78.6221 66.8616C79.0696 65.9254 80.0985 65.4482 81.4315 65.5091Z" fill="#F4CE0B"/>
<path d="M122.719 38.3745C122.546 38.2093 121.83 37.9616 121.418 37.2509V0H24.2939V20.9009C26.1448 20.4882 26.3593 20.234 26.3542 18.4612C26.3533 18.18 26.3526 17.8988 26.3552 17.6176C26.3922 13.6914 27.7218 10.3641 31.0695 8.12601C35.2572 5.32631 39.8691 5.34717 44.6072 6.28809C47.093 6.7817 49.579 6.9486 51.9927 5.78525C53.3191 5.14596 54.4613 4.22647 55.7901 3.41584C55.5741 4.17713 54.9034 4.59174 54.8816 5.40337C55.2793 5.32048 55.6032 5.30595 55.8822 5.18649C58.0611 4.25355 60.3579 3.8341 62.7 3.69747C65.2256 3.55015 67.7447 3.59233 70.25 4.10007C73.9725 4.85452 77.4723 6.11232 80.5552 8.3768C83.1909 10.3127 85.3452 12.715 87.3262 15.306C89.4383 18.0683 91.6075 20.7915 93.9403 23.3737C94.5855 24.0879 95.2847 24.9722 96.1299 25.2404C97.7471 25.7536 99.4799 25.7833 101.182 25.3383C102.461 25.0041 103.557 24.3076 104.837 23.5086C104.678 25.5224 104.023 27.0021 102.451 27.9872C101.986 28.2784 101.844 28.4212 102.43 28.8279C105.968 31.2832 109.791 33.1629 113.824 34.6425C115.861 35.3898 120.043 36.5786 121.219 40.1251C121.219 40.1251 120.831 39.9766 120.021 39.6611C118.003 38.8755 115.949 38.3033 113.708 38.9693C112.7 39.2689 106.996 38.8473 106.212 38.7141C102.986 38.1658 99.7221 38.0467 96.4609 37.9118C94.1101 37.8145 91.9661 37.0627 90.0263 35.7821C87.6503 34.2134 84.8336 30.3435 82.6138 29.5437C82.9795 31.5955 82.5079 32.6626 82.5079 32.6626C82.1194 31.2657 80.9926 30.8726 80.5607 30.1198C78.2541 26.0997 75.0909 22.9006 71.2803 20.3062C67.122 17.4754 62.5896 15.5239 57.6339 14.6439C54.614 14.1076 51.5745 14.0225 48.5447 14.7115C47.7874 14.8836 46.9988 14.9058 46.2415 15.5683C48.7342 15.6468 51.0303 16.0318 53.3359 16.3618C56.1787 16.7688 58.9746 17.3455 61.6565 18.3697C65.7588 19.9361 69.4418 22.0507 71.9734 25.8575C73.2326 27.751 74.0452 29.7592 74.5675 31.9297C75.0006 33.7293 75.1896 35.5652 75.4594 37.3912C75.6681 38.8038 75.7071 40.3072 76.6026 41.5755C77.5513 42.919 79.4121 42.9613 80.3114 41.6011C80.4036 41.4615 80.4701 41.2809 80.7743 41.2945C80.9158 41.749 80.8826 42.1849 80.6927 42.6618C80.5727 42.9628 80.005 43.1925 80.335 43.5267C80.5938 43.789 81.0486 43.4381 81.4234 43.4444C81.6847 43.4488 81.7467 43.0454 82.0872 43.1667C82.3374 43.9476 81.9732 44.6652 81.7147 45.3637C81.1659 46.8473 80.5214 48.3427 78.8741 48.8904C78.0046 49.1796 77.9539 49.7157 78.1555 50.3375C78.599 51.7043 79.1775 53.0951 80.6221 53.6367C82.7766 54.4444 84.005 56.1522 85.3279 57.8558C85.7688 58.4235 86.2705 59.1975 87.0655 59.998L87.0655 60.0048H96.4357C97.2915 60.0078 98.1473 60.0091 99.0031 60.0048H121.418V40.36C121.514 40.3684 121.63 40.3949 121.772 40.4267C122.24 40.5313 123.884 40.8944 125.705 43.7721C125.527 42.6147 125.049 40.6077 122.719 38.3745Z" fill="#266BA8"/>
<path d="M87.0669 60.0039C87.8222 60.8016 88.8516 61.4582 89.6472 61.9054C91.0183 62.6759 91.8692 64.1223 91.568 65.4671C91.304 66.6453 90.9584 67.4787 88.7539 67.8023C87.063 68.0504 85.5906 68.9082 84.1782 69.8357C83.9148 70.0085 83.5612 70.2129 83.9616 70.6502C84.9512 71.7313 85.7799 72.8456 85.641 74.491C85.5889 75.1068 85.6285 75.6604 85.1825 76.1106C83.9108 77.3946 83.3763 78.7372 84.7729 80.2788C84.8173 80.3278 84.8277 80.407 84.856 80.4711C85.7188 82.425 85.5489 82.8026 83.5482 83.3761C81.8626 83.8593 81.2621 85.3602 82.2353 86.8087C82.6594 87.4397 83.1585 88.0249 83.747 88.5418C84.9046 89.5586 86.3956 89.9873 87.6293 90.8494C88.7068 91.6023 89.9551 92.2764 90.1206 93.7805C90.3731 96.0744 88.5077 98.2043 86.166 98.3218C85.6195 98.3493 85.2075 98.3292 85.2474 99.0772C85.3858 101.676 84.0328 103.522 82.1397 105.085C80.5032 106.436 78.382 107.42 78.3602 110.011C78.3599 110.045 78.342 110.079 78.333 110.113C78.2889 110.281 78.2543 110.494 78.0263 110.444C77.9192 110.421 77.7955 110.269 77.7607 110.151C77.3886 108.892 77.0641 107.638 77.8782 106.402C78.1041 106.059 78.6437 105.626 77.7306 105.329C77.3628 105.209 77.4863 104.732 77.6188 104.388C77.8613 103.759 78.2338 103.212 78.6578 102.693C79.8834 101.193 80.1992 99.4563 80.0727 97.5661C79.8432 94.14 78.2585 91.1954 76.782 88.2209C76.5803 87.8147 76.47 86.8802 75.5224 87.2272C75.5097 87.2319 75.3871 86.9429 75.3193 86.7894C74.6674 85.3158 74.5229 83.7546 74.5124 82.1681C74.5087 81.609 74.5781 81.0137 74.2265 80.5362C73.9632 80.1786 74.0015 79.8487 74.0509 79.4502C74.2431 77.9034 74.8637 76.5016 75.4503 75.0857C75.5523 74.8395 75.8319 74.5436 75.5152 74.3407C75.2173 74.1499 75.0408 74.524 74.8342 74.6904C74.7526 74.7562 74.6737 74.8307 74.6113 74.9144C72.5709 77.6527 71.348 80.7005 71.2066 84.1328C71.1884 84.5753 70.8186 85.4416 71.9517 85.2159C72.1582 85.1748 72.178 85.5133 72.2221 85.72C72.5485 87.2476 73.1641 88.6711 73.8283 90.0738C74.0654 90.5744 74.2828 91.3135 74.852 91.2961C75.4783 91.277 75.3226 90.4493 75.5091 89.9882C75.6876 89.5467 75.8584 89.0323 76.3136 88.9984C76.8558 88.9579 76.9453 89.561 77.1064 89.9758C78.0603 92.4306 78.6156 94.973 79.0005 97.5807C79.1822 98.812 78.7068 98.8251 77.8045 98.8198C76.3552 98.8114 74.9429 98.5122 73.51 98.3883C68.8218 97.9829 64.2257 97.0058 59.6323 96.0583C56.2973 95.3703 53.1057 94.1496 49.9281 92.9263C49.5661 92.7869 49.1899 92.6099 48.6885 92.8988C48.7562 93.0415 48.9078 93.0655 49.0186 93.1458C54.0007 96.756 59.3609 99.4903 65.5707 100.206C66.4069 100.303 66.5225 100.639 66.4162 101.378C66.2117 102.8 65.9487 104.212 65.7693 105.64C65.5783 107.16 65.6074 108.749 64.9319 110.177C63.9984 112.149 62.2037 113.014 60.2642 113.647C59.0683 114.038 58.0199 114.571 57.3775 115.748C57.3484 115.801 57.3251 115.855 57.2982 115.909L57.293 115.91L57.2833 115.94C56.9915 116.534 56.823 117.158 56.6858 117.79L55.9728 119.999H121.419V60.0039L87.0669 60.0039Z" fill="#F4CE0B"/>
</svg>
