<svg width="108" height="120" viewBox="0 0 108 120" fill="none" xmlns="http://www.w3.org/2000/svg">
<path d="M54.0001 0C82.7938 19.9585 107.73 15.5627 107.73 15.5627L106.94 67.9679C106.94 67.9679 104.26 100.362 54.0001 120C3.74305 100.362 1.06015 67.9679 1.06015 67.9679L0.270508 15.5627C0.270508 15.5627 25.2094 19.9586 54.0001 0Z" fill="#141A29"/>
<path d="M33.7236 69.6689C33.904 68.9757 34.0159 68.2544 34.2801 67.5923C35.4832 64.5736 37.706 62.7767 40.9143 62.2296C41.2625 62.1767 41.6169 62.158 41.9682 62.127C42.0024 62.158 42.0335 62.1829 42.0677 62.214C41.6978 62.9166 41.4055 63.6689 40.9392 64.2938C40.2739 65.1954 39.5123 66.0192 38.7413 66.8275C37.9175 67.6886 37.3672 68.6617 37.1651 69.8524C36.7268 72.4203 38.6636 75.128 41.2532 75.5353C43.0501 75.8213 44.5858 75.3083 45.8574 74.0213C46.9237 72.9425 48.0087 71.8855 49.4076 71.2296C49.7745 71.0586 50.1506 70.9063 50.5734 70.7197C50.6076 71.5871 50.4615 72.3705 50.2004 73.1166C49.0377 76.4399 46.7216 78.3891 43.2397 78.9332C43.1776 78.9456 43.1216 78.9829 43.0626 79.0078H41.2408C41.16 78.9829 41.076 78.9394 40.989 78.93C37.7558 78.3891 35.5082 76.5984 34.2833 73.5611C34.019 72.9052 33.9071 72.1839 33.7237 71.4907L33.7236 69.6689Z" fill="#F2F4F7"/>
<path d="M64.9064 79.0082C64.2007 78.8248 63.4608 78.716 62.7893 78.4424C59.8017 77.2237 58.008 75.0134 57.4701 71.8175C57.4111 71.4725 57.3986 71.1149 57.3613 70.7636C57.3924 70.7326 57.4204 70.6952 57.4515 70.6641C58.151 71.0372 58.9064 71.3263 59.5344 71.7958C60.439 72.4673 61.2691 73.2445 62.0929 74.0186C62.839 74.7149 63.6598 75.2434 64.6608 75.4859C67.4587 76.1667 70.3344 74.2486 70.7758 71.4009C71.0494 69.6445 70.5023 68.1709 69.2961 66.8963C68.5095 66.0631 67.7292 65.2175 67.0484 64.3035C66.5852 63.6818 66.2992 62.9294 65.895 62.1584C66.8339 62.1273 67.6329 62.2734 68.3945 62.547C71.693 63.7128 73.6267 66.0258 74.1738 69.4921C74.18 69.5543 74.2204 69.6103 74.2453 69.6693V71.4911C74.2173 71.575 74.18 71.6558 74.1645 71.7398C73.6236 74.976 71.8329 77.2237 68.7987 78.4486C68.1396 78.7159 67.4184 78.8247 66.7282 79.0082L64.9064 79.0082Z" fill="#F2F4F7"/>
<path d="M43.0625 38.4902C43.7713 38.6737 44.5081 38.7825 45.1796 39.056C48.1703 40.2685 49.961 42.4851 50.4988 45.6809C50.5578 46.0322 50.5734 46.3835 50.6231 46.8809C49.8335 46.4674 49.0842 46.1846 48.4687 45.7276C47.564 45.0529 46.7278 44.282 45.9102 43.5048C45.0428 42.6872 44.076 42.1338 42.8822 41.9317C40.3143 41.4903 37.6096 43.4208 37.1993 46.0136C36.9164 47.798 37.4387 49.2996 38.6697 50.5991C39.4656 51.4415 40.2521 52.2965 40.9423 53.2198C41.3962 53.8353 41.6728 54.5752 42.0708 55.3338C41.1319 55.3711 40.3392 55.225 39.5744 54.9514C36.279 53.7856 34.3423 51.4664 33.7982 48.0063C33.7889 47.9441 33.7485 47.8819 33.7236 47.8291V46.0074C33.7516 45.9234 33.792 45.8426 33.8045 45.7586C34.3485 42.5224 36.1361 40.2685 39.1734 39.0498C39.8293 38.7825 40.5506 38.6737 41.2438 38.4903L43.0625 38.4902Z" fill="#F2F4F7"/>
<path d="M74.2467 47.8291C74.0633 48.5348 73.9544 49.2747 73.6778 49.9431C72.4622 52.9368 70.2519 54.7213 67.056 55.2684C66.8633 55.2964 66.6643 55.3213 66.4684 55.3337C66.313 55.3524 66.1545 55.34 65.8716 55.34C66.2726 54.5814 66.5648 53.8291 67.0342 53.198C67.7057 52.2933 68.4861 51.4664 69.257 50.6395C69.9565 49.8933 70.4819 49.0726 70.7244 48.0716C71.4052 45.2737 69.484 42.4011 66.6363 41.9565C64.8798 41.683 63.4094 42.2301 62.1316 43.4394C61.2923 44.2353 60.4342 45.0187 59.5109 45.7089C58.9016 46.1659 58.1555 46.4394 57.3969 46.8405C57.3627 45.8985 57.512 45.1026 57.7824 44.3379C58.9513 41.0395 61.2674 39.1089 64.7337 38.5648C64.7928 38.5524 64.8487 38.5151 64.9078 38.4902H66.7296C66.8135 38.5151 66.8943 38.5524 66.9814 38.568C70.2114 39.1089 72.4591 40.8996 73.684 43.9369C73.9513 44.5928 74.0633 45.3141 74.2467 46.0073V47.8291Z" fill="#F2F4F7"/>
<path d="M68.1745 70.5249C67.3538 71.3394 66.5703 72.1228 65.6874 72.9964C65.6191 72.8875 65.5569 72.729 65.4481 72.6202C64.2263 71.4233 63.0885 70.13 61.6646 69.1539C59.9113 67.9508 57.99 67.186 55.8791 66.8938C53.1123 66.5052 50.4791 66.9435 47.9765 68.1622C46.5869 68.843 45.3776 69.7663 44.2895 70.8513C43.59 71.5446 42.8968 72.2503 42.2284 72.9218C41.4138 72.1104 40.6335 71.3332 39.819 70.5249C39.8905 70.4471 39.9962 70.3352 40.1019 70.2264C41.2957 69.0016 42.5921 67.8669 43.5713 66.4461C44.7869 64.6772 45.5423 62.7404 45.8439 60.6202C46.1703 58.3259 45.903 56.1031 45.1009 53.9425C44.4076 52.0896 43.3164 50.4886 41.9237 49.0896C41.218 48.3808 40.5061 47.6814 39.8159 46.9974C40.6273 46.1891 41.4169 45.4057 42.275 44.5508C42.5175 44.815 42.7755 45.1508 43.0833 45.4306C44.1496 46.413 45.1693 47.4575 46.3195 48.3249C48.017 49.6057 49.9817 50.3114 52.0926 50.6036C54.8594 50.9922 57.4895 50.5539 59.9952 49.3352C61.3817 48.6544 62.5941 47.7311 63.6822 46.643C64.3817 45.9466 65.075 45.2471 65.7434 44.5725C66.5548 45.3808 67.3382 46.1642 68.1527 46.9725C68.0812 47.044 67.9724 47.1528 67.8698 47.2709C66.7227 48.5207 65.4885 49.7052 64.447 51.0326C63.1227 52.7331 62.4294 54.7383 62.1279 56.8741C61.8014 59.1528 62.0626 61.3632 62.8553 63.5113C63.5455 65.3829 64.6429 66.9963 66.045 68.3984C66.7507 69.1103 67.4626 69.813 68.1745 70.5249Z" fill="#F2F4F7"/>
<path d="M88.3359 26.7268V26.7206C88.3328 26.7206 87.108 26.9195 85.0095 26.9195C79.6437 26.9195 68.8437 25.6884 56.8095 17.4314L54.0023 15.5195V27.3392C66.5463 35.0833 77.8686 36.5941 84.1608 36.7092L83.7256 65.4346C83.6758 65.7517 81.9722 78.9765 62.4862 89.8573C62.4862 89.8573 57.8883 92.6117 54.0023 92.5713C49.3142 92.5154 45.5183 89.8573 45.5183 89.8573C26.0323 78.9765 24.3287 65.7517 24.279 65.4346L23.8437 36.7092C30.136 36.5941 41.4582 35.0833 54.0023 27.3392V15.5195L51.1919 17.4314C39.1608 25.6884 28.3608 26.9195 22.995 26.9195C20.8966 26.9195 19.6717 26.7206 19.6686 26.7206V26.7268L13.7681 25.7071L14.3867 65.9102C14.4707 66.8988 16.8085 90.1247 52.2147 103.803L54.0023 104.484L55.7867 103.803C91.1961 90.1247 93.5339 66.8988 93.6147 65.9102L94.2365 25.7071L88.3359 26.7268Z" fill="#F2F4F7"/>
</svg>
