<svg width="150" height="120" viewBox="0 0 150 120" fill="none" xmlns="http://www.w3.org/2000/svg">
<path d="M19.1704 82.5859L20.2272 86.2457L8.96796 89.4175L7.91113 85.7577L19.1704 82.5859Z" fill="#757678"/>
<path d="M6.36739 77.5842L12.3425 72.8265L9.70045 73.2332L6.00157 73.5992L5.63574 69.9394L17.2608 68.8008L17.6266 72.3792L11.6922 77.1369L14.3342 76.771L17.9924 76.405L18.3583 80.0648L6.73321 81.1627L6.36739 77.5842Z" fill="#757678"/>
<path d="M18.2761 59.7313L17.7884 63.5537L8.88666 62.4151L8.43954 65.8309L5.75684 65.4649L7.09819 54.8516L9.82154 55.1769L9.37442 58.5927L18.2761 59.7313Z" fill="#757678"/>
<path d="M11.3257 41.6367L13.8865 42.5313L12.0167 47.899L13.602 48.4683L15.1872 43.9139L17.748 44.8085L16.1627 49.3629L17.9106 49.9729L19.8616 44.3612L22.4224 45.2558L19.2113 54.4866L8.15527 50.6235L11.3257 41.6367Z" fill="#757678"/>
<path d="M25.3496 40.1325L23.3173 43.3856L13.3994 37.2047L16.326 32.4876C18.3584 29.1938 19.9436 28.6652 21.8946 29.8444C23.0328 30.5764 23.6831 31.6743 23.2766 33.0569C24.2928 32.2436 24.9432 31.7557 26.9349 33.0162C28.9266 34.2768 28.7233 33.9922 28.8859 33.7482L29.2111 33.9109L27.1381 37.2047C26.494 36.9828 25.8797 36.6823 25.309 36.31C24.0083 35.4968 23.4392 35.4561 22.5043 36.9607L21.8946 37.9773L25.3496 40.1325ZM19.6997 36.5947L20.5126 35.3341C21.1223 34.3175 21.2443 33.6262 20.5533 33.1789C19.8623 32.7316 19.1713 33.0976 18.6835 33.8702L17.7486 35.3748L19.6997 36.5947Z" fill="#757678"/>
<path d="M24.6985 21.629L32.1775 23.2149L30.1858 21.4257L27.5844 18.8232L30.1858 16.2207L38.3965 24.5162L35.8764 27.0374L28.3973 25.4515L30.389 27.2407L32.9905 29.8839L30.389 32.4864L22.1377 24.1502L24.6985 21.629Z" fill="#757678"/>
<path d="M40.3887 9.30859L50.0627 17.1161L46.811 19.1087L45.5915 18.0514L42.3398 20.0439L42.7869 21.5892L39.5758 23.5411L37.0557 11.3418L40.3887 9.30859ZM43.7624 16.3028L40.5107 13.375L41.6894 17.5634L43.7624 16.3028Z" fill="#757678"/>
<path d="M56.9319 14.7172L53.3143 16.0184L50.2657 7.60095L47.014 8.73955L46.0791 6.17771L56.2002 2.55859L57.0944 5.12044L53.8833 6.2997L56.9319 14.7172Z" fill="#757678"/>
<path d="M65.9143 12.6017L62.1748 13.293L60.0205 1.78504L63.8007 1.09375L65.9143 12.6017Z" fill="#757678"/>
<path d="M80.2647 6.05506C80.2647 10.0401 77.582 12.2767 74.127 12.3173C70.672 12.358 67.9893 10.0808 67.9893 6.09572C67.9893 2.11063 70.4281 -0.00390625 74.0863 -0.00390625C77.7445 -0.00390625 80.224 2.96458 80.2647 6.05506ZM71.8101 6.09572C71.8101 7.6003 72.2978 9.47085 74.127 9.47085C75.9561 9.47085 76.4032 8.00694 76.4032 6.09572C76.4032 4.1845 75.7528 2.84259 74.0457 2.84259C72.3385 2.84259 71.8101 4.63181 71.8101 6.09572Z" fill="#757678"/>
<path d="M88.4329 1.70356L90.9936 8.86045L91.4814 6.25795L92.335 2.63883L95.9119 3.49278L93.1886 14.8788L89.6929 14.0248L87.1322 6.86791L86.6444 9.47042L85.7908 13.0895L82.2139 12.2356L84.9372 0.849609L88.4329 1.70356Z" fill="#757678"/>
<path d="M107.132 8.53567L105.587 20.8569L102.173 19.149L102.498 17.5631L99.0838 15.8552L97.9864 17.0345L94.6533 15.3266L103.677 6.78711L107.132 8.53567ZM102.986 15.0826L103.799 10.8129L100.832 13.9847L102.986 15.0826Z" fill="#757678"/>
<path d="M111.521 22.1591L115.585 25.4529L113.878 27.6081L106.806 21.8744L114.122 12.7656L117.13 15.1648L111.521 22.1591Z" fill="#757678"/>
<path fill-rule="evenodd" clip-rule="evenodd" d="M25.838 84.0499L14.5381 106.212H31.0814L34.0487 99.9903C39.226 106.786 46.0336 112.165 53.841 115.63C61.6485 119.095 70.2035 120.533 78.714 119.811C87.2246 119.089 95.4156 116.231 102.529 111.501C109.642 106.772 115.447 100.323 119.407 92.7521L128.187 106.375H144.365V49.7294H129.569V80.5121L124.976 73.7619C125.139 72.2357 125.221 70.7018 125.22 69.1668C125.221 59.5159 122.472 50.0648 117.294 41.9218H144.365V30.2512H107.051C99.6473 24.0343 90.6236 20.0609 81.0405 18.7982C71.4574 17.5355 61.7131 19.0359 52.9531 23.1231C44.1931 27.2102 36.7814 33.7143 31.5893 41.8707C26.3971 50.0271 23.6404 59.4969 23.643 69.1668C23.6422 74.2086 24.3818 79.2232 25.838 84.0499ZM34.0487 99.9903C30.3949 95.2019 27.6153 89.8056 25.838 84.0499L43.3568 49.7294H59.4937L46.0802 75.8358H59.6969V89.8242H38.845L34.0487 99.9903ZM81.8902 106.212H67.0947V41.9218H48.9661L53.8438 30.2512H107.051C111.04 33.5963 114.494 37.532 117.294 41.9218H81.8902V106.212ZM119.407 92.7521L107.742 74.6565V106.212H91.0358V49.7294H108.717L124.976 73.7619C124.418 80.4027 122.524 86.8621 119.407 92.7521Z" fill="#EF3B2D"/>
<path fill-rule="evenodd" clip-rule="evenodd" d="M119.406 92.7509L107.741 74.6553V106.211H91.0348V49.7281H108.716L124.975 73.7607C124.417 80.4015 122.523 86.8609 119.406 92.7509ZM34.0476 99.9891C30.3939 95.2007 27.6143 89.8044 25.8369 84.0487L43.3558 49.7281H59.4927L46.0791 75.8346H59.6959V89.823H38.844L34.0476 99.9891ZM81.8892 106.211H67.0937V41.9206H48.9651L53.8427 30.25H107.05C111.039 33.5951 114.493 37.5308 117.293 41.9206H81.8892V106.211Z" fill="#F2F4F7"/>
</svg>
