<svg width="140" height="120" viewBox="0 0 140 120" fill="none" xmlns="http://www.w3.org/2000/svg">
<g clip-path="url(#clip0_3_14329)">
<path d="M14.1713 82.5898L15.2282 86.2496L3.96893 89.4214L2.91211 85.7616L14.1713 82.5898Z" fill="#141A29"/>
<path d="M1.36739 77.5882L7.3425 72.8304L4.70045 73.2371L1.00157 73.6031L0.635742 69.9433L12.2608 68.8047L12.6266 72.3831L6.69215 77.1408L9.33421 76.7749L12.9924 76.4089L13.3583 80.0687L1.73321 81.1666L1.36739 77.5882Z" fill="#141A29"/>
<path d="M13.2771 59.7352L12.7893 63.5576L3.88763 62.419L3.44052 65.8348L0.757812 65.4688L2.09916 54.8555L4.82252 55.1808L4.3754 58.5966L13.2771 59.7352Z" fill="#141A29"/>
<path d="M6.32623 41.6406L8.88699 42.5352L7.01723 47.9029L8.60246 48.4722L10.1877 43.9178L12.7485 44.8124L11.1632 49.3668L12.911 49.9768L14.8621 44.3651L17.4229 45.2597L14.2118 54.4905L3.15576 50.6274L6.32623 41.6406Z" fill="#141A29"/>
<path d="M20.3496 40.1364L18.3173 43.3895L8.39941 37.2086L11.326 32.4915C13.3584 29.1977 14.9436 28.6691 16.8946 29.8483C18.0328 30.5803 18.6831 31.6782 18.2766 33.0608C19.2928 32.2475 19.9432 31.7596 21.9349 33.0202C23.9266 34.2807 23.7233 33.9961 23.8859 33.7521L24.2111 33.9148L22.1381 37.2086C21.494 36.9867 20.8797 36.6862 20.309 36.314C19.0083 35.5007 18.4392 35.46 17.5043 36.9646L16.8946 37.9812L20.3496 40.1364ZM14.6997 36.5986L15.5126 35.338C16.1223 34.3214 16.2443 33.6301 15.5533 33.1828C14.8623 32.7355 14.1713 33.1015 13.6835 33.8741L12.7486 35.3787L14.6997 36.5986Z" fill="#141A29"/>
<path d="M19.6994 21.6329L27.1785 23.2188L25.1868 21.4296L22.5854 18.8271L25.1868 16.2246L33.3975 24.5201L30.8774 27.0413L23.3983 25.4554L25.39 27.2446L27.9914 29.8878L25.39 32.4903L17.1387 24.1541L19.6994 21.6329Z" fill="#141A29"/>
<path d="M35.3887 9.3125L45.0627 17.12L41.811 19.1126L40.5915 18.0553L37.3398 20.0478L37.7869 21.5931L34.5758 23.545L32.0557 11.3457L35.3887 9.3125ZM38.7624 16.3067L35.5107 13.3789L36.6894 17.5673L38.7624 16.3067Z" fill="#141A29"/>
<path d="M51.9323 14.7211L48.3148 16.0223L45.2662 7.60486L42.0145 8.74346L41.0796 6.18161L51.2007 2.5625L52.0949 5.12434L48.8838 6.3036L51.9323 14.7211Z" fill="#141A29"/>
<path d="M60.9153 12.6056L57.1758 13.2969L55.0215 1.78895L58.8017 1.09766L60.9153 12.6056Z" fill="#141A29"/>
<path d="M75.2637 6.05896C75.2637 10.0441 72.581 12.2806 69.126 12.3212C65.671 12.3619 62.9883 10.0847 62.9883 6.09963C62.9883 2.11454 65.4271 0 69.0853 0C72.7436 0 75.223 2.96849 75.2637 6.05896ZM66.8091 6.09963C66.8091 7.6042 67.2969 9.47475 69.126 9.47475C70.9551 9.47475 71.4022 8.01084 71.4022 6.09963C71.4022 4.18841 70.7519 2.84649 69.0447 2.84649C67.3375 2.84649 66.8091 4.63572 66.8091 6.09963Z" fill="#141A29"/>
<path d="M83.4338 1.70746L85.9946 8.86436L86.4824 6.26185L87.336 2.64274L90.9129 3.49669L88.1895 14.8827L84.6939 14.0287L82.1331 6.87181L81.6454 9.47432L80.7918 13.0934L77.2148 12.2395L79.9382 0.853516L83.4338 1.70746Z" fill="#141A29"/>
<path d="M102.131 8.53958L100.587 20.8608L97.1725 19.1529L97.4977 17.567L94.0834 15.8591L92.9859 17.0384L89.6528 15.3305L98.6765 6.79102L102.131 8.53958ZM97.9855 15.0865L98.7984 10.8168L95.8312 13.9886L97.9855 15.0865Z" fill="#141A29"/>
<path d="M106.521 22.161L110.586 25.4548L108.879 27.61L101.806 21.8764L109.123 12.7676L112.13 15.1668L106.521 22.161Z" fill="#141A29"/>
<path fill-rule="evenodd" clip-rule="evenodd" d="M20.8375 84.0538L9.5376 106.216H26.0809L29.0482 99.9942C34.2256 106.79 41.0331 112.169 48.8405 115.634C56.648 119.099 65.203 120.537 73.7135 119.815C82.2241 119.093 90.4151 116.235 97.5283 111.505C104.641 106.775 110.447 100.327 114.407 92.756L123.187 106.378H139.364V49.7333H124.569V80.5161L119.976 73.7658C120.139 72.2396 120.22 70.7057 120.219 69.1707C120.221 59.5198 117.471 50.0687 112.293 41.9257H139.364V30.2551H102.05C94.6468 24.0382 85.6232 20.0648 76.04 18.8021C66.4569 17.5394 56.7126 19.0398 47.9526 23.127C39.1926 27.2142 31.7809 33.7182 26.5888 41.8746C21.3966 50.031 18.6399 59.5008 18.6425 69.1707C18.6418 74.2125 19.3813 79.2271 20.8375 84.0538ZM29.0482 99.9942C25.3945 95.2058 22.6149 89.8095 20.8375 84.0538L38.3563 49.7333H54.4932L41.0797 75.8397H54.6965V89.8281H33.8445L29.0482 99.9942ZM76.8897 106.216H62.0942V41.9257H43.9656L48.8433 30.2551H102.05C106.039 33.6002 109.494 37.5359 112.293 41.9257H76.8897V106.216ZM114.407 92.756L102.741 74.6604V106.216H86.0353V49.7333H103.717L119.976 73.7658C119.417 80.4066 117.523 86.866 114.407 92.756Z" fill="#141A29"/>
<path fill-rule="evenodd" clip-rule="evenodd" d="M114.407 92.7548L102.741 74.6592V106.215H86.0353V49.7321H103.717L119.976 73.7646C119.417 80.4054 117.523 86.8648 114.407 92.7548ZM29.0481 99.993C25.3944 95.2046 22.6148 89.8083 20.8374 84.0526L38.3563 49.7321H54.4931L41.0796 75.8385H54.6964V89.8269H33.8445L29.0481 99.993ZM76.8897 106.215H62.0941V41.9245H43.9656L48.8432 30.2539H102.05C106.039 33.599 109.494 37.5347 112.293 41.9245H76.8897V106.215Z" fill="#F2F4F7"/>
</g>
<defs>
<clipPath id="clip0_3_14329">
<rect width="138.728" height="120" fill="white" transform="translate(0.635742)"/>
</clipPath>
</defs>
</svg>
