<svg width="164" height="130" viewBox="0 0 164 130" fill="none" xmlns="http://www.w3.org/2000/svg">
<path d="M0.980453 4.50207C2.57642 9.00412 6.0585 11.6183 57.7096 44.8755L71.783 54.0249V76.0994C71.783 97.8839 71.783 98.3195 75.4104 101.66L79.0374 105V50.1039L67.7204 42.8423C61.6268 38.9212 44.2165 27.5934 29.2725 17.8631C14.3285 7.98757 1.41572 0 0.690281 0C-0.0351558 0 0.109932 2.03319 0.980453 4.50207Z" fill="white"/>
<path d="M123.579 24.9792L84.8413 50.1039V105L88.4683 101.66C92.0953 98.3195 92.0953 97.8839 92.0953 76.2449V54.1699L126.481 31.805C154.483 13.5062 161.157 8.56847 162.753 4.6473C163.769 2.17842 164.059 0 163.479 0C162.753 0 144.762 11.3278 123.579 24.9792Z" fill="white"/>
<path d="M17.3754 29.1909C19.1164 34.8548 23.469 38.6307 41.6049 50.2489L58.7251 61.2864V68.8384C58.7251 75.0829 59.4509 77.1159 62.3526 79.8754L65.9796 83.2159V57.3649L42.4755 42.1162C29.5627 33.693 18.5361 26.5767 17.6655 26.2863C16.9401 25.9958 16.795 27.3029 17.3754 29.1909Z" fill="white"/>
<path d="M121.548 41.8257L97.8986 57.3649V83.2159L101.526 79.8754C104.428 77.1159 105.153 75.0829 105.153 68.8384V61.2864L123.289 49.5228C139.539 39.0664 147.228 31.805 147.228 27.1577C147.228 25.1245 144.907 26.4315 121.548 41.8257Z" fill="white"/>
<path d="M39.4378 130L33.4436 118H36.4407L40.9363 127L45.432 118H48.4291L42.4349 130H39.4378ZM54.4233 130C53.5801 130 52.8703 129.711 52.2923 129.133C51.7149 128.539 51.4262 127.828 51.4262 127V121C51.4262 120.172 51.7149 119.469 52.2923 118.89C52.8858 118.297 53.5961 118 54.4233 118H66.4117L61.916 122.5H66.4117L63.4146 125.5H55.9218L60.4175 121H55.9218C55.5002 121 55.1416 121.148 54.8449 121.445C54.5636 121.742 54.4233 122.094 54.4233 122.5V125.5C54.4233 125.922 54.5636 126.281 54.8449 126.578C55.1416 126.859 55.5002 127 55.9218 127H66.4117C66.4117 127.844 66.1149 128.554 65.522 129.133C64.9286 129.711 64.2263 130 63.4146 130H54.4233ZM69.4088 130L72.4059 124L69.4088 118H72.4059L75.4029 124L72.4059 130H69.4088ZM78.4 130L75.4029 124L78.4 118H81.3971L78.4 124L81.3971 130H78.4ZM84.3942 130V118H87.3913V130H84.3942ZM90.3884 130V115H93.3855V130H90.3884ZM96.3826 130V118H99.3797V127H106.872C107.278 127 107.63 126.859 107.926 126.578C108.223 126.281 108.371 125.922 108.371 125.5V118H111.368V127C111.368 127.844 111.071 128.554 110.478 129.133C109.885 129.711 109.183 130 108.371 130H96.3826ZM117.362 130V121L114.365 118H118.861L123.356 122.5L127.852 118H132.348L129.351 121V130H126.354V124L123.356 127L120.359 124V130H117.362Z" fill="white"/>
</svg>
