<svg width="150" height="120" viewBox="0 0 150 120" fill="none" xmlns="http://www.w3.org/2000/svg">
<path d="M75.0001 0C103.794 19.9585 128.73 15.5627 128.73 15.5627L127.94 67.9679C127.94 67.9679 125.26 100.362 75.0001 120C24.743 100.362 22.0601 67.9679 22.0601 67.9679L21.2705 15.5627C21.2705 15.5627 46.2094 19.9586 75.0001 0Z" fill="#2A2853"/>
<path d="M54.7236 69.6689C54.904 68.9757 55.0159 68.2544 55.2801 67.5923C56.4832 64.5736 58.706 62.7767 61.9143 62.2296C62.2625 62.1767 62.6169 62.158 62.9682 62.127C63.0024 62.158 63.0335 62.1829 63.0677 62.214C62.6978 62.9166 62.4055 63.6689 61.9392 64.2938C61.2739 65.1954 60.5123 66.0192 59.7413 66.8275C58.9175 67.6886 58.3672 68.6617 58.1651 69.8524C57.7268 72.4203 59.6636 75.128 62.2532 75.5353C64.0501 75.8213 65.5858 75.3083 66.8574 74.0213C67.9237 72.9425 69.0087 71.8855 70.4076 71.2296C70.7745 71.0586 71.1506 70.9063 71.5734 70.7197C71.6076 71.5871 71.4615 72.3705 71.2004 73.1166C70.0377 76.4399 67.7216 78.3891 64.2397 78.9332C64.1776 78.9456 64.1216 78.9829 64.0626 79.0078H62.2408C62.16 78.9829 62.076 78.9394 61.989 78.93C58.7558 78.3891 56.5082 76.5984 55.2833 73.5611C55.019 72.9052 54.9071 72.1839 54.7237 71.4907L54.7236 69.6689Z" fill="#FFED00"/>
<path d="M85.9054 79.0082C85.1997 78.8248 84.4598 78.716 83.7883 78.4424C80.8008 77.2237 79.007 75.0134 78.4692 71.8175C78.4101 71.4725 78.3977 71.1149 78.3604 70.7636C78.3914 70.7326 78.4194 70.6952 78.4505 70.6641C79.15 71.0372 79.9054 71.3263 80.5334 71.7958C81.4381 72.4673 82.2681 73.2445 83.0919 74.0186C83.8381 74.7149 84.6588 75.2434 85.6598 75.4859C88.4578 76.1667 91.3334 74.2486 91.7749 71.4009C92.0484 69.6445 91.5013 68.1709 90.2951 66.8963C89.5085 66.0631 88.7282 65.2175 88.0474 64.3035C87.5842 63.6818 87.2982 62.9294 86.8941 62.1584C87.8329 62.1273 88.6319 62.2734 89.3935 62.547C92.692 63.7128 94.6257 66.0258 95.1728 69.4921C95.1791 69.5543 95.2195 69.6103 95.2443 69.6693V71.4911C95.2163 71.575 95.1791 71.6558 95.1635 71.7398C94.6226 74.976 92.8319 77.2237 89.7977 78.4486C89.1386 78.7159 88.4174 78.8247 87.7272 79.0082L85.9054 79.0082Z" fill="#FFED00"/>
<path d="M64.0625 38.4902C64.7713 38.6737 65.5081 38.7825 66.1796 39.056C69.1703 40.2685 70.961 42.4851 71.4988 45.6809C71.5578 46.0322 71.5734 46.3835 71.6231 46.8809C70.8335 46.4674 70.0842 46.1846 69.4687 45.7276C68.564 45.0529 67.7278 44.282 66.9102 43.5048C66.0428 42.6872 65.076 42.1338 63.8822 41.9317C61.3143 41.4903 58.6096 43.4208 58.1993 46.0136C57.9164 47.798 58.4387 49.2996 59.6697 50.5991C60.4656 51.4415 61.2521 52.2965 61.9423 53.2198C62.3962 53.8353 62.6728 54.5752 63.0708 55.3338C62.1319 55.3711 61.3392 55.225 60.5744 54.9514C57.279 53.7856 55.3423 51.4664 54.7982 48.0063C54.7889 47.9441 54.7485 47.8819 54.7236 47.8291V46.0074C54.7516 45.9234 54.792 45.8426 54.8045 45.7586C55.3485 42.5224 57.1361 40.2685 60.1734 39.0498C60.8293 38.7825 61.5506 38.6737 62.2438 38.4903L64.0625 38.4902Z" fill="#FFED00"/>
<path d="M95.2462 47.8291C95.0628 48.5348 94.954 49.2747 94.6773 49.9431C93.4617 52.9368 91.2514 54.7213 88.0555 55.2684C87.8628 55.2964 87.6638 55.3213 87.468 55.3337C87.3125 55.3524 87.154 55.34 86.8711 55.34C87.2721 54.5814 87.5643 53.8291 88.0338 53.198C88.7053 52.2933 89.4856 51.4664 90.2565 50.6395C90.956 49.8933 91.4814 49.0726 91.7239 48.0716C92.4047 45.2737 90.4835 42.4011 87.6358 41.9565C85.8793 41.683 84.4089 42.2301 83.1312 43.4394C82.2918 44.2353 81.4338 45.0187 80.5104 45.7089C79.9011 46.1659 79.155 46.4394 78.3964 46.8405C78.3622 45.8985 78.5115 45.1026 78.7819 44.3379C79.9509 41.0395 82.2669 39.1089 85.7332 38.5648C85.7923 38.5524 85.8482 38.5151 85.9073 38.4902H87.7291C87.813 38.5151 87.8938 38.5524 87.9809 38.568C91.2109 39.1089 93.4586 40.8996 94.6835 43.9369C94.9508 44.5928 95.0628 45.3141 95.2462 46.0073V47.8291Z" fill="#FFED00"/>
<path d="M89.174 70.5249C88.3533 71.3394 87.5699 72.1228 86.6869 72.9964C86.6186 72.8875 86.5564 72.729 86.4476 72.6202C85.2258 71.4233 84.088 70.13 82.6641 69.1539C80.9108 67.9508 78.9895 67.186 76.8787 66.8938C74.1118 66.5052 71.4787 66.9435 68.9761 68.1622C67.5864 68.843 66.3771 69.7663 65.289 70.8513C64.5895 71.5446 63.8963 72.2503 63.2279 72.9218C62.4134 72.1104 61.633 71.3332 60.8185 70.5249C60.89 70.4471 60.9957 70.3352 61.1014 70.2264C62.2952 69.0016 63.5916 67.8669 64.5709 66.4461C65.7864 64.6772 66.5419 62.7404 66.8434 60.6202C67.1698 58.3259 66.9025 56.1031 66.1004 53.9425C65.4071 52.0896 64.316 50.4886 62.9232 49.0896C62.2175 48.3808 61.5056 47.6814 60.8154 46.9974C61.6268 46.1891 62.4165 45.4057 63.2745 44.5508C63.517 44.815 63.775 45.1508 64.0828 45.4306C65.1491 46.413 66.1688 47.4575 67.319 48.3249C69.0165 49.6057 70.9812 50.3114 73.0921 50.6036C75.8589 50.9922 78.489 50.5539 80.9947 49.3352C82.3812 48.6544 83.5937 47.7311 84.6818 46.643C85.3813 45.9466 86.0745 45.2471 86.7429 44.5725C87.5543 45.3808 88.3377 46.1642 89.1522 46.9725C89.0807 47.044 88.9719 47.1528 88.8693 47.2709C87.7222 48.5207 86.488 49.7052 85.4465 51.0326C84.1222 52.7331 83.4289 54.7383 83.1274 56.8741C82.8009 59.1528 83.0621 61.3632 83.8548 63.5113C84.545 65.3829 85.6424 66.9963 87.0445 68.3984C87.7502 69.1103 88.4621 69.813 89.174 70.5249Z" fill="#FFED00"/>
<path d="M109.336 26.7268V26.7206C109.333 26.7206 108.108 26.9195 106.01 26.9195C100.644 26.9195 89.8442 25.6884 77.81 17.4314L75.0028 15.5195V27.3392C87.5468 35.0833 98.8691 36.5941 105.161 36.7092L104.726 65.4346C104.676 65.7517 102.973 78.9765 83.4867 89.8573C83.4867 89.8573 78.8888 92.6117 75.0028 92.5713C70.3147 92.5154 66.5188 89.8573 66.5188 89.8573C47.0328 78.9765 45.3292 65.7517 45.2795 65.4346L44.8442 36.7092C51.1364 36.5941 62.4587 35.0833 75.0028 27.3392V15.5195L72.1924 17.4314C60.1613 25.6884 49.3613 26.9195 43.9955 26.9195C41.897 26.9195 40.6722 26.7206 40.6691 26.7206V26.7268L34.7686 25.7071L35.3872 65.9102C35.4711 66.8988 37.809 90.1247 73.2152 103.803L75.0028 104.484L76.7872 103.803C112.197 90.1247 114.534 66.8988 114.615 65.9102L115.237 25.7071L109.336 26.7268Z" fill="#FFED00"/>
</svg>
