<svg width="102" height="120" viewBox="0 0 102 120" fill="none" xmlns="http://www.w3.org/2000/svg">
<path d="M97.4183 0.00976562H0.294434V120H97.4183V0.00976562Z" fill="#F2F4F7"/>
<path d="M98.7192 38.3745C98.5468 38.2093 97.8305 37.9616 97.4183 37.2509V0H0.294434V20.9009C2.1453 20.4882 2.35982 20.234 2.35466 18.4612C2.35381 18.18 2.35309 17.8988 2.35574 17.6176C2.39273 13.6914 3.72233 10.3641 7.07002 8.12601C11.2577 5.32631 15.8695 5.34717 20.6077 6.28809C23.0935 6.7817 25.5795 6.9486 27.9932 5.78525C29.3196 5.14596 30.4618 4.22647 31.7906 3.41584C31.5745 4.17713 30.9039 4.59174 30.8821 5.40337C31.2798 5.32048 31.6037 5.30595 31.8826 5.18649C34.0616 4.25355 36.3584 3.8341 38.7004 3.69747C41.2261 3.55015 43.7452 3.59233 46.2505 4.10007C49.973 4.85452 53.4727 6.11232 56.5557 8.3768C59.1913 10.3127 61.3457 12.715 63.3267 15.306C65.4388 18.0683 67.608 20.7915 69.9408 23.3737C70.586 24.0879 71.2852 24.9722 72.1304 25.2404C73.7476 25.7536 75.4803 25.7833 77.1825 25.3383C78.4612 25.0041 79.5578 24.3076 80.8377 23.5086C80.6789 25.5224 80.0232 27.0021 78.451 27.9872C77.9864 28.2784 77.8442 28.4212 78.4302 28.8279C81.9687 31.2832 85.7917 33.1629 89.8247 34.6425C91.8615 35.3898 96.0434 36.5786 97.22 40.1251C97.22 40.1251 96.8314 39.9766 96.0213 39.6611C94.0036 38.8755 91.9497 38.3033 89.7089 38.9693C88.7008 39.2689 82.9962 38.8473 82.2126 38.7141C78.987 38.1658 75.7226 38.0467 72.4614 37.9118C70.1106 37.8145 67.9666 37.0627 66.0268 35.7821C63.6508 34.2134 60.8341 30.3435 58.6143 29.5437C58.98 31.5955 58.5084 32.6626 58.5084 32.6626C58.1199 31.2657 56.9931 30.8726 56.5612 30.1198C54.2546 26.0997 51.0914 22.9006 47.2807 20.3062C43.1225 17.4754 38.59 15.5239 33.6344 14.6439C30.6145 14.1076 27.575 14.0225 24.5452 14.7115C23.7878 14.8836 22.9993 14.9058 22.242 15.5683C24.7347 15.6468 27.0308 16.0318 29.3364 16.3618C32.1792 16.7688 34.975 17.3455 37.657 18.3697C41.7593 19.9361 45.4423 22.0507 47.9739 25.8575C49.2331 27.751 50.0457 29.7592 50.568 31.9297C51.0011 33.7293 51.1901 35.5652 51.4599 37.3912C51.6686 38.8038 51.7075 40.3072 52.6031 41.5755C53.5518 42.919 55.4126 42.9613 56.3118 41.6011C56.4041 41.4615 56.4706 41.2809 56.7748 41.2945C56.9163 41.749 56.883 42.1849 56.6932 42.6618C56.5732 42.9628 56.0055 43.1924 56.3355 43.5267C56.5943 43.789 57.0491 43.4381 57.4239 43.4444C57.6852 43.4488 57.7472 43.0454 58.0877 43.1667C58.3379 43.9476 57.9737 44.6652 57.7152 45.3637C57.1664 46.8473 56.5219 48.3427 54.8746 48.8904C54.005 49.1796 53.9544 49.7157 54.156 50.3375C54.5995 51.7043 55.1779 53.0951 56.6226 53.6367C58.7771 54.4444 60.0055 56.1522 61.3284 57.8558C61.7693 58.4235 62.271 59.1975 63.066 59.998L63.066 60.0048H72.4362C73.292 60.0078 74.1478 60.0091 75.0036 60.0048H97.4183V40.36C97.5143 40.3684 97.6303 40.3949 97.7722 40.4267C98.2402 40.5313 99.884 40.8944 101.706 43.7721C101.528 42.6147 101.05 40.6077 98.7192 38.3745Z" fill="#141A29"/>
<path d="M45.2703 81.3489C44.8635 77.2744 41.5975 76.1674 38.5654 74.8783C35.1743 73.4366 31.7518 72.0689 28.9884 69.5205C27.7717 68.3984 26.7445 67.1354 26.1128 65.2148C28.3844 67.1966 30.8174 68.2866 33.3337 69.1906C35.7725 70.0668 38.2494 70.8363 40.6972 71.6881C41.8574 72.0918 42.94 72.648 43.8976 73.4531C45.707 74.9742 45.8265 77.0015 45.655 79.1125C45.594 79.8634 45.4023 80.6037 45.2703 81.3489Z" fill="#141A29"/>
<path d="M13.0328 72.907C12.7618 72.6214 12.6625 72.5223 12.5694 72.4175C12.2571 72.0658 12.0734 71.3918 11.4993 71.5726C10.8897 71.7647 10.9156 72.4618 10.8544 73.0092C10.8039 73.461 10.858 73.928 10.7771 74.372C10.6293 75.1835 10.8878 75.5907 11.7476 75.5593C11.9365 75.5523 12.1957 75.4524 12.2976 75.7179C12.3877 75.9524 12.1896 76.1084 12.0679 76.2711C11.4098 77.1507 10.1697 76.9617 9.69636 75.9384C9.09171 74.6312 9.41992 73.3136 9.73258 72.0479C9.8925 71.4006 9.9866 70.6791 10.4379 70.0942C10.6992 69.7556 10.5608 69.3215 10.2998 69.0192C9.29508 67.8552 8.48291 66.5244 7.29209 65.5224C7.03798 65.3086 6.81718 64.9312 6.4026 65.1547C6.03892 65.3508 6.07384 65.735 6.05509 66.0875C5.98582 67.3903 6.65167 68.519 6.91147 69.7435C6.95467 69.9471 7.01888 70.1462 7.08273 70.3819C5.89399 69.3893 5.03031 67.2329 5.13522 65.6402C5.15881 65.2821 5.56664 64.724 4.85318 64.6377C4.3225 64.5736 4.07113 65.0152 3.95326 65.4946C3.91362 65.6557 3.88301 65.8192 3.80069 66.2039C3.55711 64.8868 3.89166 63.9571 4.74358 63.3007C5.61491 62.6294 6.60695 62.772 7.51409 63.287C8.82255 64.03 9.77127 65.1745 10.5954 66.3889C11.8834 68.2871 12.7884 70.3569 13.0328 72.907Z" fill="#141A29"/>
<path d="M49.0352 8.04281C50.1083 8.07988 50.6609 8.98887 51.4529 9.49421C54.607 11.5068 56.575 14.5548 58.5019 17.6323C60.1586 20.2782 61.748 22.9669 63.8614 25.2973C64.5609 26.0687 65.3554 26.7196 66.2602 27.4916C63.9752 26.9063 62.4755 25.3962 60.9595 23.9551C57.3032 20.4791 54.431 16.3769 51.8423 12.0855C51.1368 10.916 50.1011 10.0334 49.4612 8.84257C49.3172 8.57472 49.0062 8.39366 49.0467 8.03125L49.0352 8.04281Z" fill="#141A29"/>
<path d="M0.394733 63.6951C0.357623 62.8165 0.654652 62.0329 1.05495 61.2828C1.17236 61.0628 1.36532 60.8818 1.65405 60.9737C1.80528 61.0219 1.83016 61.17 1.81818 61.3181C1.52313 64.9646 3.09378 68.0589 4.71781 71.1404C5.46884 72.5654 6.32319 73.9525 6.71773 75.532C7.11672 77.1292 7.44682 78.7441 7.78191 80.3565C7.94652 81.1485 8.15293 81.9062 8.56406 82.6223C9.43846 84.1453 10.7743 84.4296 12.128 83.3168C12.4119 83.0834 12.6718 82.5998 13.075 82.9327C13.4043 83.2045 13.1675 83.6554 13.0389 84.0166C12.9685 84.2146 12.8668 84.4013 12.7925 84.5981C12.3931 85.6558 11.6904 86.4662 10.5555 86.5989C9.44983 86.7282 8.67672 86.0304 8.03731 85.1648C7.1394 83.9491 6.52463 82.6127 6.41511 81.1132C6.16022 77.6237 4.71899 74.5853 3.04308 71.5985C1.66565 69.1436 0.599422 66.5547 0.394733 63.6951Z" fill="#141A29"/>
<path d="M5.56442 92.8782C6.30985 96.6164 10.5933 98.6193 13.8123 96.5997C15.6239 95.4631 16.5428 93.7493 16.4785 91.557C16.4683 91.2104 16.2427 90.6407 16.7231 90.5626C17.2228 90.4813 17.1714 91.0775 17.2497 91.4235C18.2461 95.8261 15.3614 99.9017 10.8782 100.034C6.76745 100.155 3.13511 96.0637 4.26428 91.4119C4.42445 90.7521 4.58482 90.0775 5.0325 89.562C5.24423 89.3183 5.6487 89.4689 5.62708 89.7911C5.55851 90.8128 5.35356 91.8208 5.56442 92.8782Z" fill="#141A29"/>
<path d="M49.9344 56.415C50.8196 57.0862 51.1846 55.4162 52.2636 56.071C50.9196 56.4643 50.5743 57.1918 50.7888 58.3664C50.886 58.8984 50.2916 59.3253 49.8252 59.6347C49.5883 59.7919 49.3434 59.7425 49.3169 59.3776C49.3093 59.2735 49.3447 59.1566 49.3091 59.0657C49.0098 58.3007 48.8031 57.4802 47.6268 57.7305C46.9557 57.8733 46.3369 57.496 45.8273 57.0588C44.6004 56.0062 43.5222 54.6234 41.4609 55.5483C42.7496 53.7651 44.078 52.4931 46.0594 52.0308C47.2209 51.7597 48.3539 51.7742 49.5001 51.9472C49.976 52.019 50.6261 51.5691 50.8619 52.0127C51.0962 52.4537 50.9884 53.1121 50.9308 53.6648C50.8266 54.6651 50.9559 55.7617 49.9344 56.415ZM46.6522 56.2047C46.2389 55.1966 46.2021 54.3307 46.9287 53.3914C45.7151 53.6408 44.7444 53.8722 43.7245 54.4441C44.7201 54.9868 45.4054 55.8079 46.6522 56.2047Z" fill="#141A29"/>
<path d="M35.9309 9.60738C35.1379 9.60738 34.3214 9.73026 33.5563 9.58412C31.3484 9.16242 29.149 9.41689 26.9883 9.71827C23.2949 10.2334 20.0256 11.6273 17.999 15.044C17.3629 16.1163 16.0979 15.9346 15.1509 16.3904C14.7868 16.5656 14.343 16.5751 13.9316 16.6609C14.7311 13.7627 19.0008 9.83033 23.3574 8.87813C28.0293 7.85698 28.8726 7.66758 35.9309 9.60738Z" fill="#141A29"/>
<path d="M21.5813 105.123C23.105 107.872 24.5878 110.644 26.1665 113.36C27.2363 115.201 28.4458 116.96 29.5806 118.763C29.7907 119.097 30.4617 119.338 29.9633 119.857C29.6385 120.196 28.1888 119.881 27.9417 119.475C27.5052 118.759 27.068 118.042 26.6725 117.302C24.8267 113.853 23.1767 110.312 21.7926 106.651C21.6147 106.18 21.5381 105.671 21.4146 105.18L21.5813 105.123Z" fill="#141A29"/>
<path d="M46.9217 17.9451C45.5122 17.7153 44.4754 16.7141 43.223 16.1529C40.9057 15.1147 38.5621 14.2217 36.079 13.602C33.3549 12.9222 30.6329 12.8027 27.869 12.8573C27.6356 12.8619 27.4012 12.8168 27.1387 12.6171C27.9771 12.4399 28.8111 12.1398 29.6548 12.1098C31.7581 12.0348 33.8974 11.8501 35.965 12.1305C40.0846 12.6893 43.9774 13.9092 46.7058 17.3996C46.8404 17.5718 46.9782 17.7202 46.9105 17.9566L46.9217 17.9451Z" fill="#141A29"/>
<path d="M36.125 50.8699C37.1393 49.509 38.5388 48.6718 40.1584 48.2395C42.7257 47.5543 45.3086 48.0351 47.8883 48.2381C49.1404 48.3366 50.3953 48.4059 51.6382 47.99C52.2206 47.7951 52.5778 47.2914 53.1502 47.0859C52.9664 49.4214 50.457 50.3737 48.6923 50.043C45.8575 49.5118 43.0468 48.7211 40.0981 49.3328C38.6794 49.627 37.4621 50.3182 36.125 50.8699Z" fill="#141A29"/>
<path d="M4.52857 17.5979C4.19739 12.4843 9.26134 7.91102 14.9988 7.98127C12.7326 8.84576 10.2365 9.27205 8.49669 11.1564C6.81249 12.9806 5.82534 15.252 4.52857 17.5979Z" fill="#141A29"/>
<path d="M54.4424 81.2756C54.4877 79.979 55.2201 78.8602 55.9139 77.7309C56.0803 77.4599 56.3921 77.1829 56.6817 77.2856C57.0312 77.4095 56.9657 77.8906 56.8627 78.126C56.2245 79.5839 56.031 81.1881 55.3387 82.6267C55.1244 83.0719 54.9075 82.8968 54.7196 82.6783C54.3987 82.305 54.4654 81.825 54.4424 81.2756Z" fill="#141A29"/>
<path d="M63.4408 17.0586C64.7281 18.6658 65.9445 20.2082 67.19 21.7267C67.6234 22.2551 68.1089 22.746 68.6108 23.2104C68.8164 23.4007 68.6881 23.5289 68.6156 23.6396C68.4943 23.8247 68.3818 23.6353 68.296 23.565C66.2037 21.8509 64.5358 19.7927 63.3097 17.3805C63.2899 17.3417 63.3562 17.2593 63.4408 17.0586Z" fill="#141A29"/>
<path d="M57.9955 68.1063C57.6243 68.2157 57.4209 68.183 57.3279 67.9925C57.2186 67.7687 57.3439 67.5774 57.499 67.4359C57.9339 67.0388 58.4847 66.9399 59.0453 66.8782C60.048 66.768 61.0504 66.6554 62.0534 66.5484C62.323 66.5196 62.6569 66.4159 62.7471 66.7965C62.8265 67.1311 62.5595 67.2884 62.2913 67.4058C62.0534 67.51 59.173 67.7594 57.9955 68.1063Z" fill="#141A29"/>
<path d="M57.4325 65.5091C55.339 66.3164 54.326 68.8108 56.6508 69.4941C55.7455 69.5805 55.1844 69.4149 54.7208 68.8506C54.2329 68.2565 54.3037 67.5297 54.623 66.8616C55.0705 65.9254 56.0995 65.4482 57.4325 65.5091Z" fill="#141A29"/>
<path d="M49.046 8.03166L48.8311 7.87305C48.859 7.8858 48.8923 7.89278 48.9138 7.91253C48.9573 7.95246 48.9945 7.9993 49.0344 8.04325L49.046 8.03166Z" fill="#141A29"/>
<path d="M46.9121 17.9569L47.0775 17.9989C47.0262 17.981 46.9749 17.9631 46.9235 17.9453L46.9121 17.9569Z" fill="#141A29"/>
<path d="M63.0669 60.0039C63.8222 60.8016 64.8516 61.4582 65.6472 61.9054C67.0183 62.6759 67.8692 64.1223 67.568 65.4671C67.304 66.6453 66.9584 67.4787 64.7539 67.8023C63.063 68.0504 61.5906 68.9082 60.1782 69.8356C59.9148 70.0085 59.5612 70.2129 59.9616 70.6502C60.9512 71.7313 61.7799 72.8456 61.641 74.491C61.5889 75.1068 61.6285 75.6604 61.1825 76.1106C59.9108 77.3946 59.3763 78.7372 60.7729 80.2788C60.8173 80.3278 60.8277 80.407 60.856 80.4711C61.7188 82.425 61.5489 82.8026 59.5482 83.3761C57.8626 83.8593 57.2621 85.3602 58.2353 86.8087C58.6594 87.4397 59.1584 88.0249 59.747 88.5418C60.9046 89.5586 62.3956 89.9873 63.6293 90.8494C64.7068 91.6023 65.9551 92.2764 66.1206 93.7804C66.3731 96.0744 64.5077 98.2043 62.166 98.3218C61.6195 98.3493 61.2075 98.3292 61.2474 99.0772C61.3858 101.676 60.0328 103.522 58.1397 105.085C56.5032 106.436 54.382 107.42 54.3602 110.011C54.3599 110.045 54.342 110.079 54.333 110.113C54.2889 110.281 54.2543 110.494 54.0263 110.444C53.9192 110.421 53.7955 110.269 53.7607 110.151C53.3886 108.892 53.0641 107.638 53.8782 106.402C54.1041 106.059 54.6437 105.626 53.7306 105.329C53.3628 105.209 53.4863 104.732 53.6188 104.388C53.8613 103.759 54.2338 103.212 54.6578 102.693C55.8834 101.193 56.1992 99.4563 56.0727 97.5661C55.8432 94.14 54.2585 91.1954 52.782 88.2209C52.5803 87.8147 52.47 86.8802 51.5224 87.2272C51.5097 87.2319 51.3871 86.9429 51.3193 86.7894C50.6674 85.3158 50.5229 83.7546 50.5124 82.1681C50.5087 81.609 50.5781 81.0137 50.2265 80.5362C49.9632 80.1785 50.0015 79.8487 50.0509 79.4502C50.2431 77.9034 50.8637 76.5016 51.4503 75.0856C51.5523 74.8395 51.8319 74.5436 51.5152 74.3407C51.2173 74.1499 51.0408 74.524 50.8342 74.6904C50.7526 74.7562 50.6737 74.8307 50.6113 74.9144C48.5709 77.6527 47.348 80.7005 47.2066 84.1328C47.1884 84.5753 46.8186 85.4416 47.9517 85.2159C48.1582 85.1748 48.178 85.5133 48.2221 85.72C48.5485 87.2476 49.1641 88.6711 49.8283 90.0738C50.0654 90.5744 50.2828 91.3135 50.852 91.2961C51.4783 91.277 51.3226 90.4493 51.5091 89.9882C51.6876 89.5467 51.8584 89.0323 52.3136 88.9984C52.8558 88.9579 52.9453 89.561 53.1064 89.9758C54.0603 92.4306 54.6156 94.973 55.0005 97.5807C55.1822 98.812 54.7068 98.8251 53.8045 98.8198C52.3552 98.8113 50.9429 98.5122 49.51 98.3883C44.8218 97.9829 40.2257 97.0058 35.6323 96.0583C32.2973 95.3703 29.1057 94.1496 25.9281 92.9263C25.5661 92.7869 25.1899 92.6099 24.6885 92.8988C24.7562 93.0415 24.9078 93.0655 25.0186 93.1458C30.0007 96.756 35.3609 99.4903 41.5707 100.206C42.4069 100.303 42.5225 100.639 42.4162 101.378C42.2117 102.8 41.9487 104.212 41.7693 105.64C41.5783 107.159 41.6074 108.749 40.9319 110.177C39.9984 112.149 38.2037 113.014 36.2642 113.647C35.0683 114.038 34.0199 114.571 33.3775 115.748C33.3484 115.801 33.3251 115.855 33.2982 115.909L33.293 115.91L33.2833 115.94C32.9915 116.534 32.823 117.158 32.6858 117.79L31.9728 119.999H97.4192V60.0039L63.0669 60.0039Z" fill="#141A29"/>
</svg>
