<svg width="150" height="120" viewBox="0 0 150 120" fill="none" xmlns="http://www.w3.org/2000/svg">
<g clip-path="url(#clip0_102_32655)">
<path d="M0.692138 4.15576C2.15589 8.3115 5.34952 10.7246 52.7218 41.4236L65.6293 49.8691V70.2456C65.6293 90.3544 65.6293 90.7564 68.9563 93.84L72.2829 96.923V46.2497L61.9033 39.5468C56.3145 35.9272 40.3465 25.4708 26.6405 16.489C12.9344 7.37314 1.09134 0 0.426004 0C-0.239338 0 -0.106269 1.87679 0.692138 4.15576Z" fill="#F2F4F7"/>
<path d="M113.135 23.0578L77.6059 46.2497V96.923L80.9325 93.84C84.259 90.7564 84.259 90.3544 84.259 70.3799V50.003L115.796 29.3584C141.478 12.4673 147.599 7.90936 149.063 4.28982C149.995 2.01085 150.261 0 149.729 0C149.063 0 132.563 10.4564 113.135 23.0578Z" fill="#F2F4F7"/>
<path d="M15.7289 26.9454C17.3257 32.1736 21.3178 35.6591 37.9513 46.3836L53.6532 56.5721V63.5431C53.6532 69.3073 54.3189 71.1839 56.9802 73.7312L60.3067 76.8147V52.9522L38.7497 38.8765C26.9066 31.1012 16.7934 24.5324 15.995 24.2643C15.3297 23.9962 15.1966 25.2027 15.7289 26.9454Z" fill="#F2F4F7"/>
<path d="M111.272 38.6084L89.5816 52.9522V76.8147L92.9086 73.7312C95.5699 71.1839 96.2351 69.3073 96.2351 63.5431V56.5721L112.869 45.7134C127.772 36.0613 134.825 29.3585 134.825 25.0686C134.825 23.1918 132.696 24.3984 111.272 38.6084Z" fill="#F2F4F7"/>
<path d="M35.9637 120L30.466 108.923H33.2149L37.3381 117.231L41.4613 108.923H44.2101L38.7125 120H35.9637ZM49.7077 120C48.9344 120 48.2834 119.733 47.7533 119.2C47.2237 118.651 46.9589 117.995 46.9589 117.231V111.692C46.9589 110.928 47.2237 110.279 47.7533 109.745C48.2976 109.197 48.9491 108.923 49.7077 108.923H60.703L56.5798 113.077H60.703L57.9542 115.846H51.0822L55.2054 111.692H51.0822C50.6955 111.692 50.3665 111.829 50.0944 112.104C49.8365 112.377 49.7077 112.702 49.7077 113.077V115.846C49.7077 116.236 49.8365 116.567 50.0944 116.841C50.3665 117.101 50.6955 117.231 51.0822 117.231H60.703C60.703 118.01 60.4309 118.666 59.8871 119.2C59.3428 119.733 58.6987 120 57.9542 120H49.7077ZM63.4518 120L66.2006 114.462L63.4518 108.923H66.2006L68.9495 114.462L66.2006 120H63.4518ZM71.6983 120L68.9495 114.462L71.6983 108.923H74.4471L71.6983 114.462L74.4471 120H71.6983ZM77.1959 120V108.923H79.9447V120H77.1959ZM82.6935 120V106.154H85.4423V120H82.6935ZM88.1912 120V108.923H90.94V117.231H97.812C98.184 117.231 98.5065 117.101 98.7782 116.841C99.0504 116.567 99.1864 116.236 99.1864 115.846V108.923H101.935V117.231C101.935 118.01 101.663 118.666 101.119 119.2C100.575 119.733 99.9309 120 99.1864 120H88.1912ZM107.433 120V111.692L104.684 108.923H108.807L112.931 113.077L117.054 108.923H121.177L118.428 111.692V120H115.679V114.462L112.931 117.231L110.182 114.462V120H107.433Z" fill="#F2F4F7"/>
</g>
<defs>
<clipPath id="clip0_102_32655">
<rect width="150" height="120" fill="white"/>
</clipPath>
</defs>
</svg>
