<svg width="150" height="120" viewBox="0 0 150 120" fill="none" xmlns="http://www.w3.org/2000/svg">
<path d="M125.292 83.9551C116.338 102.739 97.1465 115.734 75.0008 115.734C52.8551 115.734 33.6642 102.739 24.7094 83.9551H20.0059C29.2622 105.151 50.4279 120 75.0008 120C99.5736 120 120.74 105.151 129.996 83.9551H125.292Z" fill="#141A29"/>
<path d="M111.71 83.9551C103.871 95.9249 90.3483 103.855 75.0016 103.855C59.6549 103.855 46.1323 95.9249 38.2931 83.9551H33.2881C41.5946 98.3973 57.1976 108.121 75.0016 108.121C92.8056 108.121 108.409 98.3973 116.715 83.9551H111.71Z" fill="#141A29"/>
<path d="M127.975 31.8543C127.312 30.588 126.588 29.3518 125.819 28.1608C122.216 22.402 117.663 17.3216 112.372 13.0854C111.256 12.196 110.111 11.3518 108.935 10.5377C99.8292 4.26636 88.9146 0.452256 77.1407 0.0452818C76.4321 0.0151009 75.7086 0 75 0C74.9991 0 74.9983 9.20128e-05 74.9975 9.20128e-05C74.9966 9.20128e-05 74.9958 0 74.995 0C74.2864 0 73.5628 0.0151009 72.8543 0.0452818C61.0823 0.453086 50.1696 4.26727 41.0653 10.5377C41.0643 10.5384 41.0633 10.5392 41.0623 10.54L41.0603 10.5377C39.8844 11.3518 38.7388 12.196 37.6231 13.0854L37.6252 13.0879C32.3351 17.3236 27.7833 22.4031 24.1809 28.1608C24.1804 28.1616 24.1799 28.1624 24.1794 28.1633L24.1759 28.1608C23.407 29.3518 22.6834 30.588 22.0201 31.8543L22.0239 31.8569C17.6076 40.1177 15.0754 49.5387 15 59.5326V60C15 61.2814 15.0453 62.5477 15.1206 63.8141H60.5879L69.9949 73.0402L72.3467 75.3468L75 77.9548L77.6533 75.3468L80.005 73.0402L89.412 63.8141H134.879C134.955 62.5477 135 61.2814 135 60V59.5326C134.925 49.5377 132.392 40.1155 127.975 31.8543ZM122.32 30.6006L122.317 30.603L116.075 34.9749L112.578 37.4322L101.109 45.4499C99.0891 41.8177 96.3309 38.6376 93.015 36.1508C93.014 36.1501 93.0129 36.1493 93.0119 36.1486L101.98 25.4774L104.724 22.191L109.608 16.3718L109.61 16.3695C109.611 16.3703 109.612 16.371 109.613 16.3718C114.617 20.3361 118.928 25.1594 122.32 30.6006ZM106.173 13.8372L106.171 13.8392L101.241 19.7035L98.4824 23.005L89.4085 33.7972C85.7159 31.7633 81.5564 30.4823 77.1407 30.1809C77.1391 30.1807 77.1373 30.1809 77.1357 30.1807V4.32653C77.1373 4.32662 77.1391 4.32653 77.1407 4.32662C87.873 4.7336 97.8216 8.1852 106.173 13.8372ZM72.8543 4.327V30.1814C68.4391 30.4836 64.28 31.7646 60.5879 33.799C60.5868 33.7996 60.5857 33.8004 60.5846 33.801L60.5829 33.799L51.5075 23.005L48.7487 19.7036L43.821 13.8415C43.822 13.8408 43.8231 13.8399 43.8241 13.8392C52.1746 8.18685 62.1225 4.7349 72.8543 4.327ZM40.384 16.3743L45.2663 22.191L48.01 25.4774L56.9799 36.1508L56.982 36.1533C53.6668 38.6405 50.9089 41.8202 48.8894 45.4523C48.8889 45.4531 48.8886 45.454 48.8881 45.4549L48.8844 45.4523L37.4121 37.4322L33.9146 34.9749L27.677 30.6056C27.6775 30.6047 27.6779 30.6038 27.6784 30.603C31.0698 25.1619 35.3804 20.3387 40.384 16.3743ZM19.2663 59.5326C19.3417 50.4583 21.6025 41.8815 25.5515 34.3292L31.8342 38.7286L35.3769 41.201L47.0452 49.3718L47.0493 49.3747C45.829 52.5398 45.1507 55.9609 45.1056 59.5326L19.2663 59.5326ZM87.6633 59.5326L77.6533 69.3618L75 71.9698L72.3467 69.3618L62.3367 59.5326H49.3718C49.402 56.8644 49.8694 54.3015 50.6684 51.9045C51.1357 50.5176 51.7086 49.1759 52.402 47.9096C54.1809 44.5628 56.6985 41.6684 59.7286 39.4221C60.8744 38.5628 62.1106 37.794 63.392 37.1457C66.2714 35.6684 69.4673 34.7337 72.8593 34.4473C73.5671 34.387 74.2747 34.3569 74.9975 34.3569C75.7202 34.3569 76.428 34.387 77.1357 34.4473C77.1373 34.4475 77.1391 34.4471 77.1407 34.4473C80.5313 34.7336 83.7261 35.6679 86.6044 37.1441L86.603 37.1457C87.8844 37.794 89.1206 38.5628 90.2663 39.4221L90.2682 39.42C90.2692 39.4208 90.2703 39.4214 90.2713 39.4221C93.3007 41.6678 95.8177 44.5613 97.5965 47.9071L97.593 47.9096C98.2865 49.1759 98.8593 50.5176 99.3267 51.9045L99.3306 51.9017C99.3309 51.9027 99.3314 51.9036 99.3316 51.9045C100.131 54.3015 100.598 56.8644 100.628 59.5326H87.6633ZM104.894 59.5326C104.849 55.9598 104.171 52.5377 102.95 49.3719C102.949 49.3709 102.949 49.37 102.949 49.3691L114.613 41.201L118.156 38.7286L124.442 34.3267L124.446 34.3241C124.446 34.3249 124.447 34.3258 124.447 34.3267C128.397 41.8794 130.658 50.4573 130.734 59.5326H104.894Z" fill="#141A29"/>
<path d="M72.3473 84.8288V93.467L67.282 88.8992L61.8096 83.9544L55.7041 78.452H17.9101C17.3372 76.6881 16.8398 74.879 16.4327 73.0399C16.3574 72.7082 16.282 72.3765 16.2217 72.0449H58.1765L59.2769 73.0399L71.3674 83.9544L72.3473 84.8288Z" fill="#141A29"/>
<path d="M133.78 72.0449C133.72 72.3765 133.644 72.7082 133.569 73.0399C133.162 74.879 132.664 76.6881 132.091 78.452H94.2976L88.192 83.9544L82.7196 88.8992L77.6543 93.467V84.8288L78.6342 83.9544L90.7246 73.0399L91.8252 72.0449H133.78Z" fill="#141A29"/>
</svg>
