<svg width="50" height="50" viewBox="0 0 50 50" fill="none" xmlns="http://www.w3.org/2000/svg">
<path d="M40.9365 34.6426C39.6387 33.335 36.4955 31.4267 34.9705 30.6576C32.9845 29.6573 32.821 29.5755 31.26 30.7352C30.2188 31.5092 29.5266 32.2006 28.3081 31.9407C27.0895 31.6808 24.4415 30.2155 22.1229 27.9042C19.8043 25.593 18.254 22.8682 17.9933 21.6537C17.7325 20.4392 18.4354 19.7552 19.202 18.7115C20.2824 17.2404 20.2007 16.9953 19.2772 15.0093C18.5572 13.4646 16.5933 10.3508 15.2807 9.05954C13.8767 7.67262 13.8767 7.9178 12.9719 8.29375C12.2354 8.60365 11.5288 8.98035 10.8609 9.41913C9.55329 10.2879 8.82755 11.0095 8.32002 12.0941C7.8125 13.1786 7.58448 15.7211 10.2055 20.4826C12.8265 25.244 14.6653 27.6786 18.4714 31.4741C22.2774 35.2695 25.2041 37.3102 29.4825 39.7097C34.7751 42.674 36.8052 42.0961 37.893 41.5894C38.9808 41.0827 39.7057 40.3635 40.5761 39.0559C41.016 38.3892 41.3936 37.6833 41.704 36.9473C42.0807 36.0459 42.3259 36.0459 40.9365 34.6426Z" stroke="white" stroke-width="2" stroke-miterlimit="10"/>
</svg>
