<svg width="26" height="26" viewBox="0 0 26 26" fill="none" xmlns="http://www.w3.org/2000/svg">
<path d="M7.52873 1C7.79045 1.00017 8.04737 1.07028 8.2729 1.20306C8.49843 1.33585 8.68437 1.5265 8.81149 1.75527L10.6068 4.98915C10.7227 5.19782 10.786 5.43162 10.7912 5.67028C10.7965 5.90894 10.7434 6.14528 10.6367 6.35883L8.9074 9.81898C8.9074 9.81898 9.40792 12.3965 11.5059 14.4945C13.6039 16.5924 16.1724 17.084 16.1724 17.084L19.6325 15.3546C19.8461 15.2479 20.0824 15.1949 20.3211 15.2001C20.5598 15.2053 20.7935 15.2687 21.0022 15.3846L24.2451 17.1889C24.7111 17.4466 25.0004 17.9381 25.0004 18.4716V22.1955C25.0004 24.0912 23.2396 25.4624 21.4428 24.854C17.7519 23.6102 12.0229 21.238 8.3919 17.607C4.7609 13.9775 2.39019 8.2485 1.1449 4.55906C0.53948 2.7623 1.90916 1.0015 3.80483 1.0015L7.52873 1Z" stroke="#141A29" stroke-linejoin="round"/>
</svg>
