<svg width="41" height="40" viewBox="0 0 41 40" fill="none" xmlns="http://www.w3.org/2000/svg">
<path d="M28.6356 13.1327C28.4736 13.049 28.3159 12.9572 28.1631 12.8578C27.7188 12.564 27.3113 12.2179 26.9497 11.8268C26.0447 10.7914 25.7067 9.74091 25.5822 9.00545H25.5872C25.4832 8.39498 25.5262 8 25.5327 8H21.4109V23.9382C21.4109 24.1522 21.4109 24.3637 21.4019 24.5727C21.4019 24.5987 21.3994 24.6227 21.3979 24.6507C21.3979 24.6622 21.3979 24.6742 21.3954 24.6862C21.3954 24.6892 21.3954 24.6922 21.3954 24.6952C21.352 25.267 21.1687 25.8194 20.8616 26.3038C20.5546 26.7882 20.1332 27.1897 19.6345 27.473C19.1148 27.7687 18.527 27.9238 17.9291 27.923C16.0087 27.923 14.4523 26.3571 14.4523 24.4232C14.4523 22.4893 16.0087 20.9234 17.9291 20.9234C18.2926 20.923 18.6539 20.9802 18.9996 21.0928L19.0046 16.8961C17.9553 16.7605 16.8893 16.8439 15.8739 17.141C14.8585 17.438 13.9156 17.9423 13.1048 18.622C12.3944 19.2392 11.7972 19.9758 11.3399 20.7984C11.1659 21.0983 10.5095 22.3038 10.43 24.2602C10.38 25.3706 10.7135 26.5211 10.8725 26.9966V27.0066C10.9725 27.2865 11.3599 28.242 11.9914 29.0474C12.5006 29.6936 13.1022 30.2611 13.7768 30.7319V30.7219L13.7868 30.7319C15.7822 32.0878 17.9946 31.9988 17.9946 31.9988C18.3776 31.9833 19.6605 31.9988 21.1175 31.3083C22.7334 30.5429 23.6533 29.4024 23.6533 29.4024C24.241 28.721 24.7084 27.9444 25.0353 27.106C25.4082 26.1256 25.5327 24.9497 25.5327 24.4797V16.0241C25.5827 16.0541 26.2487 16.4946 26.2487 16.4946C26.2487 16.4946 27.2081 17.1095 28.7051 17.51C29.779 17.795 31.2259 17.855 31.2259 17.855V13.7632C30.719 13.8182 29.6895 13.6582 28.6356 13.1327Z" fill="#141A29"/>
</svg>
