<svg width="41" height="40" viewBox="0 0 41 40" fill="none" xmlns="http://www.w3.org/2000/svg">
<path fill-rule="evenodd" clip-rule="evenodd" d="M31.0503 7.99951H10.596C9.61932 7.99951 8.82544 8.774 8.82544 9.73035V30.2687C8.82544 31.2241 9.61932 32.0004 10.596 32.0004H31.0503C32.0288 32.0004 32.8254 31.2241 32.8254 30.2687V9.73035C32.8254 8.774 32.0288 7.99951 31.0503 7.99951ZM12.5179 17.2306H16.2103V28.308H12.5179V17.2306ZM14.365 15.7537C13.1382 15.7537 12.1486 14.7613 12.1486 13.5382C12.1486 12.3151 13.1382 11.3227 14.365 11.3227C15.5872 11.3227 16.5796 12.3151 16.5796 13.5382C16.5796 14.7613 15.5872 15.7537 14.365 15.7537ZM29.1339 28.308H25.4415V22.7693C25.4415 21.2693 25.0371 19.844 23.5952 19.844C22.1524 19.844 21.749 21.2914 21.749 22.7859V28.308H18.0566V17.2306H21.749V18.5627H21.9336C22.4081 17.6627 23.5952 16.8974 25.0067 16.8974C28.413 16.8974 29.1339 19.135 29.1339 21.8462V28.308Z" fill="#141A29"/>
</svg>
