<svg width="26" height="24" viewBox="0 0 26 24" fill="none" xmlns="http://www.w3.org/2000/svg">
<path d="M4.8301 3.41871C8.33049 3.24565 11.054 3.15723 12.9994 3.15723C14.9447 3.15723 17.6682 3.24565 21.1724 3.41871C22.0893 3.4645 22.9583 3.84152 23.6182 4.47974C24.278 5.11796 24.6837 5.97398 24.76 6.88879C24.9204 8.8051 25 10.4928 25 11.9518C25 13.4298 24.9179 15.1402 24.7537 17.0855C24.6773 17.9896 24.279 18.8363 23.6314 19.4716C22.9837 20.107 22.1296 20.489 21.2242 20.548C18.2304 20.7438 15.4892 20.8424 13.0006 20.8424C10.5121 20.8424 7.77088 20.7438 4.77704 20.548C3.8721 20.4887 3.01843 20.1068 2.37105 19.4717C1.72367 18.8366 1.32551 17.9904 1.24886 17.0868C1.09466 15.3793 1.01164 13.6662 1 11.9518C1 10.5054 1.08085 8.81647 1.2438 6.88627C1.32066 5.97191 1.72665 5.11649 2.38642 4.47879C3.04619 3.84109 3.91365 3.46443 4.8301 3.41871Z" stroke="#F2F4F7" stroke-linejoin="round"/>
<path d="M11.1055 9.22861V14.7843C11.1058 14.882 11.1324 14.9778 11.1827 15.0615C11.233 15.1453 11.305 15.2139 11.3911 15.2602C11.4771 15.3064 11.5741 15.3285 11.6717 15.3241C11.7693 15.3197 11.8639 15.289 11.9455 15.2352L16.1129 12.4814C16.187 12.4321 16.2479 12.3653 16.29 12.2868C16.3322 12.2084 16.3544 12.1208 16.3546 12.0317C16.3549 11.9427 16.3332 11.855 16.2915 11.7763C16.2497 11.6976 16.1893 11.6305 16.1154 11.5807L11.9493 8.7789C11.8678 8.7242 11.7729 8.69268 11.6748 8.68771C11.5767 8.68274 11.4792 8.70451 11.3925 8.75069C11.3059 8.79687 11.2334 8.86573 11.1828 8.94991C11.1323 9.03408 11.1055 9.13042 11.1055 9.22861Z" stroke="#F2F4F7" stroke-linejoin="round"/>
</svg>
