<svg width="26" height="25" viewBox="0 0 26 25" fill="none" xmlns="http://www.w3.org/2000/svg">
<path d="M1 19.9283C2.21768 20.6015 11.0371 25.6857 17.3074 21.7674C23.5777 17.8491 23.2316 11.1001 23.2316 8.00658C23.8 6.81668 25 6.21163 25 2.99058C23.8215 4.07942 22.6505 4.44953 21.4859 4.10216C20.344 2.36279 18.7752 1.59353 16.7768 1.79437C13.7794 2.095 12.6817 5.03563 13.0051 8.84026C8.38316 11.1771 4.75916 7.14637 2.89095 4.10216C2.26695 6.49963 1.66568 9.37837 2.89095 12.5628C3.70821 14.6849 5.67242 16.4798 8.78484 17.9464C5.63074 19.6554 3.03621 20.3148 1 19.9283Z" stroke="#141A29" stroke-linejoin="round"/>
</svg>
