<svg width="26" height="26" viewBox="0 0 26 26" fill="none" xmlns="http://www.w3.org/2000/svg">
<path d="M19.6667 1H6.33333C4.91885 1 3.56229 1.5619 2.5621 2.5621C1.5619 3.56229 1 4.91885 1 6.33333V19.6667C1 21.0812 1.5619 22.4377 2.5621 23.4379C3.56229 24.4381 4.91885 25 6.33333 25H19.6667C21.0812 25 22.4377 24.4381 23.4379 23.4379C24.4381 22.4377 25 21.0812 25 19.6667V6.33333C25 4.91885 24.4381 3.56229 23.4379 2.5621C22.4377 1.5619 21.0812 1 19.6667 1Z" stroke="#141A29" stroke-linejoin="round"/>
<path d="M12.9993 18.3337C14.4138 18.3337 15.7704 17.7718 16.7706 16.7716C17.7708 15.7714 18.3327 14.4148 18.3327 13.0003C18.3327 11.5858 17.7708 10.2293 16.7706 9.22909C15.7704 8.2289 14.4138 7.66699 12.9993 7.66699C11.5849 7.66699 10.2283 8.2289 9.22811 9.22909C8.22792 10.2293 7.66602 11.5858 7.66602 13.0003C7.66602 14.4148 8.22792 15.7714 9.22811 16.7716C10.2283 17.7718 11.5849 18.3337 12.9993 18.3337Z" stroke="#141A29" stroke-linejoin="round"/>
<path d="M20.3333 6.99967C20.687 6.99967 21.0261 6.8592 21.2761 6.60915C21.5262 6.3591 21.6667 6.01996 21.6667 5.66634C21.6667 5.31272 21.5262 4.97358 21.2761 4.72353C21.0261 4.47348 20.687 4.33301 20.3333 4.33301C19.9797 4.33301 19.6406 4.47348 19.3905 4.72353C19.1405 4.97358 19 5.31272 19 5.66634C19 6.01996 19.1405 6.3591 19.3905 6.60915C19.6406 6.8592 19.9797 6.99967 20.3333 6.99967Z" fill="#141A29"/>
</svg>
