<svg width="26" height="25" viewBox="0 0 26 25" fill="none" xmlns="http://www.w3.org/2000/svg">
<path d="M3.76817 5.42307C4.42101 5.42307 5.04711 5.16373 5.50874 4.7021C5.97037 4.24047 6.22971 3.61437 6.22971 2.96153C6.22971 2.30869 5.97037 1.68259 5.50874 1.22097C5.04711 0.759339 4.42101 0.5 3.76817 0.5C3.11533 0.5 2.48923 0.759339 2.02761 1.22097C1.56598 1.68259 1.30664 2.30869 1.30664 2.96153C1.30664 3.61437 1.56598 4.24047 2.02761 4.7021C2.48923 5.16373 3.11533 5.42307 3.76817 5.42307Z" stroke="#141A29" stroke-linejoin="round"/>
<path d="M6.22971 9.11548H1.30664V24.5001H6.22971V9.11548Z" stroke="#141A29" stroke-linejoin="round"/>
<path d="M11.1523 14.9616V24.5001H15.46V15.8847C15.46 14.3462 16.3831 13.1155 17.9216 13.1155C19.46 13.1155 20.3831 14.6539 20.3831 15.8847V24.5001H24.6908V14.9616C24.6908 13.1155 22.5369 9.11548 17.9216 9.11548C13.3062 9.11548 11.1523 13.1155 11.1523 14.9616Z" stroke="#141A29" stroke-linejoin="round"/>
</svg>
