<svg width="24" height="25" viewBox="0 0 24 25" fill="none" xmlns="http://www.w3.org/2000/svg">
<path d="M10.0467 9.45664C6.35912 9.27884 3.79596 10.5936 2.35849 13.4009C0.199781 17.6107 1.98285 24.5 9.18272 24.5C16.3813 24.5 16.5892 17.543 16.5892 16.8143V8.66528C18.1293 9.64071 19.4278 10.2267 20.4834 10.4258C21.5402 10.6249 22.2114 10.7138 22.4994 10.69V6.63555C21.5227 6.51784 20.6762 6.29371 19.9638 5.96189C18.8944 5.46478 16.7733 4.08616 16.7733 2.06394V0.5H12.3169C12.3043 10.402 12.3043 15.8401 12.3169 16.8155C12.3369 18.2756 11.2024 20.3203 8.90474 20.3203C6.60579 20.3203 5.47259 18.2768 5.47259 16.9595C5.46923 16.4074 5.59632 15.8623 5.8435 15.3686C6.09068 14.8749 6.45098 14.4465 6.89504 14.1184C7.57371 13.605 8.51658 13.4009 10.0455 13.4009V9.45664H10.0467Z" stroke="#141A29" stroke-linejoin="round"/>
</svg>
