<svg width="50" height="50" viewBox="0 0 50 50" fill="none" xmlns="http://www.w3.org/2000/svg">
<path d="M40 25C40.5523 25 41 25.4477 41 26C41 26.5523 40.5523 27 40 27L40 25ZM11.2929 26.7071C10.9024 26.3166 10.9024 25.6834 11.2929 25.2929L17.6569 18.9289C18.0474 18.5384 18.6805 18.5384 19.0711 18.9289C19.4616 19.3195 19.4616 19.9526 19.0711 20.3431L13.4142 26L19.0711 31.6569C19.4616 32.0474 19.4616 32.6805 19.0711 33.0711C18.6805 33.4616 18.0474 33.4616 17.6569 33.0711L11.2929 26.7071ZM40 27L12 27L12 25L40 25L40 27Z" fill="white"/>
<circle cx="21.5" cy="21.5" r="21.5" transform="matrix(-1 0 0 1 47 4)" stroke="white" stroke-width="2" stroke-linecap="round" stroke-linejoin="round"/>
</svg>
