<svg width="38" height="8" viewBox="0 0 38 8" fill="none" xmlns="http://www.w3.org/2000/svg">
<path d="M1.4502 3.5L0.950195 3.5L0.950195 4.5L1.4502 4.5L1.4502 3.5ZM36.9037 4.35356C37.099 4.15829 37.099 3.84171 36.9037 3.64645L33.7218 0.464468C33.5265 0.269206 33.2099 0.269206 33.0147 0.464468C32.8194 0.65973 32.8194 0.976313 33.0147 1.17157L35.8431 4L33.0147 6.82843C32.8194 7.02369 32.8194 7.34027 33.0147 7.53554C33.2099 7.7308 33.5265 7.7308 33.7218 7.53554L36.9037 4.35356ZM1.4502 4.5L36.5502 4.5L36.5502 3.5L1.4502 3.5L1.4502 4.5Z" fill="#141A29"/>
</svg>
