<svg width="38" height="8" viewBox="0 0 38 8" fill="none" xmlns="http://www.w3.org/2000/svg">
<path d="M36.5498 4.5L37.0498 4.5L37.0498 3.5L36.5498 3.5L36.5498 4.5ZM1.09625 3.64644C0.900991 3.8417 0.900991 4.15829 1.09625 4.35355L4.27823 7.53553C4.47349 7.73079 4.79008 7.73079 4.98534 7.53553C5.1806 7.34027 5.1806 7.02368 4.98534 6.82842L2.15691 3.99999L4.98534 1.17157C5.1806 0.976306 5.1806 0.659723 4.98534 0.464461C4.79008 0.269199 4.4735 0.269199 4.27823 0.464461L1.09625 3.64644ZM36.5498 3.5L1.44981 3.49999L1.44981 4.49999L36.5498 4.5L36.5498 3.5Z" fill="#7F8AA3"/>
</svg>
