<svg width="50" height="50" viewBox="0 0 50 50" fill="none" xmlns="http://www.w3.org/2000/svg">
<path d="M10 24C9.44772 24 9 24.4477 9 25C9 25.5523 9.44772 26 10 26L10 24ZM38.7071 25.7071C39.0976 25.3166 39.0976 24.6834 38.7071 24.2929L32.3431 17.9289C31.9526 17.5384 31.3195 17.5384 30.9289 17.9289C30.5384 18.3195 30.5384 18.9526 30.9289 19.3431L36.5858 25L30.9289 30.6569C30.5384 31.0474 30.5384 31.6805 30.9289 32.0711C31.3195 32.4616 31.9526 32.4616 32.3431 32.0711L38.7071 25.7071ZM10 26L38 26L38 24L10 24L10 26Z" fill="white"/>
<circle cx="24.5" cy="24.5" r="21.5" stroke="white" stroke-width="2" stroke-linecap="round" stroke-linejoin="round"/>
</svg>
