<svg width="94" height="50" viewBox="0 0 94 50" fill="none" xmlns="http://www.w3.org/2000/svg">
<path fill-rule="evenodd" clip-rule="evenodd" d="M34.542 0H35.5449V38.7386H34.542V0ZM24.5433 20.3956C23.3381 20.3956 21.189 21.1836 21.189 21.1836V17.5551C21.189 17.5551 23.3381 18.3431 24.5433 18.3431C28.6742 18.3431 32.0349 15.0091 32.0349 10.9108C32.0349 6.81261 28.6742 3.47852 24.5433 3.47852C20.4124 3.47852 17.0518 6.81261 17.0518 10.9108C17.0518 12.1065 17.8461 14.2386 17.8461 14.2386H14.1887C14.1887 14.2386 14.983 12.1065 14.983 10.9108C14.983 6.81261 11.6224 3.47852 7.4915 3.47852C3.36065 3.47852 0 6.81261 0 10.9108C0 15.0091 3.36065 18.3431 7.4915 18.3431C8.69668 18.3431 10.8458 17.5551 10.8458 17.5551V21.1836C10.8458 21.1836 8.69668 20.3956 7.4915 20.3956C3.36065 20.3956 0 23.7297 0 27.8279C0 31.9261 3.36065 35.2602 7.4915 35.2602C11.6224 35.2602 14.983 31.9261 14.983 27.8279C14.983 26.6323 14.1887 24.5001 14.1887 24.5001H17.8461C17.3383 25.5019 17.0518 26.6323 17.0518 27.8279C17.0518 31.9261 20.4124 35.2602 24.5433 35.2602C28.6742 35.2602 32.0349 31.9261 32.0349 27.8279C32.0349 23.7297 28.6742 20.3956 24.5433 20.3956ZM24.5433 4.41145C28.1556 4.41145 31.0944 7.32702 31.0944 10.9108C31.0944 14.4946 28.1556 17.4102 24.5433 17.4102C22.906 17.4102 21.407 16.8112 20.2574 15.8225L23.8882 12.2204C24.0893 12.3195 24.3122 12.3724 24.5433 12.3724C24.7744 12.3724 24.9973 12.3195 25.1984 12.2204L27.7572 14.759C27.8488 14.85 27.9693 14.8955 28.0897 14.8955C28.2099 14.8955 28.3303 14.85 28.4222 14.759C28.6058 14.5768 28.6058 14.2814 28.4222 14.0993L25.8633 11.5607C25.9633 11.3612 26.0165 11.1401 26.0165 10.9108C26.0165 10.5204 25.8633 10.1534 25.585 9.87735C25.3067 9.60126 24.9368 9.44925 24.5433 9.44925C24.3122 9.44925 24.0894 9.50213 23.8882 9.60132L21.3294 7.0627C21.1458 6.88054 20.8481 6.88054 20.6645 7.0627C20.4809 7.24486 20.4809 7.54024 20.6645 7.72233L23.2234 10.2609C23.1234 10.4605 23.0701 10.6815 23.0701 10.9108C23.0701 11.1401 23.1234 11.3612 23.2234 11.5607L19.5925 15.1629C18.5959 14.0223 17.9922 12.5352 17.9922 10.9108C17.9922 7.32702 20.9309 4.41145 24.5433 4.41145ZM0.940356 10.9108C0.940356 7.32702 3.87916 4.41145 7.4915 4.41145C11.1038 4.41145 14.0427 7.32702 14.0427 10.9108C14.0427 12.5352 13.4389 14.0223 12.4423 15.1629L8.81145 11.5607C8.91145 11.3612 8.96474 11.1401 8.96474 10.9108C8.96474 10.6815 8.91145 10.4605 8.81145 10.2609L11.3703 7.72233C11.5539 7.54017 11.5539 7.24486 11.3703 7.0627C11.1867 6.88054 10.8889 6.88054 10.7054 7.0627L8.14662 9.60132C7.94544 9.50213 7.72265 9.44925 7.4915 9.44925C7.098 9.44925 6.728 9.60126 6.44978 9.87735C6.17155 10.1534 6.01829 10.5204 6.01829 10.9108C6.01829 11.1401 6.07158 11.3612 6.17155 11.5607L3.61272 14.0993C3.42911 14.2815 3.42911 14.5768 3.61272 14.759C3.70451 14.85 3.82488 14.8955 3.94517 14.8955C4.06547 14.8955 4.18584 14.85 4.27762 14.759L6.8364 12.2204C7.03743 12.3195 7.2603 12.3724 7.49145 12.3724C7.72257 12.3724 7.94539 12.3195 8.1465 12.2204L11.7773 15.8225C10.6277 16.8112 9.1288 17.4102 7.4915 17.4102C3.87916 17.4102 0.940356 14.4946 0.940356 10.9108ZM7.4915 34.3271C3.87916 34.3271 0.940356 31.4118 0.940356 27.8279C0.940356 24.2441 3.87916 21.3285 7.4915 21.3285C9.1288 21.3285 10.6277 21.9275 11.7774 22.9162L8.14655 26.5185C7.94544 26.4192 7.72265 26.3662 7.4915 26.3662C7.26038 26.3662 7.03756 26.4192 6.83645 26.5185L4.27768 23.9798C4.09406 23.7976 3.79634 23.7976 3.61278 23.9798C3.42916 24.1619 3.42916 24.4573 3.61278 24.6394L6.17163 27.1781C6.07158 27.3775 6.01829 27.5985 6.01829 27.8279C6.01829 28.2184 6.17155 28.5853 6.44978 28.8613C6.728 29.1375 7.09795 29.2895 7.4915 29.2895C7.72265 29.2895 7.94544 29.2365 8.14655 29.1375L10.7053 31.6761C10.7971 31.7672 10.9175 31.8125 11.0378 31.8125C11.1581 31.8125 11.2784 31.7672 11.3702 31.6761C11.5538 31.4938 11.5538 31.1984 11.3702 31.0164L8.8114 28.4778C8.91138 28.2782 8.96466 28.0572 8.96466 27.8279C8.96466 27.5985 8.91138 27.3775 8.8114 27.1781L12.4422 23.5759C13.4389 24.7165 14.0427 26.2035 14.0427 27.8279C14.0427 31.4118 11.1038 34.3271 7.4915 34.3271ZM24.5433 34.3271C20.9309 34.3271 17.9922 31.4118 17.9922 27.8279C17.9922 26.2035 18.5959 24.7165 19.5925 23.5759L23.2234 27.1781C23.1234 27.3775 23.0701 27.5985 23.0701 27.8279C23.0701 28.0572 23.1234 28.2782 23.2234 28.4778L20.6645 31.0164C20.4809 31.1984 20.4809 31.4938 20.6645 31.6761C20.7563 31.7672 20.8767 31.8125 20.997 31.8125C21.1173 31.8125 21.2376 31.7672 21.3294 31.6761L23.8882 29.1375C24.0893 29.2365 24.3122 29.2895 24.5433 29.2895C24.9368 29.2895 25.3067 29.1375 25.585 28.8613C25.8633 28.5853 26.0165 28.2184 26.0165 27.8279C26.0165 27.5985 25.9633 27.3775 25.8633 27.1781L28.4222 24.6394C28.6058 24.4572 28.6058 24.1619 28.4222 23.9798C28.2384 23.7976 27.9408 23.7976 27.7572 23.9798L25.1984 26.5185C24.9973 26.4192 24.7744 26.3662 24.5433 26.3662C24.3122 26.3662 24.0894 26.4192 23.8882 26.5185L20.2574 22.9162C21.407 21.9275 22.906 21.3285 24.5433 21.3285C28.1556 21.3285 31.0944 24.2441 31.0944 27.8279C31.0944 31.4118 28.1556 34.3271 24.5433 34.3271ZM45.4669 27.8003C44.3006 27.1254 43.0786 26.0852 41.801 24.68L38.0519 30.8174C39.7043 32.374 41.3775 33.5037 43.0716 34.2062C44.7797 34.909 46.7167 35.2602 48.8828 35.2602C52.4098 35.2602 55.2426 34.289 57.3812 32.3465C59.5057 30.3766 60.568 27.7936 60.568 24.5974C60.568 23.3024 60.3875 22.1452 60.0264 21.1258C59.6235 20.0512 59.0682 19.1627 58.36 18.4601C57.2769 17.3442 55.0413 16.3386 51.6532 15.4431C51.5697 15.4156 51.5073 15.4018 51.4657 15.4018C51.424 15.388 51.3754 15.3742 51.3197 15.3605C49.7508 14.9472 48.6815 14.5132 48.1121 14.0586C47.5706 13.5765 47.2998 12.9703 47.2998 12.2402C47.2998 11.4825 47.6122 10.8763 48.2373 10.4217C48.8899 9.93955 49.7022 9.69847 50.6742 9.69847C51.6324 9.69847 52.6112 9.89821 53.611 10.2977C54.6387 10.7248 55.6107 11.3309 56.527 12.1162L59.1306 6.18553C57.7838 5.29009 56.3605 4.61505 54.8608 4.16044C53.4305 3.70582 51.8337 3.4785 50.0702 3.4785C46.9458 3.4785 44.4187 4.39463 42.4884 6.22687C40.5304 8.04533 39.5516 10.4011 39.5516 13.294C39.5516 15.5258 40.1764 17.2891 41.4262 18.5841C42.6619 19.8515 44.7657 20.8847 47.7373 21.6837C49.9173 22.2623 51.3268 22.8203 51.9656 23.3575C52.5628 23.9224 52.8611 24.7007 52.8611 25.6926C52.8611 26.6019 52.5001 27.3526 51.778 27.945C51.056 28.5374 50.1464 28.8335 49.0496 28.8335C47.883 28.8335 46.6889 28.4893 45.4669 27.8003ZM73.2141 23.1923H81.483L78.3797 13.2114C78.3103 13.0323 78.1784 12.5364 77.9839 11.7236C77.7479 10.773 77.5326 9.91201 77.3383 9.14055C77.1437 9.84314 76.9773 10.5526 76.8384 11.269C76.6162 11.9578 76.4287 12.6053 76.276 13.2114L73.2141 23.1923ZM61.5708 34.4955L72.0894 4.24311H82.5037L93.0431 34.4955H84.7741L83.2327 29.0817H71.4228L69.8398 34.4955H61.5708ZM89.6081 46.6758H87.3304L88.1738 43.9265C88.2159 43.7595 88.2675 43.5813 88.3287 43.3915C88.3671 43.1942 88.4129 42.9989 88.4663 42.8053C88.52 43.0177 88.5792 43.2548 88.6443 43.5168C88.6977 43.7407 88.7341 43.8771 88.7534 43.9265L89.6081 46.6758ZM87.0207 41.4562L84.1233 49.7894H86.401L86.837 48.2979H90.0902L90.5146 49.7894H92.7924L89.8894 41.4562H87.0207ZM1.2834 47.0857C1.63529 47.4728 1.97188 47.7591 2.29316 47.9452C2.62975 48.135 2.95868 48.2297 3.27997 48.2297C3.58215 48.2297 3.83266 48.1482 4.03155 47.985C4.23047 47.8218 4.3299 47.615 4.3299 47.3645C4.3299 47.0915 4.24766 46.8769 4.0832 46.7214C3.90725 46.5735 3.51902 46.4198 2.91852 46.2604C2.10001 46.0403 1.52054 45.7557 1.18013 45.4065C0.835892 45.05 0.663772 44.5641 0.663772 43.9493C0.663772 43.1526 0.933427 42.5037 1.47273 42.0028C2.00439 41.4981 2.7005 41.2457 3.56109 41.2457C4.04687 41.2457 4.48672 41.3083 4.88068 41.4337C5.29376 41.5588 5.68582 41.7448 6.05682 41.9915L5.33966 43.6249C5.08722 43.4088 4.81949 43.2418 4.53643 43.124C4.26105 43.0142 3.99141 42.959 3.72749 42.959C3.45976 42.959 3.236 43.0255 3.05621 43.1583C2.8841 43.2834 2.79805 43.4504 2.79805 43.6593C2.79805 43.8603 2.87264 44.0273 3.02179 44.1599C3.17861 44.2853 3.47314 44.4049 3.90534 44.5187C3.92064 44.5225 3.93403 44.5262 3.94551 44.53C3.95699 44.53 3.97419 44.5337 3.99713 44.5415C4.9304 44.788 5.5462 45.065 5.84454 45.3724C6.03962 45.5659 6.19261 45.8106 6.30352 46.1067C6.40298 46.3875 6.45269 46.7062 6.45269 47.0629C6.45269 47.9434 6.16009 48.6547 5.5749 49.1975C4.98586 49.7325 4.2056 50 3.23409 50C2.6374 50 2.10383 49.9032 1.63337 49.7097C1.16674 49.5161 0.705846 49.205 0.250688 48.7763L1.2834 47.0857ZM7.73788 49.7894H9.88362V47.0401H10.6868C11.4174 47.0401 11.9299 47.0002 12.2244 46.9205C12.5534 46.8408 12.8345 46.7099 13.0678 46.5279C13.3929 46.2812 13.6282 45.97 13.7735 45.5942C13.938 45.2224 14.0202 44.7859 14.0202 44.2853C14.0202 43.8147 13.938 43.3877 13.7735 43.0044C13.609 42.6288 13.3738 42.3139 13.0678 42.0597C12.8115 41.8471 12.4922 41.6914 12.1097 41.5929C11.7195 41.5019 11.0598 41.4562 10.1303 41.4562H7.73788V49.7894ZM10.3197 45.2071H9.88362V43.2493H10.3426C10.8896 43.2493 11.2682 43.325 11.4786 43.477C11.6928 43.6249 11.7999 43.8716 11.7999 44.2168C11.7999 44.5773 11.6909 44.8296 11.4728 44.974C11.2472 45.1294 10.8628 45.2071 10.3197 45.2071ZM17.4051 46.6758H19.6828L18.8279 43.9265C18.8088 43.8771 18.7725 43.7407 18.7189 43.5168C18.6539 43.2548 18.5946 43.0177 18.5411 42.8053C18.4875 42.9989 18.4416 43.1942 18.4034 43.3915C18.3422 43.5813 18.2905 43.7595 18.2485 43.9265L17.4051 46.6758ZM14.198 49.7894L17.0953 41.4562H19.9639L22.867 49.7894H20.5893L20.1647 48.2979H16.9117L16.4756 49.7894H14.198ZM23.676 41.4562V49.7894H25.8217V46.5279L27.7494 49.7894H30.337L28.0478 46.4311C28.6635 46.3057 29.1284 46.0382 29.442 45.6283C29.7634 45.2187 29.9239 44.6932 29.9239 44.0519C29.9239 43.6191 29.8416 43.232 29.6772 42.8906C29.5205 42.5338 29.2891 42.2417 28.9829 42.0141C28.7039 41.8092 28.3863 41.6648 28.0307 41.5814C27.8242 41.536 27.5602 41.5036 27.239 41.4848C26.9213 41.4658 26.5312 41.4562 26.0684 41.4562H23.676ZM26.2464 45.3952H25.8217V43.2037H26.2808C26.782 43.2037 27.1395 43.293 27.3536 43.4712C27.5639 43.6457 27.6692 43.9418 27.6692 44.3592C27.6692 44.7045 27.5564 44.9682 27.3308 45.1502C27.1089 45.3134 26.7474 45.3952 26.2464 45.3952ZM31.2148 49.7894V41.4562H33.6073C34.0701 41.4562 34.4602 41.4658 34.7776 41.4848C35.099 41.5036 35.3628 41.536 35.5694 41.5814C35.9251 41.6648 36.2425 41.8092 36.5218 42.0141C36.8279 42.2417 37.0593 42.5338 37.216 42.8906C37.3805 43.232 37.4627 43.6191 37.4627 44.0519C37.4627 44.6932 37.302 45.2187 36.9809 45.6283C36.6672 46.0382 36.2024 46.3057 35.5867 46.4311L37.8759 49.7894H35.2883L33.3606 46.5279V49.7894H31.2148ZM33.3606 45.3952H33.7851C34.2862 45.3952 34.6478 45.3134 34.8694 45.1502C35.0953 44.9682 35.2081 44.7045 35.2081 44.3592C35.2081 43.9418 35.1028 43.6457 34.8925 43.4712C34.6783 43.293 34.3206 43.2037 33.8197 43.2037H33.3606V45.3952ZM47.0496 47.3134C47.2677 46.7897 47.3768 46.2261 47.3768 45.6229C47.3768 45.0272 47.2677 44.4674 47.0496 43.9436C46.824 43.4202 46.4971 42.9496 46.0686 42.5321C45.6441 42.1147 45.1603 41.7978 44.6172 41.5817C44.0739 41.3616 43.4983 41.2515 42.8901 41.2515C42.2821 41.2515 41.7102 41.3596 41.1747 41.5759C40.6239 41.796 40.1383 42.1147 39.7173 42.5321C39.3044 42.923 38.9792 43.3936 38.7421 43.9436C38.5127 44.4827 38.3978 45.0422 38.3978 45.6229C38.3978 46.2035 38.5127 46.7631 38.7421 47.3019C38.9792 47.8522 39.3044 48.3228 39.7173 48.7137C40.1267 49.1196 40.6124 49.4347 41.1747 49.6586C41.7446 49.8825 42.3164 49.9943 42.8901 49.9943C43.4562 49.9943 44.028 49.8825 44.6057 49.6586C45.1565 49.4385 45.6459 49.1233 46.0743 48.7137C46.5066 48.2925 46.8317 47.8256 47.0496 47.3134ZM44.4736 47.3703C44.0491 47.8369 43.5214 48.0703 42.8901 48.0703C42.2475 48.0703 41.7177 47.8409 41.3011 47.3816C40.8954 46.9339 40.6928 46.3477 40.6928 45.6229C40.6928 44.9247 40.8994 44.3423 41.3124 43.8754C41.7255 43.4086 42.2515 43.1752 42.8901 43.1752C43.5136 43.1752 44.0376 43.4086 44.4623 43.8754C44.8792 44.346 45.0876 44.9284 45.0876 45.6229C45.0876 45.9797 45.0379 46.3021 44.9384 46.5904C44.8388 46.879 44.6842 47.1389 44.4736 47.3703ZM54.5368 41.4562L55.5926 45.4177C55.6385 45.5772 55.6864 45.7632 55.736 45.9756C55.7513 46.0515 55.7724 46.1616 55.7992 46.3057L55.8392 46.5184L55.8621 46.6417C55.9158 46.395 55.9636 46.1503 56.0055 45.9074C56.0286 45.7898 56.0687 45.6266 56.1261 45.4177L57.1129 41.4562H59.425L57.0497 49.7894H54.927L53.8885 46.2318C53.8158 45.9663 53.7546 45.7213 53.705 45.4975C53.7012 45.4749 53.6897 45.4293 53.6706 45.3608C53.6513 45.2926 53.6303 45.2111 53.6075 45.1161C53.5997 45.1427 53.5731 45.2548 53.5272 45.4521C53.4583 45.7557 53.3913 46.0154 53.3264 46.2318L52.305 49.7894H50.1765L47.807 41.4562H50.1191L51.0831 45.4405C51.1136 45.5734 51.1595 45.7803 51.2207 46.0611C51.2819 46.3569 51.322 46.5657 51.3413 46.6871C51.3909 46.4519 51.4293 46.2849 51.4559 46.1862C51.5248 45.875 51.584 45.6266 51.6339 45.4405L52.6894 41.4562H54.5368ZM68.5408 46.6758H66.2631L67.1065 43.9265C67.1486 43.7595 67.2003 43.5813 67.2615 43.3915C67.2996 43.1942 67.3455 42.9989 67.3991 42.8053C67.4528 43.0177 67.5119 43.2548 67.5769 43.5168C67.6305 43.7407 67.6669 43.8771 67.6859 43.9265L68.5408 46.6758ZM65.9533 41.4562L63.056 49.7894H65.3337L65.7697 48.2979H69.0227L69.4474 49.7894H71.7251L68.8219 41.4562H65.9533ZM74.938 49.7894L71.4153 41.4562H73.848L75.529 46.118L75.546 46.1977C75.5613 46.2471 75.5864 46.3361 75.6207 46.4652C75.6666 46.6625 75.7298 46.9187 75.81 47.2336C75.8597 47.006 75.9191 46.7783 75.988 46.5504C76.0377 46.3266 76.0758 46.1824 76.1026 46.118L77.7721 41.4562H80.2047L76.682 49.7894H74.938ZM80.9448 41.4562V49.7894H83.2571V41.4562H80.9448Z" fill="#F2F4F7"/>
</svg>
