<svg width="103" height="55" viewBox="0 0 103 55" fill="none" xmlns="http://www.w3.org/2000/svg">
<path fill-rule="evenodd" clip-rule="evenodd" d="M37.9962 0H39.0993V42.6125H37.9962V0ZM26.9976 22.4351C25.672 22.4351 23.3079 23.3019 23.3079 23.3019V19.3106C23.3079 19.3106 25.6719 20.1774 26.9976 20.1774C31.5417 20.1774 35.2384 16.5099 35.2384 12.0019C35.2384 7.49384 31.5417 3.82633 26.9976 3.82633C22.4537 3.82633 18.757 7.49384 18.757 12.0019C18.757 13.3171 19.6307 15.6625 19.6307 15.6625H15.6076C15.6076 15.6625 16.4813 13.3171 16.4813 12.0019C16.4813 7.49384 12.7846 3.82633 8.24065 3.82633C3.69672 3.82633 0 7.49384 0 12.0019C0 16.5099 3.69672 20.1774 8.24065 20.1774C9.56634 20.1774 11.9304 19.3106 11.9304 19.3106V23.3019C11.9304 23.3019 9.56634 22.4351 8.24065 22.4351C3.69672 22.4351 0 26.1026 0 30.6106C0 35.1186 3.69672 38.7862 8.24065 38.7862C12.7846 38.7862 16.4813 35.1186 16.4813 30.6106C16.4813 29.2955 15.6076 26.95 15.6076 26.95H19.6307C19.0721 28.052 18.757 29.2955 18.757 30.6106C18.757 35.1186 22.4537 38.7862 26.9976 38.7862C31.5417 38.7862 35.2384 35.1186 35.2384 30.6106C35.2384 26.1026 31.5417 22.4351 26.9976 22.4351ZM26.9976 4.85256C30.9712 4.85256 34.2039 8.05969 34.2039 12.0019C34.2039 15.9441 30.9712 19.1512 26.9976 19.1512C25.1966 19.1512 23.5477 18.4923 22.2832 17.4047L26.2771 13.4424C26.4982 13.5515 26.7434 13.6096 26.9976 13.6096C27.2519 13.6096 27.497 13.5515 27.7182 13.4424L30.5329 16.2348C30.6337 16.335 30.7662 16.3851 30.8987 16.3851C31.0309 16.3851 31.1633 16.335 31.2644 16.2348C31.4663 16.0344 31.4663 15.7095 31.2644 15.5092L28.4496 12.7167C28.5597 12.4973 28.6182 12.2541 28.6182 12.0019C28.6182 11.5724 28.4496 11.1687 28.1435 10.865C27.8374 10.5614 27.4305 10.3941 26.9976 10.3941C26.7434 10.3941 26.4983 10.4523 26.2771 10.5614L23.4624 7.76894C23.2604 7.56856 22.9329 7.56856 22.731 7.76894C22.529 7.96932 22.529 8.29424 22.731 8.49453L25.5457 11.287C25.4357 11.5065 25.3771 11.7496 25.3771 12.0019C25.3771 12.2541 25.4357 12.4973 25.5457 12.7167L21.5518 16.6791C20.4555 15.4245 19.7914 13.7887 19.7914 12.0019C19.7914 8.05969 23.024 4.85256 26.9976 4.85256ZM1.03439 12.0019C1.03439 8.05969 4.26707 4.85256 8.24065 4.85256C12.2142 4.85256 15.4469 8.05969 15.4469 12.0019C15.4469 13.7887 14.7828 15.4245 13.6865 16.6791L9.69259 12.7167C9.8026 12.4973 9.86121 12.2541 9.86121 12.0019C9.86121 11.7496 9.8026 11.5065 9.69259 11.287L12.5073 8.49453C12.7093 8.29415 12.7093 7.96932 12.5073 7.76894C12.3053 7.56856 11.9778 7.56856 11.7759 7.76894L8.96129 10.5614C8.73999 10.4523 8.49491 10.3941 8.24065 10.3941C7.8078 10.3941 7.4008 10.5614 7.09475 10.865C6.78871 11.1687 6.62012 11.5724 6.62012 12.0019C6.62012 12.2541 6.67873 12.4973 6.78871 12.7167L3.974 15.5092C3.77202 15.7096 3.77202 16.0344 3.974 16.2348C4.07496 16.335 4.20737 16.3851 4.33969 16.3851C4.47202 16.3851 4.60443 16.335 4.70539 16.2348L7.52004 13.4424C7.74118 13.5515 7.98633 13.6096 8.2406 13.6096C8.49483 13.6096 8.73993 13.5515 8.96115 13.4424L12.9551 17.4047C11.6905 18.4923 10.0417 19.1512 8.24065 19.1512C4.26707 19.1512 1.03439 15.9441 1.03439 12.0019ZM8.24065 37.7598C4.26707 37.7598 1.03439 34.5529 1.03439 30.6106C1.03439 26.6685 4.26707 23.4613 8.24065 23.4613C10.0417 23.4613 11.6905 24.1202 12.9551 25.2078L8.9612 29.1703C8.73999 29.0611 8.49491 29.0028 8.24065 29.0028C7.98642 29.0028 7.74132 29.0611 7.5201 29.1703L4.70544 26.3777C4.50347 26.1773 4.17597 26.1773 3.97405 26.3777C3.77208 26.5781 3.77208 26.903 3.97405 27.1033L6.78879 29.8959C6.67873 30.1152 6.62012 30.3583 6.62012 30.6106C6.62012 31.0402 6.78871 31.4438 7.09475 31.7474C7.4008 32.0512 7.80774 32.2184 8.24065 32.2184C8.49491 32.2184 8.73999 32.1601 8.9612 32.0512L11.7759 34.8436C11.8768 34.9439 12.0092 34.9937 12.1416 34.9937C12.2739 34.9937 12.4063 34.9439 12.5072 34.8436C12.7092 34.6431 12.7092 34.3182 12.5072 34.118L9.69254 31.3256C9.80252 31.106 9.86113 30.8629 9.86113 30.6106C9.86113 30.3583 9.80252 30.1152 9.69254 29.8959L13.6864 25.9334C14.7828 27.1881 15.4469 28.8239 15.4469 30.6106C15.4469 34.5529 12.2142 37.7598 8.24065 37.7598ZM26.9976 37.7598C23.024 37.7598 19.7914 34.5529 19.7914 30.6106C19.7914 28.8239 20.4555 27.1881 21.5518 25.9334L25.5457 29.8959C25.4357 30.1152 25.3771 30.3583 25.3771 30.6106C25.3771 30.8629 25.4357 31.106 25.5457 31.3256L22.731 34.118C22.529 34.3182 22.529 34.6431 22.731 34.8436C22.8319 34.9439 22.9643 34.9937 23.0967 34.9937C23.229 34.9937 23.3614 34.9439 23.4624 34.8436L26.2771 32.0512C26.4982 32.1601 26.7434 32.2184 26.9976 32.2184C27.4305 32.2184 27.8374 32.0512 28.1435 31.7474C28.4496 31.4438 28.6182 31.0402 28.6182 30.6106C28.6182 30.3583 28.5597 30.1152 28.4496 29.8959L31.2644 27.1033C31.4663 26.9029 31.4663 26.5781 31.2644 26.3777C31.0622 26.1773 30.7348 26.1773 30.5329 26.3777L27.7182 29.1703C27.497 29.0611 27.2519 29.0028 26.9976 29.0028C26.7434 29.0028 26.4983 29.0611 26.2771 29.1703L22.2832 25.2078C23.5477 24.1202 25.1966 23.4613 26.9976 23.4613C30.9712 23.4613 34.2039 26.6685 34.2039 30.6106C34.2039 34.5529 30.9712 37.7598 26.9976 37.7598ZM50.0136 30.5803C48.7307 29.8379 47.3865 28.6937 45.9811 27.148L41.8571 33.8991C43.6748 35.6114 45.5153 36.8541 47.3788 37.6268C49.2577 38.3999 51.3884 38.7862 53.7712 38.7862C57.6509 38.7862 60.7669 37.7178 63.1193 35.5811C65.4563 33.4143 66.6248 30.5729 66.6248 27.0571C66.6248 25.6327 66.4262 24.3597 66.0291 23.2384C65.5859 22.0564 64.9751 21.079 64.196 20.3061C63.0046 19.0786 60.5455 17.9724 56.8185 16.9874C56.7267 16.9571 56.658 16.9419 56.6123 16.9419C56.5665 16.9268 56.513 16.9116 56.4518 16.8965C54.7259 16.4419 53.5497 15.9645 52.9234 15.4645C52.3277 14.9341 52.0299 14.2673 52.0299 13.4642C52.0299 12.6307 52.3735 11.9639 53.061 11.4639C53.7789 10.9335 54.6724 10.6683 55.7416 10.6683C56.7957 10.6683 57.8723 10.888 58.9721 11.3275C60.1026 11.7972 61.1718 12.464 62.1797 13.3278L65.0437 6.80406C63.5622 5.81908 61.9966 5.07654 60.3469 4.57646C58.7736 4.07639 57.0171 3.82633 55.0773 3.82633C51.6405 3.82633 48.8606 4.83407 46.7373 6.84954C44.5835 8.84984 43.5068 11.4411 43.5068 14.6234C43.5068 17.0783 44.1941 19.018 45.5688 20.4425C46.9282 21.8366 49.2423 22.9732 52.5111 23.8521C54.909 24.4886 56.4595 25.1023 57.1622 25.6933C57.8191 26.3146 58.1473 27.1708 58.1473 28.2618C58.1473 29.2621 57.7501 30.0878 56.9559 30.7395C56.1616 31.3911 55.1611 31.7168 53.9546 31.7168C52.6713 31.7168 51.3578 31.3382 50.0136 30.5803ZM80.5355 25.5115H89.6314L86.2178 14.5325C86.1414 14.3355 85.9963 13.79 85.7823 12.8959C85.5228 11.8503 85.2859 10.9032 85.0722 10.0546C84.8581 10.8274 84.675 11.6078 84.5222 12.3959C84.2779 13.1535 84.0716 13.8658 83.9037 14.5325L80.5355 25.5115ZM67.728 37.9451L79.2984 4.66739H90.7541L102.347 37.9451H93.2516L91.5561 31.9898H78.5651L76.8238 37.9451H67.728ZM98.569 51.3434H96.0635L96.9913 48.3192C97.0376 48.1355 97.0944 47.9394 97.1617 47.7306C97.2039 47.5136 97.2544 47.2988 97.3131 47.0859C97.3721 47.3194 97.4372 47.5803 97.5089 47.8685C97.5676 48.1148 97.6076 48.2648 97.6289 48.3192L98.569 51.3434ZM95.7229 45.6019L92.5357 54.7683H95.0412L95.5208 53.1277H99.0993L99.5662 54.7683H102.072L98.8784 45.6019H95.7229ZM1.41177 51.7943C1.79884 52.2201 2.16909 52.5351 2.52251 52.7397C2.89275 52.9485 3.25458 53.0527 3.60799 53.0527C3.94039 53.0527 4.21596 52.9631 4.43473 52.7835C4.65354 52.604 4.76292 52.3765 4.76292 52.101C4.76292 51.8007 4.67246 51.5646 4.49155 51.3936C4.298 51.2309 3.87095 51.0618 3.2104 50.8864C2.31003 50.6443 1.67262 50.3313 1.29817 49.9471C0.919509 49.555 0.730177 49.0205 0.730177 48.3443C0.730177 47.4678 1.0268 46.7541 1.62003 46.2031C2.20485 45.648 2.97058 45.3702 3.91723 45.3702C4.45158 45.3702 4.93542 45.4392 5.36878 45.5771C5.82316 45.7147 6.25443 45.9193 6.66253 46.1907L5.87365 47.9874C5.59597 47.7497 5.30146 47.566 4.9901 47.4364C4.68719 47.3156 4.39058 47.2549 4.10027 47.2549C3.80576 47.2549 3.55962 47.328 3.36186 47.4742C3.17253 47.6118 3.07789 47.7955 3.07789 48.0252C3.07789 48.2464 3.15993 48.43 3.32399 48.5759C3.4965 48.7138 3.82049 48.8454 4.29591 48.9706C4.31273 48.9747 4.32746 48.9789 4.34009 48.983C4.35272 48.983 4.37164 48.9871 4.39687 48.9957C5.42347 49.2668 6.10084 49.5715 6.42902 49.9096C6.64361 50.1225 6.81189 50.3917 6.9339 50.7174C7.0433 51.0263 7.09799 51.3768 7.09799 51.7692C7.09799 52.7378 6.77612 53.5202 6.13242 54.1172C5.48447 54.7057 4.62618 55 3.55753 55C2.90117 55 2.31424 54.8936 1.79674 54.6806C1.28344 54.4677 0.776458 54.1255 0.275784 53.6539L1.41177 51.7943ZM8.51169 54.7683H10.872V51.7441H11.7555C12.5591 51.7441 13.1229 51.7002 13.4469 51.6125C13.8087 51.5248 14.118 51.3809 14.3746 51.1807C14.7323 50.9093 14.991 50.5671 15.1509 50.1537C15.3318 49.7447 15.4223 49.2645 15.4223 48.7138C15.4223 48.1962 15.3318 47.7265 15.1509 47.3048C14.9699 46.8917 14.7112 46.5453 14.3746 46.2657C14.0927 46.0318 13.7414 45.8606 13.3207 45.7522C12.8915 45.6521 12.1658 45.6019 11.1434 45.6019H8.51169V54.7683ZM11.3516 49.7279H10.872V47.5743H11.3769C11.9785 47.5743 12.3951 47.6576 12.6265 47.8247C12.8621 47.9874 12.9799 48.2588 12.9799 48.6385C12.9799 49.0351 12.86 49.3125 12.6201 49.4714C12.3719 49.6424 11.9491 49.7279 11.3516 49.7279ZM19.1457 51.3434H21.6512L20.7109 48.3192C20.6898 48.2648 20.6498 48.1148 20.5909 47.8685C20.5194 47.5803 20.4542 47.3194 20.3953 47.0859C20.3364 47.2988 20.2859 47.5136 20.2438 47.7306C20.1765 47.9394 20.1197 48.1355 20.0734 48.3192L19.1457 51.3434ZM15.6179 54.7683L18.8049 45.6019H21.9604L25.1538 54.7683H22.6483L22.1813 53.1277H18.603L18.1233 54.7683H15.6179ZM26.0437 45.6019V54.7683H28.404V51.1807L30.5245 54.7683H33.3708L30.8526 51.0742C31.53 50.9363 32.0413 50.6421 32.3863 50.1912C32.7398 49.7405 32.9163 49.1625 32.9163 48.4571C32.9163 47.981 32.8259 47.5552 32.6449 47.1796C32.4726 46.7872 32.218 46.4659 31.8813 46.2155C31.5744 45.9902 31.2249 45.8313 30.8339 45.7395C30.6066 45.6896 30.3162 45.654 29.963 45.6333C29.6135 45.6124 29.1844 45.6019 28.6753 45.6019H26.0437ZM28.8711 49.9347H28.404V47.5241H28.9089C29.4602 47.5241 29.8535 47.6223 30.089 47.8183C30.3204 48.0103 30.4362 48.336 30.4362 48.7952C30.4362 49.1749 30.3121 49.465 30.0639 49.6652C29.8198 49.8448 29.4222 49.9347 28.8711 49.9347ZM34.3363 54.7683V45.6019H36.9681C37.4772 45.6019 37.9063 45.6124 38.2554 45.6333C38.609 45.654 38.8991 45.6896 39.1263 45.7395C39.5177 45.8313 39.8668 45.9902 40.174 46.2155C40.5108 46.4659 40.7653 46.7872 40.9377 47.1796C41.1186 47.5552 41.209 47.981 41.209 48.4571C41.209 49.1625 41.0323 49.7405 40.679 50.1912C40.334 50.6421 39.8227 50.9363 39.1454 51.0742L41.6635 54.7683H38.8172L36.6967 51.1807V54.7683H34.3363ZM36.6967 49.9347H37.1636C37.7149 49.9347 38.1126 49.8448 38.3563 49.6652C38.6048 49.465 38.7289 49.1749 38.7289 48.7952C38.7289 48.336 38.6131 48.0103 38.3817 47.8183C38.1462 47.6223 37.7527 47.5241 37.2017 47.5241H36.6967V49.9347ZM51.7547 52.0448C51.9946 51.4687 52.1146 50.8487 52.1146 50.1852C52.1146 49.5299 51.9946 48.9141 51.7547 48.338C51.5065 47.7622 51.1469 47.2445 50.6755 46.7853C50.2086 46.3262 49.6764 45.9776 49.079 45.7399C48.4814 45.4977 47.8482 45.3766 47.1792 45.3766C46.5104 45.3766 45.8813 45.4955 45.2923 45.7335C44.6864 45.9756 44.1522 46.3262 43.6892 46.7853C43.2349 47.2153 42.8772 47.7329 42.6164 48.338C42.364 48.9309 42.2377 49.5465 42.2377 50.1852C42.2377 50.8239 42.364 51.4394 42.6164 52.0321C42.8772 52.6374 43.2349 53.1551 43.6892 53.585C44.1395 54.0315 44.6737 54.3782 45.2923 54.6244C45.9191 54.8707 46.5482 54.9937 47.1792 54.9937C47.8019 54.9937 48.4309 54.8707 49.0663 54.6244C49.6722 54.3823 50.2106 54.0356 50.6819 53.585C51.1573 53.1217 51.515 52.6082 51.7547 52.0448ZM48.921 52.1074C48.4541 52.6206 47.8736 52.8774 47.1792 52.8774C46.4723 52.8774 45.8896 52.625 45.4313 52.1198C44.9851 51.6272 44.7622 50.9825 44.7622 50.1852C44.7622 49.4171 44.9895 48.7765 45.4437 48.263C45.8982 47.7495 46.4768 47.4927 47.1792 47.4927C47.865 47.4927 48.4414 47.7495 48.9086 48.263C49.3672 48.7806 49.5964 49.4213 49.5964 50.1852C49.5964 50.5776 49.5418 50.9323 49.4323 51.2494C49.3228 51.5668 49.1527 51.8528 48.921 52.1074ZM59.9907 45.6019L61.152 49.9595C61.2024 50.1349 61.2551 50.3395 61.3097 50.5731C61.3265 50.6567 61.3497 50.7778 61.3792 50.9363C61.4084 51.0908 61.4316 51.214 61.4484 51.3059C61.5075 51.0345 61.5601 50.7653 61.6062 50.4981C61.6316 50.3688 61.6757 50.1892 61.7388 49.9595L62.8243 45.6019H65.3676L62.7548 54.7683H60.4198L59.2775 50.855C59.1975 50.5629 59.1302 50.2935 59.0756 50.0472C59.0715 50.0224 59.0588 49.9722 59.0378 49.8969C59.0166 49.8219 58.9934 49.7323 58.9683 49.6277C58.9598 49.657 58.9305 49.7803 58.8801 49.9973C58.8042 50.3313 58.7306 50.617 58.6592 50.855L57.5356 54.7683H55.1943L52.5878 45.6019H55.1311L56.1915 49.9846C56.2251 50.1308 56.2756 50.3583 56.3429 50.6672C56.4102 50.9926 56.4543 51.2223 56.4755 51.3558C56.5301 51.0971 56.5723 50.9134 56.6016 50.8048C56.6774 50.4625 56.7425 50.1892 56.7974 49.9846L57.9584 45.6019H59.9907ZM75.395 51.3434H72.8895L73.8172 48.3192C73.8636 48.1355 73.9204 47.9394 73.9877 47.7306C74.0296 47.5136 74.08 47.2988 74.1391 47.0859C74.1981 47.3194 74.2632 47.5803 74.3346 47.8685C74.3936 48.1148 74.4336 48.2648 74.4546 48.3192L75.395 51.3434ZM72.5486 45.6019L69.3617 54.7683H71.8672L72.3468 53.1277H75.925L76.3922 54.7683H78.8977L75.7041 45.6019H72.5486ZM82.4319 54.7683L78.5569 45.6019H81.2328L83.0819 50.7298L83.1007 50.8175C83.1175 50.8718 83.1451 50.9697 83.1829 51.1117C83.2333 51.3288 83.3028 51.6106 83.3911 51.957C83.4457 51.7066 83.5111 51.4562 83.5869 51.2055C83.6415 50.9592 83.6834 50.8006 83.7129 50.7298L85.5494 45.6019H88.2253L84.3503 54.7683H82.4319ZM89.0393 45.6019V54.7683H91.5829V45.6019H89.0393Z" fill="white"/>
</svg>
