<svg width="40" height="40" viewBox="0 0 40 40" fill="none" xmlns="http://www.w3.org/2000/svg">
<path fill-rule="evenodd" clip-rule="evenodd" d="M31.76 15.2416C31.76 15.2416 31.5256 13.588 30.8064 12.8592C29.8936 11.9032 28.8704 11.8984 28.4016 11.8432C25.0432 11.6 20.0048 11.6 20.0048 11.6H19.9944C19.9944 11.6 14.9568 11.6 11.5984 11.8432C11.1296 11.8984 10.1064 11.9032 9.1936 12.8592C8.4744 13.588 8.24 15.2416 8.24 15.2416C8.24 15.2416 8 17.184 8 19.1256V20.8664C8 22.8088 8.24 24.7504 8.24 24.7504C8.24 24.7504 8.4744 26.4048 9.1936 27.1328C10.1064 28.0888 11.3056 28.0584 11.84 28.1592C13.76 28.3432 20 28.4 20 28.4C20 28.4 25.0432 28.392 28.4016 28.1496C28.8704 28.0936 29.8936 28.0888 30.8064 27.1328C31.5256 26.4048 31.76 24.7504 31.76 24.7504C31.76 24.7504 32 22.8088 32 20.8664V19.1256C32 17.184 31.76 15.2416 31.76 15.2416ZM17.5224 23.1528L17.5208 16.4096L24.0064 19.7936L17.5224 23.1528Z" fill="#F2F4F7"/>
</svg>
