<svg width="40" height="40" viewBox="0 0 40 40" fill="none" xmlns="http://www.w3.org/2000/svg">
<path fill-rule="evenodd" clip-rule="evenodd" d="M20 8C16.741 8 16.3323 8.01373 15.0524 8.07222C13.7751 8.13055 12.9028 8.33337 12.1396 8.62998C11.3504 8.93664 10.6812 9.34696 10.0141 10.0141C9.34701 10.6812 8.93668 11.3505 8.63003 12.1396C8.33331 12.9029 8.13049 13.7752 8.07221 15.0525C8.01377 16.3324 8.00005 16.7409 8.00005 19.9999C8.00005 23.2591 8.01377 23.6676 8.07221 24.9475C8.13049 26.2248 8.33331 27.0971 8.63003 27.8604C8.93668 28.6495 9.34701 29.3188 10.0141 29.9859C10.6812 30.653 11.3504 31.0634 12.1396 31.37C12.9028 31.6666 13.7751 31.8694 15.0524 31.9278C16.3323 31.9862 16.741 32 20 32C23.259 32 23.6676 31.9862 24.9476 31.9278C26.2249 31.8694 27.0972 31.6666 27.8604 31.37C28.6496 31.0634 29.3187 30.653 29.9859 29.9859C30.653 29.3188 31.0633 28.6495 31.37 27.8604C31.6667 27.0971 31.8695 26.2248 31.9277 24.9475C31.9862 23.6676 31.9999 23.2591 31.9999 19.9999C31.9999 16.7409 31.9862 16.3324 31.9277 15.0525C31.8695 13.7752 31.6667 12.9029 31.37 12.1396C31.0633 11.3505 30.653 10.6812 29.9859 10.0141C29.3187 9.34696 28.6496 8.93664 27.8604 8.62998C27.0972 8.33337 26.2249 8.13055 24.9476 8.07222C23.6676 8.01373 23.259 8 20 8ZM20 10.1621C23.2041 10.1621 23.5836 10.1743 24.849 10.2321C26.0189 10.2854 26.6544 10.481 27.0772 10.6453C27.6374 10.863 28.0372 11.123 28.457 11.5429C28.877 11.9629 29.137 12.3626 29.3547 12.9227C29.5189 13.3456 29.7145 13.981 29.7679 15.1509C29.8256 16.4164 29.8378 16.7958 29.8378 19.9999C29.8378 23.2042 29.8256 23.5836 29.7679 24.849C29.7145 26.019 29.5189 26.6544 29.3547 27.0773C29.137 27.6374 28.877 28.0371 28.457 28.4571C28.0372 28.877 27.6374 29.137 27.0772 29.3547C26.6544 29.519 26.0189 29.7146 24.849 29.7678C23.5838 29.8257 23.2044 29.8378 20 29.8378C16.7956 29.8378 16.4162 29.8257 15.151 29.7678C13.981 29.7146 13.3456 29.519 12.9228 29.3547C12.3626 29.137 11.9628 28.877 11.543 28.4571C11.1231 28.0371 10.863 27.6374 10.6453 27.0773C10.481 26.6544 10.2855 26.019 10.2321 24.849C10.1744 23.5836 10.1621 23.2042 10.1621 19.9999C10.1621 16.7958 10.1744 16.4164 10.2321 15.1509C10.2855 13.981 10.481 13.3456 10.6453 12.9227C10.863 12.3626 11.1231 11.9629 11.543 11.5429C11.9628 11.123 12.3626 10.863 12.9228 10.6453C13.3456 10.481 13.981 10.2854 15.151 10.2321C16.4164 10.1743 16.7959 10.1621 20 10.1621Z" fill="#F2F4F7"/>
<path fill-rule="evenodd" clip-rule="evenodd" d="M20.0001 13.5391C16.4315 13.5391 13.5386 16.432 13.5386 20.0006C13.5386 23.5693 16.4315 26.4621 20.0001 26.4621C23.5687 26.4621 26.4617 23.5693 26.4617 20.0006C26.4617 16.432 23.5687 13.5391 20.0001 13.5391ZM20.0001 24.1544C17.706 24.1544 15.8463 22.2947 15.8463 20.0006C15.8463 17.7065 17.706 15.8468 20.0001 15.8468C22.2943 15.8468 24.154 17.7065 24.154 20.0006C24.154 22.2947 22.2943 24.1544 20.0001 24.1544Z" fill="#F2F4F7"/>
<path fill-rule="evenodd" clip-rule="evenodd" d="M28.031 13.6313C28.031 14.4469 27.3698 15.1082 26.554 15.1082C25.7384 15.1082 25.0771 14.4469 25.0771 13.6313C25.0771 12.8156 25.7384 12.1543 26.554 12.1543C27.3698 12.1543 28.031 12.8156 28.031 13.6313Z" fill="#F2F4F7"/>
</svg>
